<svg
  width="24"
  height="24"
  viewBox="0 0 24 24"
  fill="currentColor"
  xmlns="http://www.w3.org/2000/svg"
>
  <path
    fill-rule="evenodd"
    clip-rule="evenodd"
    d="M8.5 3.75C5.87665 3.75 3.75 5.87665 3.75 8.5V15.5C3.75 18.1234 5.87665 20.25 8.5 20.25H15.5C18.1234 20.25 20.25 18.1234 20.25 15.5V8.5C20.25 5.87665 18.1234 3.75 15.5 3.75H8.5ZM5.25 8.5C5.25 6.70507 6.70507 5.25 8.5 5.25H15.5C17.2949 5.25 18.75 6.70507 18.75 8.5V15.5C18.75 17.2949 17.2949 18.75 15.5 18.75H8.5C6.70507 18.75 5.25 17.2949 5.25 15.5V8.5ZM12 7.75C12.4142 7.75 12.75 8.08579 12.75 8.5V11.25H15.5C15.9142 11.25 16.25 11.5858 16.25 12C16.25 12.4142 15.9142 12.75 15.5 12.75H12.75V15.5C12.75 15.9142 12.4142 16.25 12 16.25C11.5858 16.25 11.25 15.9142 11.25 15.5V12.75H8.5C8.08579 12.75 7.75 12.4142 7.75 12C7.75 11.5858 8.08579 11.25 8.5 11.25H11.25V8.5C11.25 8.08579 11.5858 7.75 12 7.75Z"
    fill="currentColor"
  />
</svg>
