<svg width="24" height="24" viewBox="0 0 24 24" fill="none" xmlns="http://www.w3.org/2000/svg">
<path fill-rule="evenodd" clip-rule="evenodd" d="M5.81283 11.1161C4.73889 10.0422 4.73889 8.30097 5.81283 7.22703C6.88677 6.15308 8.62798 6.15308 9.70192 7.22703L10.409 7.93413L13.2375 10.7626L15.3588 12.8839C16.0422 13.5673 16.0422 14.6753 15.3588 15.3588C14.6754 16.0422 13.5673 16.0422 12.8839 15.3588L7.93415 10.409L8.99481 9.34835L13.9446 14.2981C14.0422 14.3957 14.2005 14.3957 14.2981 14.2981C14.3957 14.2005 14.3957 14.0422 14.2981 13.9445L12.1768 11.8232L9.34836 8.99479L8.64126 8.28769C8.1531 7.79953 7.36165 7.79953 6.87349 8.28769C6.38533 8.77584 6.38533 9.5673 6.87349 10.0555L8.99481 12.1768L10.409 13.591L13.2375 16.4194C14.1161 17.2981 15.5408 17.2981 16.4194 16.4194C17.2981 15.5407 17.2981 14.1161 16.4194 13.2374L12.1768 8.99479L13.2375 7.93413L17.4801 12.1768C18.9446 13.6412 18.9446 16.0156 17.4801 17.4801C16.0156 18.9445 13.6413 18.9445 12.1768 17.4801L9.34836 14.6516L7.93415 13.2374L5.81283 11.1161Z" fill="black"/>
</svg>
