<svg xmlns="http://www.w3.org/2000/svg" width="24" height="24" viewBox="0 0 24 24" fill="none">
  <path fill-rule="evenodd" clip-rule="evenodd" d="M6.25 10C6.25 6.82436 8.82436 4.25 12 4.25C15.1756 4.25 17.75 6.82436 17.75 10V15.25H20.5C20.9142 15.25 21.25 15.5858 21.25 16C21.25 16.4142 20.9142 16.75 20.5 16.75H3.5C3.08579 16.75 2.75 16.4142 2.75 16C2.75 15.5858 3.08579 15.25 3.5 15.25H6.25V10ZM16.25 10V15.25H7.75V10C7.75 7.65279 9.65279 5.75 12 5.75C14.3472 5.75 16.25 7.65279 16.25 10ZM12 19.25C10.7574 19.25 9.75 18.2426 9.75 17H8.25C8.25 19.0711 9.92893 20.75 12 20.75C14.0711 20.75 15.75 19.0711 15.75 17H14.25C14.25 18.2426 13.2426 19.25 12 19.25Z" fill="currentColor"/>
  <circle cx="21" cy="3" r="2" fill="#FF6969"/>
</svg>
