<svg
  width="40"
  height="40"
  viewBox="0 0 24 24"
  fill="currentColor"
  xmlns="http://www.w3.org/2000/svg"
>
  <path
    fill-rule="evenodd"
    clip-rule="evenodd"
    d="M4 5.25H3.25V6V20H4.75V6.75H12.25V20H13.75V6V5.25H13H4ZM8 8H6V10H8V8ZM6 11H8V13H6V11ZM8 14H6V16H8V14ZM6 17H8V19H6V17ZM11 8H9V10H11V8ZM9 11H11V13H9V11ZM11 14H9V16H11V14Z"
    fill="currentColor"
  />
  <path
    fill-rule="evenodd"
    clip-rule="evenodd"
    d="M12.25 8.25H13H20H20.75V9V20H19.25V9.75H13.75V20H12.25V9V8.25ZM15 12H17V14H15V12ZM17 15H15V17H17V15Z"
    fill="currentColor"
  />
</svg>
