<svg xmlns="http://www.w3.org/2000/svg" width="138" height="44" viewBox="0 0 138 44">
    <path data-name="사각형 27743" style="fill:none" d="M0 0h138v44H0z"/>
    <g data-name="그룹 48957">
        <path data-name="패스 147" d="M50.986 15.85c.145-.066.251-.1.375-.164a2.228 2.228 0 0 1-.1-.219c.159-.145.4-.243.463-.463.005-.066.119-.132.211-.164a.343.343 0 0 0 .264-.375 1.724 1.724 0 0 0-.074-.515l-.032-.18c.066-.463-.251-.856-.4-1.287a4.016 4.016 0 0 1-.217-1.041c-.026-.2.2-.41.428-.463.193-.048.391-.066.581-.1a5.246 5.246 0 0 0 .74-.1.89.89 0 0 1 .751.151 1.935 1.935 0 0 1 .748.991v.1a1.869 1.869 0 0 0-.021.973v.182a3.024 3.024 0 0 0 .114 1.057c.04.114-.04.246-.008.375.034.1.193.2.206.317s-.066.246-.106.378a1.008 1.008 0 0 0 .724.1 9.989 9.989 0 0 1 1.538-.066 1.172 1.172 0 0 0 .272 0 3.49 3.49 0 0 1 .909 0 2.589 2.589 0 0 1 .383-.013 4.183 4.183 0 0 0 1.123-.066 3.34 3.34 0 0 1 .605.066c.132.013.251 0 .41 0a2.8 2.8 0 0 1 .338.51.824.824 0 0 1 .124.579c-.026.1.053.211.093.312.048.132.066.251-.085.33l-.1.151a2.277 2.277 0 0 1-.243.309c-.251.219-.515.431-.78.648l-.1.1c.032.177-.114.211-.291.3a4.688 4.688 0 0 1-1.723.463c-.272.013-.529.111-.793.145a5.2 5.2 0 0 1-1.261.164.575.575 0 0 0-.3.1 1.709 1.709 0 0 0-.259.132 2.949 2.949 0 0 1-.251-.18l-.151.048c-.256.119-.5.283-.825.132h-.106c-.352.066-.352.066-.555-.167l-.19.087c-.211.032-.41.164-.655.032h-.217c-.114-.019-.206-.053-.264-.053a3 3 0 0 1-.468.087c-.259 0-.515-.066-.774-.087l-.071-.013c-.436.2-.692-.066-1.023-.251a1.834 1.834 0 0 1-.087.185c-.151.013-.309.034-.486.048-.225-.167-.529-.079-.814-.034-.159.034-.288.087-.433 0l-.114-.013a1 1 0 0 1-.833-.283 1.369 1.369 0 0 1-.336-.4c-.111-.23-.137-.494-.37-.674a.949.949 0 0 1-.428-.581l-.087-.111c.021-.185.026-.33.048-.481a2.833 2.833 0 0 1 .092-.708c.053-.132.251-.217.389-.315l.233-.114a1.015 1.015 0 0 1 .9-.251 2.267 2.267 0 0 1 1.274.034 3.291 3.291 0 0 0 .722 0 1.789 1.789 0 0 1 .526.053.783.783 0 0 0 .383 0c.251-.066.352.111.463.3" transform="translate(18.139 12.803)" style="fill:#fff"/>
        <path data-name="패스 148" d="M61.809 11.1c.172.264.317.476.455.692.153.233.061.476.061.706a7.39 7.39 0 0 1-.053.515c-.061.33-.119.661-.185 1a1.163 1.163 0 0 0-.053.3 1.677 1.677 0 0 1-.1.877c-.092.167-.005.378-.019.563a9.624 9.624 0 0 0-.159 1.366c.093.626.132 1.24.2 1.869l.058.132c.264.362.523.724.793 1.068a1.208 1.208 0 0 0 .793.4 4.583 4.583 0 0 0 .463.119c.185.032.362.079.547.111.093.021.243 0 .264.034.132.217.383.151.595.151.433.013.9.013 1.353-.019.132 0 .264-.132.428-.211a1.623 1.623 0 0 0 .211.1l.23.048c.259-.278.682-.145 1.018-.264.322-.1.687-.2 1.031-.3a3.512 3.512 0 0 1 .481-.079c.185-.034.383-.066.568-.1.407-.053.825-.119 1.226-.164l.193-.021a1.969 1.969 0 0 1 1.755.3.761.761 0 0 1 .357.56 1.162 1.162 0 0 1-.463 1.121 10.451 10.451 0 0 1-1.883 1.126c-.336.2-.674.4-1 .613-.079.034-.145.114-.225.132a14.6 14.6 0 0 0-1.7.642c-.5.151-1 .315-1.53.428-.238.053-.476.164-.714.2a2.028 2.028 0 0 1-1.089-.048 1.031 1.031 0 0 0-.238-.032 8.542 8.542 0 0 1-2.672-.484l-.119-.063a5.361 5.361 0 0 0-1.031-.661 5.015 5.015 0 0 1-.634-.642c-.2-.23-.4-.481-.653-.759.127-.2.021-.415-.243-.613l-.127-.1a21.57 21.57 0 0 1-.177-.925l-.021-.18a3.064 3.064 0 0 1-.256-.922 3.612 3.612 0 0 1-.074-1.023 8.86 8.86 0 0 1 .021-1.242 6.513 6.513 0 0 1 .145-1.961l-.026-.23a.591.591 0 0 1 .093-.56.6.6 0 0 0 .071-.251 1.853 1.853 0 0 1 .053-.278c.153-.449.325-.912.5-1.374.032-.079.079-.164.119-.243.209-.383.415-.759.605-1.142.167-.344.172-.362.629-.309z" transform="translate(40.305 13.291)" style="fill:#fff"/>
        <path data-name="패스 149" d="M74.6 8.548a.634.634 0 0 1 .7-.33h.1a1.315 1.315 0 0 1 .751.048l.225.053c.225-.021.431 0 .457.23.238.045.277.243.436.344a.751.751 0 0 1 .3.613v.1a.46.46 0 0 1 .061.574 1.273 1.273 0 0 1-.608.714c-.291.1-.555.23-.846.341l-.058.021a2.522 2.522 0 0 0-.944-.034.392.392 0 0 1-.3-.151l-.18-.211h-.83l-.127-.032a.771.771 0 0 0-.759-.066l-.1.013c-.338-.114-.648.1-.986.066a1.22 1.22 0 0 0-.441.164l-.04.119a1.434 1.434 0 0 1-.278-.085.666.666 0 0 1-.711.3.655.655 0 0 0-.246.613 2.263 2.263 0 0 1 .285.246c-.061.066-.106.151-.172.23.145.053.336.066.349.2a1.266 1.266 0 0 1-.034.515c-.09.3-.1.3.259.476-.238.328-.021.613.151.891l.066.164c-.013.285-.013.285.312.418-.008.1-.034.2-.04.309.3.053.362.283.476.449a.366.366 0 0 0 .381.23c-.032.211.021.344.3.444.137.053.2.248.336.428a2.292 2.292 0 0 1 .745.362 4.068 4.068 0 0 0 .912.449.848.848 0 0 1 .278.177.447.447 0 0 0 .436.153h.184c.251.1.552.045.772.211.27.185.568.032.851.032a1.821 1.821 0 0 1 .838.053c.14-.185.4-.066.6-.132a5.626 5.626 0 0 1 .587-.053 3.022 3.022 0 0 0 .595-.2c.093-.032.159-.079.27-.045a.382.382 0 0 0 .278-.053c.137-.164.375-.177.568-.278s.37-.217.555-.33a.847.847 0 0 1 .547-.164c.177.013.349 0 .534 0 .106.1.211.2.309.3l.106.1c.193.066.312.132.193.33-.034.045.04.177.111.243a.45.45 0 0 1 .18.428 3.9 3.9 0 0 1-.145.449 1.053 1.053 0 0 1 .124.167A3.61 3.61 0 0 1 82.3 20l-.124.114a1.6 1.6 0 0 1-.357.3c-.463.3-1.031.463-1.493.759a2.605 2.605 0 0 0-.381.383l-.172.18a1.416 1.416 0 0 0-.444.415 2.284 2.284 0 0 1-.481.132 1.254 1.254 0 0 1-.455-.087 1.113 1.113 0 0 0-.576-.045 2.346 2.346 0 0 0-.751.177h-.159l-.172.053c-.074.2-.357.145-.5.264a2.23 2.23 0 0 1-.219-.1l-.066.013a.654.654 0 0 1-.433.185h-.034c-.2.032-.4.1-.6.111a1.557 1.557 0 0 1-.555-.045 5.831 5.831 0 0 0-1.07-.034 5.478 5.478 0 0 1-1.247-.264l-.05-.032c-.106-.233-.431-.2-.655-.3-.132-.066-.291-.1-.441-.164l-.127-.087c-.04-.2-.248-.23-.46-.262-.251-.048-.278-.2-.272-.365a6.731 6.731 0 0 1-.817-.375l-.106-.119a.349.349 0 0 0-.291-.167.248.248 0 0 1-.246-.243c-.026-.23-.026-.23-.3-.3-.053-.021-.111-.053-.19-.087.013-.079.04-.145.066-.264l-.087-.066c-.336-.111-.362-.164-.182-.428l.019-.066a.528.528 0 0 1-.27-.595 4.643 4.643 0 0 1-.523-.066.383.383 0 0 0 .114-.463l.005-.111c.132-.23.013-.383-.256-.481a1.637 1.637 0 0 0 .092-.233 1.887 1.887 0 0 1-.2.066.288.288 0 0 1-.061-.344c.127-.185.048-.317-.159-.447.193-.114.193-.233.034-.365-.066-.045-.053-.164-.071-.264l-.021-.132c-.251-.211-.159-.476-.27-.706-.061-.132.066-.2.225-.264l-.166-.1c-.172-.066-.238-.132-.124-.285l-.021-.177a1.111 1.111 0 0 1-.085-.317c-.021-.164-.066-.243-.285-.278a.564.564 0 0 1-.507-.283c-.026-.048-.151-.1-.238-.145-.2-.066-.243-.119-.243-.3l-.074-.164c-.106-.119-.2-.217-.111-.383l-.04-.132c-.193-.132-.172-.33-.285-.494a.152.152 0 0 1 .074-.246c.23-.085.277-.217.172-.381l.211-.145c.106-.087.238-.153.177-.3l.1-.151c.079-.048.185-.1.275-.145v-.219c.013-.1.087-.177.225-.23.114-.013.219-.1.325-.1a.52.52 0 0 0 .423-.33l.058-.048c.251 0 .468-.018.674 0 .317 0 .626.013.944.013a.6.6 0 0 0 .3-.079 1.087 1.087 0 0 1 .312-.119.65.65 0 0 0 .389-.164c.053-.1.193-.1.322-.079.2.013.391.045.589.045l.2-.066a.549.549 0 0 1 .568-.045.313.313 0 0 0 .349-.053.39.39 0 0 1 .4-.1l.151-.013.185-.066c.3.079.56-.1.859-.066a3.6 3.6 0 0 1 .843-.019l.132-.013c.238-.087.47-.151.7-.251.211-.079.211-.079.317.185" transform="translate(48.252 8.587)" style="fill:#fff"/>
        <path data-name="패스 150" d="M47.726 19.381c.238.2.132.428.066.626-.058.153-.026.33-.172.449l.013.132v.145c-.119.1-.079.264-.053.383a.76.76 0 0 1-.093.529l.048.1c.124.167.124.145-.034.3l-.066.209.021.153a1.612 1.612 0 0 0-.074.56l-.04.2a.82.82 0 0 1-.111.542.33.33 0 0 0-.021.283l-.04.2a.42.42 0 0 0-.04.365v.177a1.8 1.8 0 0 0-.164.925 5.056 5.056 0 0 0-.127.613 2.442 2.442 0 0 1-.026.309c-.013.1 0 .219-.085.285l-.074.145c-.045.251-.066.494-.111.745a1.607 1.607 0 0 1-.079.309 2.167 2.167 0 0 1-.362.661.505.505 0 0 1-.357.23l-.131.044a1.506 1.506 0 0 0-.8.793 8.37 8.37 0 0 1-.206-.251c-.132-.045-.243-.079-.344-.111a.516.516 0 0 0-.515-.066l-.217.032a.2.2 0 0 1-.264-.151.483.483 0 0 0-.23-.278.405.405 0 0 1-.193-.264c-.045-.164-.111-.33-.164-.494-.034-.119-.048-.219-.159-.264l-.053-.132a3.292 3.292 0 0 0-.185-.581.591.591 0 0 1 .092-.476l.159-.185.106-.111c.005-.233.2-.4.185-.648l.019-.1c.021-.18.166-.33.061-.529.071-.264.132-.529.2-.793a.3.3 0 0 0 .021-.264l.032-.23.127-.18a.294.294 0 0 1-.026-.362.371.371 0 0 0-.03-.355c.04-.251.1-.431.127-.629s.111-.381-.114-.547c.114-.079.193-.145.3-.211l-.053-.164-.061-.233c.114-.132.04-.251.034-.4-.013-.13-.034-.262.159-.262-.048-.153-.079-.251-.106-.365-.04-.151.058-.2.132-.283l-.026-.211a.418.418 0 0 1 .04-.415.326.326 0 0 0 .032-.264l.013-.2a.764.764 0 0 0 .008-.233c-.053-.132.011-.211.063-.33a.378.378 0 0 1 0-.539l.048-.1v-.644l-.008-.2a.6.6 0 0 0 .079-.441l.026-.151a.3.3 0 0 0-.053-.378.193.193 0 0 1 .013-.251l.048-.177c-.048-.251.045-.547-.153-.78.153-.132.114-.278.092-.463a.585.585 0 0 0-.145-.407.333.333 0 0 1-.1-.383 1.661 1.661 0 0 0 0-.626l-.058-.167c-.093-.164-.093-.145-.013-.362-.079-.132-.219-.233-.159-.431a1.572 1.572 0 0 1-.193-.692c-.005-.066-.085-.132-.132-.211l.153-.2a.571.571 0 0 1-.132-.481.613.613 0 0 0-.114-.264.243.243 0 0 1-.071-.264c.066-.145-.119-.2-.074-.33.021-.111.066-.23.087-.344l-.026-.1-.048-.132a.646.646 0 0 0-.032-.613l.04-.132.045-.114a.532.532 0 0 1 .2-.513c.034-.344.312-.444.51-.629.124-.111.209-.3.407-.33l.132-.211a1.6 1.6 0 0 1 .312-.032l.093.111c.085-.066.172-.111.264-.177.04.1.071.164.085.2.159.045.3.066.423.111l.1.185c.026.246.048.278.285.312h.026a.254.254 0 0 1-.013.349.653.653 0 0 1 .4.476c.026.164.079.3.251.317a.546.546 0 0 0 .071.542 2.6 2.6 0 0 1 .283.613c.066.2.106.41.185.608l-.04.217c.127.145.264.264.211.494l.087.2c.026.1.111.2.04.312l.018.119a2.858 2.858 0 0 1 .106.362.509.509 0 0 0 .145.362l.053.114c.026.185.034.362.053.547a.592.592 0 0 0 .114.41l.018.151a.791.791 0 0 0-.013.576 1.468 1.468 0 0 1 .034.23c.05.021.111.034.182.066-.032.151-.066.3-.111.481.106.048.172.132.058.3a.558.558 0 0 0-.013.278l.021.217c.013.23.119.476-.026.706V16c.111.246-.021.51.071.759l-.005.048a1.934 1.934 0 0 0-.021.957l.008.087a1.822 1.822 0 0 0-.106.328c-.013.114.032.246-.008.344a.6.6 0 0 0 0 .449.408.408 0 0 1-.058.41" transform="translate(12.078 5.159)" style="fill:#fff"/>
        <path data-name="패스 151" d="M61.069 13.821c.264-.145.317-.264-.159-.574.013-.153.087-.3-.106-.463-.124-.1-.119-.362-.132-.547a.4.4 0 0 1 .3-.476.456.456 0 0 1 .159-.563c.093-.066.071-.13.066-.217a.751.751 0 0 1 .058-.542l.013-.1a4.507 4.507 0 0 1-.013-.825 4.551 4.551 0 0 1 .193-1.255.685.685 0 0 0 .04-.251 4.016 4.016 0 0 1 .23-1.221c.04-.132.034-.264.074-.4a8.588 8.588 0 0 1 .468-1.617c.114-.177.251-.341.375-.526l.087-.145c.045-.2.177-.219.349-.2.41.013.576.079.595.4s.092.692-.211.97l-.106.151a9.487 9.487 0 0 1-.441 1.1 4.508 4.508 0 0 0-.272.991 6.532 6.532 0 0 0-.159 1.948c.04.283.008.579.034.877.013.211.071.211.3.278.291.1.563-.034.827 0 .243.032.433-.1.658-.1a3.026 3.026 0 0 0 .7-.066 3.928 3.928 0 0 1 1.134-.132h.1c.243-.177.552-.013.817-.145.048-.1.106-.217.167-.349a1.316 1.316 0 0 1 .256.119c.061.045.074.111.132.211.04-.1.066-.167.1-.246a3.669 3.669 0 0 0 .817-.164c.119-.032.246-.032.357-.066a.805.805 0 0 0 .41-.132c.079-.053.251-.019.4-.066a2.562 2.562 0 0 1 .772-.119c.111-.079.185-.23.383-.145l.124-.032c.2-.087.383-.2.581-.285a.728.728 0 0 1 .608-.066c.211.087.463.1.621.285l.085.032c.336.013.555.246.819.378l.111.066c.053.283.317.328.523.394a.509.509 0 0 1 .389.4 2.287 2.287 0 0 1 .053 1.076l-.013.211a1.384 1.384 0 0 1-.317.991 1.765 1.765 0 0 1-.507.661 6.111 6.111 0 0 1-1.625.825 1.92 1.92 0 0 0-.666.33 1.635 1.635 0 0 1-.679.23c-.1.034-.2.053-.291.087a5.571 5.571 0 0 0-.864.3c-.132.079-.344.013-.529.045a.78.78 0 0 0-.383.153.565.565 0 0 1-.595.066.646.646 0 0 0-.534-.021 2.323 2.323 0 0 1-.957.132 6.806 6.806 0 0 0-.806.053.747.747 0 0 1-.423-.185c-.119-.032-.225.219-.344 0-.159.034-.354.034-.455.233a.59.59 0 0 0-.626-.278 4.219 4.219 0 0 1-.9-.164 2.4 2.4 0 0 0-.013.3c.087.375.172.759.278 1.121.114.41.238.827.357 1.237.111.349.211.692.33 1.041.151.428.3.859.489 1.287a1.118 1.118 0 0 0 .42.41 1.027 1.027 0 0 1 .457.714l.1.177a1.24 1.24 0 0 1 .338.449c.111.243.3.463.42.706a.784.784 0 0 1 .074.383 3.014 3.014 0 0 1-.061.41l-.018.132c-.344.264-.225.648-.322.978-.061.177-.127.375-.2.56a.207.207 0 0 1-.352.079 4.9 4.9 0 0 1-.671-.5 1.979 1.979 0 0 1-.621-.922l-.079-.132c-.132-.048-.132-.167-.159-.264a18.334 18.334 0 0 1-.172-.64l-.026-.066c-.256-.153-.264-.431-.37-.682a.9.9 0 0 1-.124-.46 3.237 3.237 0 0 0-.159-.674c-.114-.428-.206-.859-.365-1.287-.19-.547-.27-1.123-.407-1.67-.053-.2-.114-.375-.172-.574a10.8 10.8 0 0 1-.4-1.684l-.021-.167c-.151-.251-.185-.547-.309-.79l-.048-.153c.087-.23-.032-.344-.23-.463z" transform="translate(42.301 1.546)" style="fill:#fff"/>
        <path data-name="패스 152" d="M49.725 15a3.87 3.87 0 0 0 .071.449.885.885 0 0 1-.077.608.474.474 0 0 1-.418.328.58.58 0 0 0-.336.219 1.834 1.834 0 0 1-1.01.608 2.211 2.211 0 0 0-.806.415 1.306 1.306 0 0 1-.951.23c-.37-.019-.737-.019-1.107-.019l-.193.053c-.159.013-.309.032-.463.045-.085 0-.19-.032-.256 0a.618.618 0 0 1-.521 0l-.1-.013c-.463.048-.922.114-1.385.145a4.953 4.953 0 0 1-1.393.087.551.551 0 0 0-.238.013 2.912 2.912 0 0 1-.653.066c-.629-.048-1.247.018-1.876.018-.83.013-1.662.066-2.508.1a20.553 20.553 0 0 0-2.474.211 3.823 3.823 0 0 1-.6 0c-.719.066-1.443.085-2.151.185a9.989 9.989 0 0 1-1.816.1l-.124.034c-.164.132-.357.1-.534.132-.383.032-.761.011-1.123.045a4.13 4.13 0 0 1-1.142 0c-.238-.034-.489-.066-.727-.1l-.2-.114a5.114 5.114 0 0 1-.407-.56.8.8 0 0 1-.066-.811 2.533 2.533 0 0 1 .42-.806 1.127 1.127 0 0 1 .3-.3 3.609 3.609 0 0 0 .449-.428c.185-.185.312-.217.441-.032a1.016 1.016 0 0 0 1.057.41 4.584 4.584 0 0 0 .938-.246 2.728 2.728 0 0 1 .975-.217c.6-.013 1.2-.079 1.8-.132a.915.915 0 0 1 .357.032.973.973 0 0 0 .806-.045.525.525 0 0 1 .316-.088 3.576 3.576 0 0 0 .97-.2 4.973 4.973 0 0 1 .687-.079c.436-.018.872-.018 1.308-.053.243 0 .507-.066.759-.045a3.112 3.112 0 0 1 1.419.079.355.355 0 0 0 .344-.034 1.947 1.947 0 0 1 .856-.177l.066.013c.317-.264.7-.1 1.049-.164a1.373 1.373 0 0 1 .893.23.848.848 0 0 0 .632.053 2.9 2.9 0 0 1 1.314-.2l.233-.021a1.4 1.4 0 0 1 .759 0 .461.461 0 0 0 .291-.045c.2-.053.415-.085.608-.151.394-.167.864-.079 1.208-.4l.185-.066c.315-.048.64-.1.949-.132.159-.034.325-.048.489-.079a3.57 3.57 0 0 1 1.216.066 1.394 1.394 0 0 1 .626.145c.106.1.238.119.27.283l.172.145a4.618 4.618 0 0 0 .423.2" transform="translate(-17.842 18.356)" style="fill:#fff"/>
        <path data-name="패스 153" d="M51.849 9.823c-.264.132-.362.3-.106.515-.164.111-.3.211-.251.375a1.261 1.261 0 0 0-.243.877 5.2 5.2 0 0 0-.14 1.269c.04.23.219.463.119.692l.066.1a.168.168 0 0 1 .04.262c-.071.119-.019.2.132.285.079.032.172.1.185.145a.9.9 0 0 0 .521.515 5.264 5.264 0 0 1 .476.3 5.906 5.906 0 0 0 1.617.428 2.956 2.956 0 0 0 1.274-.085l.066-.013a11.169 11.169 0 0 0 1.684-.529 1.315 1.315 0 0 1 1.176.2l.243.2c.1.111.238.211.2.375a2.89 2.89 0 0 0-.021.581l-.071.145c-.357.264-.706.529-1.089.78a2.989 2.989 0 0 1-.759.344 7.653 7.653 0 0 0-.84.283 5.962 5.962 0 0 1-1.411.2c-.3.032-.626.032-.944.045a6.105 6.105 0 0 1-.983-.032 5.772 5.772 0 0 1-1.59-.38 1.077 1.077 0 0 0-.415-.132 3.929 3.929 0 0 1-1.076-.3 3.816 3.816 0 0 0-.7-.23 2.741 2.741 0 0 1-.362-.233 3.95 3.95 0 0 0-.33-.23 6.046 6.046 0 0 0-.666-.4 2.939 2.939 0 0 1-.33-.23.85.85 0 0 1-.264-.219c-.092-.132-.132-.264-.352-.344l-.111-.151c.013-.164-.092-.264-.251-.375l-.053-.087a1.231 1.231 0 0 0-.172-.344.818.818 0 0 1-.27-.56.5.5 0 0 0-.219-.33.578.578 0 0 1-.243-.383 5.983 5.983 0 0 1-.086-1.812 6.688 6.688 0 0 1 .238-1l.048-.087a5.288 5.288 0 0 0 .661-1.432 1.377 1.377 0 0 1 .817-.679 4.088 4.088 0 0 0 .463-.132 1.324 1.324 0 0 1 .5-.013 3.618 3.618 0 0 0 1.173-.069c.238-.066.449-.151.674-.217a1.435 1.435 0 0 1 .957.018 3.552 3.552 0 0 1 .687.344c.151.1.3.2.164.365l.034.164a2.337 2.337 0 0 1 .079.877 1.522 1.522 0 0 0 .058.344" transform="translate(16.999 7.688)" style="fill:#fff"/>
        <path data-name="패스 154" d="M80.78 19.139c.124.164.066.283-.124.4-.14.085-.246.185-.4.283.085.013.124.034.164.034.251.032.285.066.211.211a2.026 2.026 0 0 1-.423.494 1.438 1.438 0 0 0-.515.714.844.844 0 0 1-.777.64 2.217 2.217 0 0 1-1.335.317 13.94 13.94 0 0 0-1.689.264c-.1.013-.193.013-.278.032-.7 0-1.388.1-2.085.066-.14 0-.291.034-.423.034-.521-.021-1.044-.034-1.565-.053-.19 0-.375.053-.568.053h-.8l-.211-.034a1.276 1.276 0 0 0-.27-.032.891.891 0 0 1-.47-.119 1.84 1.84 0 0 0-.383-.1c-.013-.032.061-.145-.116-.111a1.244 1.244 0 0 1-.727-.2 5.247 5.247 0 0 0-.825-.349.49.49 0 0 1-.352-.246l-.106-.151c-.159-.132-.357-.246-.23-.431l-.048-.111-.013-.185c.04-.164.106-.309.159-.476a.517.517 0 0 1 .4-.4.97.97 0 0 0 .3-.132 1.007 1.007 0 0 1 .476-.2 2.988 2.988 0 0 1 .872-.1 1.961 1.961 0 0 1 .354-.034 4.461 4.461 0 0 1 .5-.019 7.856 7.856 0 0 0 1.565-.1c.23-.048.4-.167.415-.344a8.072 8.072 0 0 0 .071-1.784c-.013-.132.074-.264.066-.4a23.768 23.768 0 0 0-.124-1.813 2.474 2.474 0 0 0-.238-.761 1.607 1.607 0 0 0-.264-.513c-.177-.233-.093-.312.352-.378a1.933 1.933 0 0 1 .079-.33l.1-.132a.488.488 0 0 1 .238.066 1.228 1.228 0 0 1 .51.674 3.452 3.452 0 0 0 .217.56 6.072 6.072 0 0 0 .159.629 2.01 2.01 0 0 1 .04.856 4.817 4.817 0 0 1-.085.925 1.6 1.6 0 0 0 0 .449.857.857 0 0 1 .005.3 9.241 9.241 0 0 0-.185 1.221 1.67 1.67 0 0 0 .021.444c.019.185.124.23.4.251.124.013.238.066.357.066a.773.773 0 0 1 .344-.034h.074a2.51 2.51 0 0 1 1.16-.132 2.992 2.992 0 0 0 .648-.066 4.325 4.325 0 0 1 .626-.053 6.048 6.048 0 0 0 1.348 0c.23-.013.481.021.719.021.534 0 1.062.111 1.61.145.145.019.285.085.436.1a5.573 5.573 0 0 0 .634.066" transform="translate(51.765 15.931)" style="fill:#fff"/>
        <path data-name="패스 155" d="M68.558 9.006a1.523 1.523 0 0 1-.648.264 4.253 4.253 0 0 0-.877.317.965.965 0 0 1-.595.164l-.071.013c-.383.317-.938.251-1.4.4a1.529 1.529 0 0 0-.864.494 6.423 6.423 0 0 1-1.208-.23l-.243-.066a1.643 1.643 0 0 1-1.229-.476l-.23-.132c-.159-.1-.325-.164-.4-.33-.034-.1-.172-.164-.278-.23a.787.787 0 0 1-.385-.494 13.488 13.488 0 0 0-.655-.33 3.929 3.929 0 0 1 .158-.37c-.383-.2-.3-.481-.2-.79a3.237 3.237 0 0 1 .3-.793c.106-.164.172-.383.468-.463a1.561 1.561 0 0 0 .449-.264 1.248 1.248 0 0 1 1.142-.1l.111.066a5.107 5.107 0 0 1 1 .045c.167.034.344 0 .534.034.338.032.7.019 1.052.019h1.253a2.92 2.92 0 0 1 .534.066 3.421 3.421 0 0 0 1.142.066 1.063 1.063 0 0 1 .449.013 1.061 1.061 0 0 0 .851.066.55.55 0 0 1 .246.053.815.815 0 0 0 .225.013 1.6 1.6 0 0 1 .83.1c.211.053.418.119.634.164a.668.668 0 0 1 .5.264 3.2 3.2 0 0 1 .423.449 3.364 3.364 0 0 1 .238.706 4.42 4.42 0 0 1 .124.613.794.794 0 0 1-.1.674 1.018 1.018 0 0 0-.145.349c-.119.5-.251.973-.383 1.454s-.256 1-.389 1.5l-.093.185c-.061.164-.106.33-.153.494l-.019.1a9.857 9.857 0 0 0-.444 1.551l-.053.145c.233.317-.2.616-.066.944.013.066-.119.167-.2.278.264.365-.058.7-.169 1.044-.061.2-.185.362-.087.56l-.058.211a.894.894 0 0 0-.246.431l-.066.164c-.309.2-.256.547-.507.759l-.061.2a1.225 1.225 0 0 1-.124.56c-.185.463-.291.946-.476 1.419a10.941 10.941 0 0 1-.423 1.321 1.955 1.955 0 0 0-.124.626 5.985 5.985 0 0 1-.357 1.189 6.878 6.878 0 0 0-.256.975l-.079.18c-.193.132-.159.317-.233.463-.151.328-.172.711-.507.988l-.106.119c-.114.278-.225.574-.357.872-.079.132-.251.264-.291.415-.124.444-.56.772-.766 1.189a.322.322 0 0 1-.5.145 1.343 1.343 0 0 1-.529-.463c-.251-.362-.153-.793-.33-1.168a.349.349 0 0 1 .053-.3 4.878 4.878 0 0 0 .344-1.089 1.685 1.685 0 0 1 .362-.689 3.545 3.545 0 0 0 .587-1.24c.251-.674.436-1.353.687-2.027a12.37 12.37 0 0 0 .489-1.8l.04-.145c.217-.217.185-.481.317-.714a1.391 1.391 0 0 0 .1-.441.925.925 0 0 0-.737-.032c-.595.177-1.242.243-1.85.375-.389.085-.759.251-1.142.362a10.978 10.978 0 0 1-1.816.418.836.836 0 0 0-.235.066 5.025 5.025 0 0 1-.621.243c-.825.33-1.71.56-2.49.957a7.291 7.291 0 0 1-.975.33 4.414 4.414 0 0 0-.476.23 1.341 1.341 0 0 1-1.388 0 1.167 1.167 0 0 0-.634-.211 1.214 1.214 0 0 1-.64-.248 1.107 1.107 0 0 0-.468-.2c-.455-.114-.587-.264-.587-.629a1.148 1.148 0 0 1 .217-.671 2.49 2.49 0 0 0 .185-.431 2.6 2.6 0 0 1 .555-.891 2.734 2.734 0 0 1 .737-.547.931.931 0 0 1 .489-.048 1.355 1.355 0 0 0 .97-.251 3.112 3.112 0 0 1 .629-.3c.291-.1.574-.177.856-.3a1.278 1.278 0 0 0 .246-.211.492.492 0 0 0 .489-.087 5.215 5.215 0 0 1 .751-.3 3.613 3.613 0 0 0 .41-.18 4.389 4.389 0 0 1 1.123-.415 7.479 7.479 0 0 0 .864-.278 4.281 4.281 0 0 1 .436-.132l.185-.066.119-.1c.344.032.592-.185.9-.233.322-.066.64-.1.97-.151l.108-.024a10.971 10.971 0 0 1 1.472-.539.861.861 0 0 1 .555-.1 4.337 4.337 0 0 0 .7-.151.938.938 0 0 0 .573-.31 6.358 6.358 0 0 1 .706-.526 2.41 2.41 0 0 0 .626-.88 4.147 4.147 0 0 0 .278-.856c.048-.18.074-.365.114-.542a1.08 1.08 0 0 1 .071-.251.749.749 0 0 0 .106-.529c-.021-.164.092-.33.124-.494a2.2 2.2 0 0 0-.164-1.617" transform="translate(28.316 4.18)" style="fill:#fff"/>
        <path data-name="패스 156" d="M35.381 25.161c-.423-.494-.41-.925.119-1.255a3.457 3.457 0 0 0 .938-1.055 7.159 7.159 0 0 0 .468-.78c.317-.529.621-1.036.944-1.551.206-.344.463-.674.661-1.023a15.081 15.081 0 0 0 .7-1.385c.256-.542.473-1.1.7-1.652a.427.427 0 0 0 .026-.23c-.013-.132-.058-.246-.066-.378-.005-.182-.079-.3-.362-.328-.217-.021-.238-.119-.349-.2-.378-.285-.515-.661-.833-.957-.251-.251-.159-.5-.145-.748l.172-.132a.822.822 0 0 0 .581-.407l.137-.119c.41.019.859.032 1.335.053a3.692 3.692 0 0 0 .151-.78 2.431 2.431 0 0 1 .079-1.023l.021-.066c-.193-.3.058-.595.045-.891-.005-.312-.04-.608-.045-.925a1.6 1.6 0 0 1 .04-.264c.032-.375.058-.772.085-1.168.008-.217.019-.428.019-.648 0-.111-.011-.23-.019-.362l-.04-.114c-.053-.481.053-.494.687-.626a.86.86 0 0 1 .428.529 7.481 7.481 0 0 1 .283 1.5l.048.2a1.3 1.3 0 0 1 .124.944v.145a.876.876 0 0 1 0 1.055l-.032.087a1.044 1.044 0 0 1 .04.706c0 .087-.048.185-.013.285.151.494-.166.97-.008 1.464a1.28 1.28 0 0 0 .4.547 2.573 2.573 0 0 0 1.393.674c.238.217.751.217.922.481.053.079.3.114.463.145a1.372 1.372 0 0 1 .6.233 1.035 1.035 0 0 0 .309.119l.137.013a16.441 16.441 0 0 0 1.718.777l.106.048a3.925 3.925 0 0 1 1.366.56c.507.251 1.094.449 1.623.679a6.4 6.4 0 0 1 .648.378l.085.085a2.631 2.631 0 0 1 1.53 1.551 1.048 1.048 0 0 1 .079.706c-.066.3 0 .595-.053.893-.013.066.132.164.233.23.079.066.3.119.283.164a.5.5 0 0 1-.225.33 1.426 1.426 0 0 1-1.446.1 3.549 3.549 0 0 0-.423-.1 1.632 1.632 0 0 1-.658-.145c-.391-.185-.814-.317-1.208-.46-.251-.119-.489-.251-.735-.383-.071-.034-.137-.079-.211-.114A4.566 4.566 0 0 1 48 19.959a9.826 9.826 0 0 0-.975-.441c-.145-.066-.264-.153-.4-.219a4.167 4.167 0 0 1-.851-.41 1.085 1.085 0 0 0-.766-.3l-.119-.034a5.644 5.644 0 0 0-1.142-.679 2.646 2.646 0 0 0-.983-.476c-.127-.018-.193-.217-.291-.349l-.167.034c-.209-.1-.428-.18-.653-.278a1.728 1.728 0 0 0-.521.838 2.132 2.132 0 0 1-.317.581c-.211.328-.415.658-.613 1l-.127.185c-.225.3-.476.574-.706.872a1.588 1.588 0 0 0-.3.449c-.119.4-.568.671-.761 1.055a3.91 3.91 0 0 1-.56.608c-.362.4-.719.793-1.055 1.189a2.8 2.8 0 0 0-.489.856 1.356 1.356 0 0 1-.833.714" transform="translate(.264 5.241)" style="fill:#fff"/>
        <path data-name="패스 157" d="M23.327 25.4c-.383-.278-.666-.463-.9-.674a2.244 2.244 0 0 1-.534-1.385.755.755 0 0 1 .256-.55c.468-.441.978-.87 1.491-1.266a1.079 1.079 0 0 1 .523-.153 4.821 4.821 0 0 0 1.958-.592 2.707 2.707 0 0 0 .879-.831c.066-.077.066-.243.145-.262.568-.18.481-.608.581-1 .093-.362.3-.692.085-1.089-.053-.066.1-.219.114-.317.053-.309.283-.595.053-.938-.087-.119-.026-.362.053-.513a1.162 1.162 0 0 0-.026-1.4.374.374 0 0 1-.079-.349c.217-.344.04-.629-.106-.957-.211-.476-.079-.608.515-.642.085 0 .177.013.291.013.455-.605-.145-1.068-.272-1.565a5.094 5.094 0 0 1 .56-.56c.219-.151.225-.317.053-.463-.217-.185-.132-.362-.032-.547a.94.94 0 0 0 .165-.86.676.676 0 0 1 .119-.507c.238-.362.748-.547.872-.991.013-.066.251-.132.4-.151.431-.034.7-.2.766-.574.066-.317.243-.484.666-.484.352 0 .714-.264 1.031-.211a8.1 8.1 0 0 0 1.129.079.777.777 0 0 0 .344.021c.587-.251 1.041.132 1.538.243.164.034.264.264.383.4.37.383.724.759 1.16 1.221a.589.589 0 0 0 .225.692c.37.285.291.418-.251.88a2.521 2.521 0 0 0 .51.362c.288.111.328.264.182.463-.182.264-.27.494.034.706.362.251.225.428-.066.613l-.119.1v1.018a11.488 11.488 0 0 0 3.029.529c.529 0 1.057.045 1.163.626l.851-.1c.127.365.389.444.851.431a7.845 7.845 0 0 1 1.493.211c.159.019.322.019.481.032.093 0 .217-.045.278 0 .621.431 1.419.132 2.085.383a1.172 1.172 0 0 0 .476-.019c.264-.034.515-.167.806.019.093.048.322-.066.515-.1a9.152 9.152 0 0 0 1.147.737 5.383 5.383 0 0 0 1.07.185 2.349 2.349 0 0 1 .7.246 1.7 1.7 0 0 0 1.493.164c.264-.079.568-.243.785-.177a2.406 2.406 0 0 1 1.321.605 1.8 1.8 0 0 1-.061 2.432.48.48 0 0 0-.164.473c.093.814.137 1.617.2 2.476a1.323 1.323 0 0 0-.74 1.208 1.977 1.977 0 0 1-1.302 1.566l-.124.053a3.892 3.892 0 0 0-1.586.264 1.709 1.709 0 0 1-.415-.021c-.111-.013-.283-.079-.322-.045-.33.309-.785.177-1.176.264a10.714 10.714 0 0 1-1.253.111l-.14.021c-.595.33-1 .066-1.406-.365a1.538 1.538 0 0 1-1.689.661c-.468-.053-.938-.151-1.406-.2-.64-.085-.64-.085-.97-.56a2.97 2.97 0 0 1-.595.33c-.336.079-.375-.233-.547-.383a.949.949 0 0 1-.891-.2.8.8 0 0 0-.621-.233 6.967 6.967 0 0 1-1.084-.1 1.464 1.464 0 0 1-1.081-.476 1.976 1.976 0 0 0-1.044-.415 2.861 2.861 0 0 1-1.321-.312c-.116-.085-.354-.05-.547-.066a1.5 1.5 0 0 0-.2-.526 2.17 2.17 0 0 0-.595-.365 1.2 1.2 0 0 0-.04-.3c-.045-.217-.217-.264-.428-.2-.74.211-.8.177-.833-.494-.275-.066-.552-.132-.8-.2a7.078 7.078 0 0 1-.793.727 4.329 4.329 0 0 1-.833.309c-.172.066-.473.132-.5.23-.127.449-.542.563-.938.727a6.426 6.426 0 0 0-1.446.745c-.481.4-1.221.431-1.565.97a.478.478 0 0 1-.357.167c-.772.032-1.34.529-2.072.626-.581.066-1.142.251-1.551.33" transform="translate(-21.42 4.292)" style="fill:#fff"/>
        <path data-name="패스 158" d="M71.837 6.274a3.017 3.017 0 0 0 .27-.4 2.273 2.273 0 0 0 .418-.759c-.153.053-.312.119-.5.185v.145c-.079.019-.04.1-.106.119l-.013.066h.013l-.013.013a2.237 2.237 0 0 1-.111.595z" transform="translate(60.585 3.547)" style="fill:#fff"/>
        <path data-name="패스 159" d="M79.553 13.072a5.087 5.087 0 0 1-.013-.349c-.013.151-.04-.013-.061.019l.008.246a4.478 4.478 0 0 1-.066-.661c.026.019.032.019.04-.066-.008.132-.074-.344-.079-.045a1.2 1.2 0 0 1 .04.328c-.04.1-.053-.119-.1-.23a5.721 5.721 0 0 0-.132-.626.721.721 0 0 0-.032-.383c0 .264-.1-.2-.172-.3a4.299 4.299 0 0 1-.071-.309.9.9 0 0 0 .106.278s.071-.1.156.217c-.066-.381-.071-.217-.129-.381l.018.132c-.013-.066-.013.05-.04-.066a5.546 5.546 0 0 1-.111-.806l-.092-.132c-.066-.285.066-.021.058-.2-.058-.087-.119-.283-.119-.217-.032-.1 0-.048-.013-.132a.728.728 0 0 1-.151-.3.414.414 0 0 1 .092.185c-.04-.164-.021-.251.032-.185l.066.264c.079.119-.066-.243-.026-.243.04.111.061.2.093.278a1.861 1.861 0 0 0-.159-.444c-.092-.2-.013-.151 0-.151-.2-.344.106.428-.092.119a4.662 4.662 0 0 1-.291-.648c.026.217-.066 0-.185-.211.127.3-.032.1.145.428l-.026.034a3.952 3.952 0 0 0-.185-.481l.053.032-.225-.428.04.032a5.284 5.284 0 0 0-.354-.737c.079.111.1.243.013.111a1.3 1.3 0 0 1-.2-.309c0-.066-.251-.529-.053-.264a4.574 4.574 0 0 0-.391-.529l.159.211-.104.021c-.066-.1-.132-.217-.2-.317l.085.087c-.085-.153-.032-.034-.085-.1-.053-.085-.114-.164-.159-.251a.636.636 0 0 0-.145-.262l.045.1a1.164 1.164 0 0 0-.151-.177c-.079-.132-.159-.233-.243-.352 0-.066.005-.1-.1-.264l.093.132c-.058-.111-.066-.211-.217-.309a3.3 3.3 0 0 0-.983-.415 1.265 1.265 0 0 0-.7-.013l.053-.053c-.159.032-.066.032-.238.085-.013-.053.357-.164.185-.132l-.225.132c-.119.034-.008-.032-.066-.019l-.159.1.04-.045c-.33.164-.085.077-.415.309.005.032.1-.048.238-.145l-.021.066a4.283 4.283 0 0 0-.375.3l.093-.119-.272.2c.04-.132.211-.243.225-.33a1.542 1.542 0 0 0-.33.352c.33-.251-.106.145.106.032a1.494 1.494 0 0 0-.3.278c.106-.132-.048-.045.124-.211-.256.264-.177.211-.423.476-.032.119.225-.164.092.034l-.119.132.026-.034-.085.1-.019.032a6.04 6.04 0 0 0-.515.78 11.4 11.4 0 0 0-1.269 5.511v.33c-.111-.2-.225-.362-.291-.3-.026.1-.058-.251-.066-.034l.048.211-.066.1c.053.085.066-.264.132-.034a1.108 1.108 0 0 1 .026.317c0-.153.04.032.066.111-.026.132.005.352-.021.4l.026.185-.005.013c.026.153.005-.045.026-.013a3.3 3.3 0 0 0 .032.463c-.032-.185-.066-.317-.092-.449 0 .33-.079-.045-.132-.132.053.264.074.365.132.581.008.278-.106 0-.124-.066.058.23.137.494.177.608a2.469 2.469 0 0 1-.172-.3.565.565 0 0 0 .079.33l-.018-.164c.026.23.111.185.177.3.008.167.053.463.013.484l.053-.021c.048.2-.013.119-.019.153.045.063.085-.034.177.275-.093-.013.079.317-.005.317.045.145.119.211.159.365.019.2-.193-.2-.2-.3-.066-.23.04.013.018-.066l-.085-.217c.018.132.058.362.018.349.079.211-.013-.185.074.048l.032.151c.1.233.04-.066.159.233-.111-.2.106.328.053.328.079-.019.225.529.317.563l-.053-.153-.013.034a3.861 3.861 0 0 1-.217-.476c.085.132.032-.066.129.079.167.283-.005.1.008.132l.145.23-.04-.177c.085.177.211.428.336.674.153.394-.066-.013.04.264a.736.736 0 0 1 .18.23.592.592 0 0 0-.14-.211c0-.1.2.278.225.243.021.087.008.066-.04.034a3.877 3.877 0 0 1 .285.428c.058-.1-.008-.177.053-.264v-.145c-.1-.1-.066-.23-.061-.362h-.066a.644.644 0 0 1 .127-.251c.04.087.159.132.185.219-.079.013-.079-.034-.119-.021v.164l.058.034c-.151.085 0 .23 0 .383.008.132-.026.164.087.2a.207.207 0 0 0-.211.111l.066.132.132.087c.354.407-.3-.264-.013.111a1.778 1.778 0 0 0 .349.33l-.127-.132a1.226 1.226 0 0 1 .291.185c.106.079.026.066.185.164.278.233.145.18.04.167.127.079.3.2.33.177 0 .021-.032.021-.119-.013-.238-.217-.137-.019-.211-.132l-.053-.053h-.019c.1.087.085.119.058.1l.114.053.045.1c.114.079.2.066.251.132.159.132-.291-.066.132.167.489.211.494.1.859.145-.04-.013-.132-.013-.251-.048.124 0-.074-.053.119-.032a1.331 1.331 0 0 0 .8-.034c-.066.048.132.013.045.066a.8.8 0 0 0 .317-.185c-.552.251.489-.3.061-.132.389-.23.415-.243.626-.375 0 .013-.317.309-.053.1.278-.283-.085 0 .106-.251l-.2.153.344-.33c.124-.085-.145.145-.005.079a1.985 1.985 0 0 0 .336-.33c-.061.132-.008.066-.092.2.37-.375.018.053.317-.211.093-.1 0-.066.159-.2-.119.048-.119.034-.357.264.04-.132.317-.3.449-.494a2.261 2.261 0 0 0-.18.177c-.058-.013-.111.034-.026-.132a3.636 3.636 0 0 1-.389.484c-.093.013.238-.3.185-.365a3.882 3.882 0 0 1 .475-.506 4.3 4.3 0 0 0 .463-.759 8.712 8.712 0 0 0 .579-.97l.093-.119a4.936 4.936 0 0 1-.322-.3 3.39 3.39 0 0 1-.568-.793.3.3 0 0 1-.085-.23.381.381 0 0 1 .093-.23.36.36 0 0 1 .2-.114h.1l.172.048a1.376 1.376 0 0 1 .2.264 3.6 3.6 0 0 0 .5.626l.026-.1-.013.119.008.013c.058-.264.256-.79.317-.97.058-.151.1-.151.129-.217l.066-.246.074-.066a1.124 1.124 0 0 0 .032-.3c.114-.33.114-.151.114.032l-.053.2c0 .132-.066.33.005.233a.153.153 0 0 0-.005-.121l.045-.119c.008-.114.061-.428.021-.4a1.262 1.262 0 0 0 .079-.41m-6.4-4.144-.026.019-.066-.019h.092M72.28 8.1a2.368 2.368 0 0 1-.079.283c.026-.1-.074-.23.079-.283m-.061.315-.045.114c-.106-.034-.048-.114.045-.114m-.137.774-.026.085.026-.085m.291 7.873h-.114a1.2 1.2 0 0 1-.732-.547 6.582 6.582 0 0 1-.391-.56c-.1-.167-.177-.312-.256-.444-.005-.066-.019-.151-.019-.251a.311.311 0 0 1 .1-.264.361.361 0 0 1 .3-.143l.172.032a1.772 1.772 0 0 1 .259.309 5 5 0 0 1 .264.484 4.341 4.341 0 0 0 .264.494.685.685 0 0 0 .2.3l.132.1c.045.013.085.1.085.2-.026.177-.111.278-.262.3m-.079-4.773c.079 0 .032-.077.1-.111l-.1.111m.098 5.284-.019-.013h.045l-.026.013m.085-.1.132-.066.026.066h-.159m.114-.1a.121.121 0 0 1 .111-.048l-.111.048m.151.23V17.6l.074-.019-.074.032m.555-.111.119.013-.119-.013m.264 0 .04-.034.106.013-.145.021m.317.143-.066-.063.106-.048.066.066-.106.045m.164-.13c.061 0 .074-.034.159-.034l.034.034h-.197m.338 0-.053-.013c.071 0 .026-.034.106-.034l-.053.048m-.246-.893-.071.066.045-.045-.079-.021.034-.045-.079-.053h-.066l.026-.013a3.488 3.488 0 0 1-.357-.283l.013.053-.058-.1a6.722 6.722 0 0 1-.489-.463.4.4 0 0 0 .093.3c-.093.079 0 .164-.034.264l.053.013-.04.151h.026l-.04.079a.806.806 0 0 1-.032.415l-.127.079.034.021c.1 0 .018-.087.124-.066l-.159.145c.159.1-.106.251-.032.362l.032-.013.066.048-.045.053c.071 0 .137-.034.085-.087h.18l-.14.1c-.111 0-.106 0-.145.019l-.071-.119a.756.756 0 0 1-.18.087l.106-.167-.124.013v-.032c.106 0 .164-.066.124-.114.1-.053.066-.132.008-.2.093-.053.058-.151.172-.164-.04-.1-.114-.219-.034-.3-.111-.053.034-.151-.032-.185l.081-.016a.492.492 0 0 1-.032-.349c-.087-.032-.048-.079-.114-.132.053-.079.026-.132.021-.211l.04-.032-.013-.119-.066-.079a.588.588 0 0 1-.053-.251c.005-.18.119-.278.3-.344l-.1.013-.034-.1.092-.034.093.1.008-.013a.471.471 0 0 1 .336.164 2.719 2.719 0 0 1 .33.309c.225.219.481.484.753.761a.69.69 0 0 1 .119.349.328.328 0 0 1-.246.278.511.511 0 0 1-.3-.1m-.018-2.059-.021.145c0-.066-.111-.132.021-.145m.41 3.005.04-.053.092.053h-.132m.164-.352-.005-.032.005.032m.048-2.72c.106.034 0 .1-.013.167-.034.111.093.23.026.3.013-.1-.093-.2-.066-.3l.053-.167m-.04.674-.008-.114.008.114m.119 2.474-.066.021c-.026-.034-.053-.085.026-.085l.092.063-.04.034-.013-.034m.045-.574.026.048-.026-.048m.026.64h-.032l.032-.045.013.032-.013.013m.172-3.082.048.048-.048-.048m-.032-.581.065-.039-.066.045m.079 4.689c-.074-.034-.053-.1.058-.079l-.058.079m.129-1.136.114.032-.114-.032m1.493-1.057a.491.491 0 0 1-.309-.1 2.836 2.836 0 0 1-.608-.481c-.048.085-.093.164-.053.251l-.061.066c.066.209-.085.394-.045.574l.045.132.092.032a1.381 1.381 0 0 1-.119.418c.026.045.079.177-.04.2v-.1c-.151-.164.132-.415-.085-.581a1.039 1.039 0 0 0-.114-.375c.219-.034.053-.283.185-.4l-.026-.053.106-.2-.04-.1c-.111-.114-.243-.246-.375-.4a.72.72 0 0 1-.167-.211.823.823 0 0 1-.05-.251c.013-.2.124-.309.349-.375a.441.441 0 0 1 .336.177 3.194 3.194 0 0 1 .338.317c.23.243.486.529.759.825a.655.655 0 0 1 .093.33.307.307 0 0 1-.211.3m-.41-3.616.021.053a.293.293 0 0 1-.166.243c-.389.153-.859.33-1.406.529a1.61 1.61 0 0 1-.018.415v.18l.066.132a.142.142 0 0 1-.066-.233l-.066-.079a.63.63 0 0 0 .013-.383c-.4.153-.819.3-1.308.484a.371.371 0 0 1-.349-.352v-.132a.288.288 0 0 1 .137-.243 4.867 4.867 0 0 1 .825-.361 4.192 4.192 0 0 0 .375-1.242 6.01 6.01 0 0 1 .034-.33c-.344.153-.687.285-1.018.4l-.071.021.1.045-.106.119-.053-.151-.092.032v.066c0 .317-.019.581-.04.825a2.321 2.321 0 0 1-.106.648.509.509 0 0 1-.211.33v.177l.053.021a.214.214 0 0 0-.013.309c-.058.066-.106.153-.032.233-.106.053 0 .151-.1.217l.04.079c-.106.066-.032.217-.137.283.018-.119 0-.2.066-.283-.14-.145.066-.3-.034-.463l.066-.032-.066-.132c.066-.1 0-.246.053-.378l-.053.013c-.185 0-.275-.1-.275-.33a3.311 3.311 0 0 1 .071-.394c.005-.3.019-.529.019-.727s-.013-.428-.019-.661c-.026.066-.032.167-.053.233l-.032.066.013-.132.019-.048c.026-.085-.058-.185.026-.264l-.045-.1v-.167h.04c-.026-.264-.053-.547-.087-.843-.058-.312-.1-.595-.137-.872a1.5 1.5 0 0 1-.066-.383.382.382 0 0 1 .2-.344.357.357 0 0 1 .262-.1c.166 0 .277.132.344.362a10 10 0 0 1 .2 1.617c0 .111.013.23.021.33h.019a5.587 5.587 0 0 0 .634-.219l.159-.045-.048-.1c.18-.132-.045-.33.1-.463-.053-.034.04-.087-.04-.132l.058-.034a2.688 2.688 0 0 1 .079-.581c-.085-.032-.032-.063 0-.111v-.049c-.217.119-.441.23-.666.362a.35.35 0 0 1-.389-.341.532.532 0 0 1 .2-.449c.119-.079.217-.145.336-.211.19-.1.389-.185.587-.285l.026-.032.127-.145c.032-.087.04-.164-.034-.217h.061c.093-.18.053-.41.159-.563v-.014c-.074-.1.026-.217.093-.33-.14.048-.264.079-.41.132a1.136 1.136 0 0 1-.383.066.644.644 0 0 1-.534-.645.951.951 0 0 1 .066-.246c.124-.383.217-.626.27-.745a.343.343 0 0 1 .211-.079l.111.013a.387.387 0 0 1 .238.4c-.005.119-.032.3-.066.581a8.788 8.788 0 0 1 .88-.334 1.08 1.08 0 0 1 .362-.087c.336.053.515.219.521.484a2.536 2.536 0 0 1-.648 1.464 1.228 1.228 0 0 0 .264-.045c.18 0 .378-.021.581-.034h.211c.706.079 1.057.574 1.057 1.517a5.269 5.269 0 0 1-1.031 3.216m-3.01-.344.127-.021v.053l-.092.013-.034-.045m.674-.78-.013.087.013-.087m.026 1.01v-.032h.085l-.085.032m-1.419 1.269h.071v.023l-.071-.019m1.211-3.173.066-.1-.066.1" transform="translate(57.983 1.586)" style="fill:#fff"/>
        <path data-name="패스 160" d="m72.014 6.731-.061.034.061-.034a7.62 7.62 0 0 0-.106-.463 2.263 2.263 0 0 1-.066-.251l-.026.153.053-.021a2.416 2.416 0 0 0-.106.877h-.071v.145l.066.021a.818.818 0 0 0-.114.309c.145-.045.3-.111.436-.164 0-.1-.013-.2-.013-.278-.013-.119-.04-.233-.053-.33" transform="translate(60.334 5.024)" style="fill:#fff"/>
        <path data-name="패스 161" d="M73.09 5.85a3.85 3.85 0 0 0-1.018.177 8.329 8.329 0 0 1 .193.846c.013.167.026.312.032.441l.132-.066a1.02 1.02 0 0 1 .4-.143.946.946 0 0 1 .206.045.428.428 0 0 1 .13.23.573.573 0 0 1-.143.352 3.91 3.91 0 0 1-.674.4l-.053.032a5.655 5.655 0 0 1-.383 1.6h.013c.449-.132.793-.211 1.01-.278a4.824 4.824 0 0 0 .833-1.916 5.65 5.65 0 0 0 .111-.975c-.111-.476-.383-.74-.785-.74" transform="translate(60.769 4.749)" style="fill:#fff"/>
        <path data-name="패스 162" d="m72.97 9.709-.079.034.066-.132c-.066.085-.026.085-.111.164.045 0-.066.185.085.066.415-.507.093-.278.507-.806l-.23.246c.053.019-.074.217-.238.428" transform="translate(62.308 9.981)" style="fill:#fff"/>
    </g>
</svg>
