<svg xmlns="http://www.w3.org/2000/svg" width="122" height="44" viewBox="0 0 122 44">
    <path data-name="사각형 27742" style="fill:none" d="M0 0h122v44H0z"/>
    <g data-name="그룹 46322">
        <g data-name="그룹 46320">
            <path data-name="패스 1960" d="M73.934 191.087a3.024 3.024 0 0 0 1.219.76 3.733 3.733 0 0 0 .71.109 1.21 1.21 0 0 0 .545-.126 3.006 3.006 0 0 1 .509-.2 11.492 11.492 0 0 1 1.165-.362 9.882 9.882 0 0 1 1.783-.253v6.191q0 .977-1.128.579l-.619.977A4.408 4.408 0 0 0 79.9 200.1a5.586 5.586 0 0 0 2.147.434 3.332 3.332 0 0 0 2.257-.724 2.586 2.586 0 0 0 .837-2.065V181.6q0-.289-1.146-.869a10.725 10.725 0 0 0-3.512-.833l-1.128.941c.121.169.237.344.346.526a.968.968 0 0 1 .164.489v6.77h-4.112a3.023 3.023 0 0 1-1.074-.2 11.684 11.684 0 0 1-1.109-.489l-1.6.579a7.262 7.262 0 0 0 1 1.611 8.875 8.875 0 0 0 .964.959" transform="translate(-53.96 -175.458)" style="fill:#fff"/>
            <path data-name="패스 1961" d="m56.994 193.147.036-.036q.692 1.051 1.583 2.371t2.129 3.241q.363.543.818 1.14a1.908 1.908 0 0 0 1.182.742 1.078 1.078 0 0 0 1.22-.362 2.9 2.9 0 0 0 .454-1.448 5.8 5.8 0 0 0 .054-1.031 8.35 8.35 0 0 0-.09-1 2.311 2.311 0 0 0-.091-.56l-.2-.743q-.109-.362-.218-.67a2.794 2.794 0 0 0-.218-.489l-1.529-.543a.455.455 0 0 1-.309.072.513.513 0 0 1-.418-.253l-.109-.145-2.329-3.113a13.56 13.56 0 0 0 .855-1.81 9 9 0 0 0 .491-1.883 1.306 1.306 0 0 0-.582-1.267 8.132 8.132 0 0 0-1.638-.977q-.946-.4-1.947-.707t-1.546-.525l-1.31 1.412a8.829 8.829 0 0 1 1.037 1.195 1.52 1.52 0 0 1 .054 1.376 23.292 23.292 0 0 1-1.073 2.9 27.593 27.593 0 0 1-2.056 3.656 20.669 20.669 0 0 1-1.347 1.882q-.728.906-1.419 1.666-.729.76-1.347 1.3a7.172 7.172 0 0 1-1.055.8.987.987 0 0 1-.437.127q-.255.017-.51.017a5.571 5.571 0 0 1-.619-.036l-.655 1.231a2.22 2.22 0 0 0 .473.362 2.356 2.356 0 0 0 .527.253 2.144 2.144 0 0 0 .71.108 4.683 4.683 0 0 0 2.292-.434 23.255 23.255 0 0 0 5.131-3.476 34.381 34.381 0 0 0 4-4.345" transform="translate(-43.136 -176.723)" style="fill:#fff"/>
            <path data-name="패스 1962" d="M74.312 227.777a11.721 11.721 0 0 0 3.075-1.05 7.732 7.732 0 0 0 2.347-1.865 4.51 4.51 0 0 0 1.037-2.806 5 5 0 0 0-.471-2.556 5.813 5.813 0 0 0-1.456-1.828 7.713 7.713 0 0 0-2.074-1.231 17.032 17.032 0 0 0-2.365-.76.252.252 0 0 1-.109-.018.263.263 0 0 0-.109-.018v-.036a.561.561 0 0 1-.327-.217c.023-.1.023-.145 0-.145s-.013-.023.037-.073q.291-.289.218-.507a1.424 1.424 0 0 0-.363-.507 5.642 5.642 0 0 0-.291-.2 1.738 1.738 0 0 0-.364-.163c-.17-.048-.382-.1-.636-.163a9.585 9.585 0 0 0-.965-.162 7.288 7.288 0 0 0-1.109-.054 7.087 7.087 0 0 0-1.692.272l-.036 1.159c.146.048.279.1.4.144.1.049.188.1.273.144a.341.341 0 0 1 .164.182.032.032 0 0 0 .036.036l-.073.073h-.036a25.835 25.835 0 0 0-2.821.724 9.154 9.154 0 0 0-2.42 1.159 5.973 5.973 0 0 0-1.692 1.846 5.219 5.219 0 0 0-.637 2.68 4.572 4.572 0 0 0 .946 2.932 7.48 7.48 0 0 0 2.365 1.955 11.788 11.788 0 0 0 3.038 1.05 15.139 15.139 0 0 0 2.967.325 16.322 16.322 0 0 0 3.147-.325m-5.916-3.327a4.1 4.1 0 0 1-.855-1.231 3.583 3.583 0 0 1-.309-1.485 3.721 3.721 0 0 1 4-3.947 3.829 3.829 0 0 1 2.984 1.05 4.173 4.173 0 0 1 .946 2.9 3.6 3.6 0 0 1-.328 1.539 3.813 3.813 0 0 1-2.129 1.991 4.082 4.082 0 0 1-1.473.272 4.19 4.19 0 0 1-1.566-.289 4.054 4.054 0 0 1-1.273-.8" transform="translate(-50.064 -188.471)" style="fill:#fff"/>
            <path data-name="패스 1963" d="M127.588 194.281a10.272 10.272 0 0 0 2.821 1.05 13.294 13.294 0 0 0 2.783.325 14.632 14.632 0 0 0 2.929-.325 12.078 12.078 0 0 0 2.966-1.014 7.124 7.124 0 0 0 2.257-1.774 3.984 3.984 0 0 0 .909-2.644 5.435 5.435 0 0 0-.418-2.19 5.758 5.758 0 0 0-1.11-1.684 7.307 7.307 0 0 0-1.674-1.176 10.339 10.339 0 0 0-2-.779 5.284 5.284 0 0 1-.4-.108l-.219-.072-.036-.036a.416.416 0 0 1-.127-.018.4.4 0 0 0-.127-.018q-.219-.109-.218-.217v-.254a.46.46 0 0 0 .145-.525 1.41 1.41 0 0 0-.4-.524 2.771 2.771 0 0 0-.673-.363 14.271 14.271 0 0 0-1.438-.4 6.6 6.6 0 0 0-1.037-.182c-.3-.023-.564-.036-.782-.036a4.951 4.951 0 0 0-.655.036l-.473 1.666a1.351 1.351 0 0 1 .4.108c.242.1.376.194.4.289.047.122.036.194-.036.218q-1.275.291-2.511.705a8.671 8.671 0 0 0-2.22 1.1 5.779 5.779 0 0 0-1.583 1.756 4.932 4.932 0 0 0-.6 2.516 4.278 4.278 0 0 0 .892 2.751 6.7 6.7 0 0 0 2.238 1.81m3.329-7.368a2.925 2.925 0 0 1 2.493-1.14 3.155 3.155 0 0 1 2.584 1.195 3.885 3.885 0 0 1 .6 1.232 5.023 5.023 0 0 1 .2 1.411 3.81 3.81 0 0 1-.255 1.358 4.445 4.445 0 0 1-.692 1.213 3.77 3.77 0 0 1-1.091.869 2.842 2.842 0 0 1-1.347.326 2.682 2.682 0 0 1-1.382-.362 3.788 3.788 0 0 1-1.056-.9 3.987 3.987 0 0 1-.727-1.214 3.6 3.6 0 0 1-.255-1.285 4.759 4.759 0 0 1 .928-2.7" transform="translate(-74.174 -176.01)" style="fill:#fff"/>
            <path data-name="패스 1964" d="m150.417 226.287-.618.652a.927.927 0 0 1 .054.417.594.594 0 0 1-.237.416 1.465 1.465 0 0 1-.727.362 7.562 7.562 0 0 1-1.237.072h-9.5a2.732 2.732 0 0 1-.492-.036 1.255 1.255 0 0 1-.491-.253.741.741 0 0 1-.182-.453 4.367 4.367 0 0 1-.036-.452v-3.222a1.5 1.5 0 0 0-.764-1.322 4.392 4.392 0 0 0-1.746-.633 19.285 19.285 0 0 0-1.492-.127 7.849 7.849 0 0 0-1.165.054 5.309 5.309 0 0 0-1.02.254.73.73 0 0 0-.51.76.687.687 0 0 0 .11.363.584.584 0 0 0 .291.253.921.921 0 0 0 .437.091.436.436 0 0 1 .291.054.269.269 0 0 1 .073.2v3.53a3.211 3.211 0 0 0 .892 2.354 3.244 3.244 0 0 0 2.42.9h16.413a4.159 4.159 0 0 0 1.492-.217 2.408 2.408 0 0 0 .8-.471 1.422 1.422 0 0 0 .328-.579 1.991 1.991 0 0 0 .073-.434 2.671 2.671 0 0 0-.309-1.321 2.145 2.145 0 0 0-.892-1 2.805 2.805 0 0 0-2.257-.218" transform="translate(-76.407 -191.688)" style="fill:#fff"/>
            <path data-name="패스 1965" d="M120.037 208.719a2.751 2.751 0 0 0 1.127.887 2.956 2.956 0 0 0 .874.162 2.007 2.007 0 0 0 .709-.144l.673-.253q.582-.253 1.365-.526a6.857 6.857 0 0 1 2.165-.272h1.019v3.078a5.316 5.316 0 0 1-.091.887 1.632 1.632 0 0 1-.346.815l.546 1.3a17.729 17.729 0 0 0 2.038-.471 6.9 6.9 0 0 0 1.637-.688 2.97 2.97 0 0 0 .928-.887 2.307 2.307 0 0 0 .31-1.068v-1.879c0-.241.006-.453.017-.633a1.482 1.482 0 0 1 .092-.453h6.04a5.355 5.355 0 0 1 1.128.109.488.488 0 0 1 .109.018.567.567 0 0 0 .146.018q.363.073.673.144a.744.744 0 0 0 .636-.18q.692-.544.146-1.81a4.2 4.2 0 0 0-1.056-1.376q-.728-.652-1.165-.978l-1.492.254a6.01 6.01 0 0 1-.454.6 1.843 1.843 0 0 1-.638.452 3.946 3.946 0 0 1-1.146.326 12.541 12.541 0 0 1-1.838.109h-7.5q-1.018 0-2.165-.019a17.664 17.664 0 0 1-1.983-.126 5.345 5.345 0 0 1-1.51-.434 9.324 9.324 0 0 1-1.256-.688l-1.419.8a7.6 7.6 0 0 0 .764 1.7 13.275 13.275 0 0 0 .91 1.231" transform="translate(-71.826 -185.017)" style="fill:#fff"/>
            <path data-name="패스 1966" d="M152.756 181.8v19.3h-4.4a6.072 6.072 0 0 1-1.31-.163 4.148 4.148 0 0 1-1.347-.561l-1.711.652a9.3 9.3 0 0 0 .947 1.611 5.6 5.6 0 0 0 1.055 1.032 3.353 3.353 0 0 0 2.11.76 1.451 1.451 0 0 0 .619-.18 6.818 6.818 0 0 1 .656-.29 7.582 7.582 0 0 1 1.182-.325 16.015 16.015 0 0 1 2.2-.218v.76c0 .484-.049.761-.145.833a.485.485 0 0 1-.292.091 2.464 2.464 0 0 1-.509-.018l-.545 1.013a5.1 5.1 0 0 0 1.692 1.014 6.3 6.3 0 0 0 2.019.289 3.564 3.564 0 0 0 1.529-.253 4.259 4.259 0 0 0 .764-.435 1.9 1.9 0 0 0 .473-.506 1.6 1.6 0 0 0 .254-.634 5.222 5.222 0 0 0 .073-.959v-23.07q0-.289-1.165-.85a11.969 11.969 0 0 0-3.566-.85l-1.056.977a2.91 2.91 0 0 1 .328.489 1.066 1.066 0 0 1 .145.488" transform="translate(-81.694 -175.436)" style="fill:#fff"/>
            <path data-name="패스 1967" d="M221.331 190.987a5.651 5.651 0 0 0 1.055 1.031 3.361 3.361 0 0 0 2.112.76c.121-.024.242-.054.363-.091a1.115 1.115 0 0 0 .291-.127 6.007 6.007 0 0 1 1.928-.615v5.539a1.235 1.235 0 0 1-.091.561.372.372 0 0 1-.237.2.807.807 0 0 1-.382-.018 7.366 7.366 0 0 1-.419-.127l-.582.941a5.136 5.136 0 0 0 3.93 1.737 3.43 3.43 0 0 0 2.274-.688 2.541 2.541 0 0 0 .819-2.064v-16.51q0-.29-1.147-.869a11.212 11.212 0 0 0-3.51-.869l-1.165.76q.183.29.346.56a.976.976 0 0 1 .164.489v7.857h-2.329a5.3 5.3 0 0 1-1.182-.146 9.855 9.855 0 0 1-1.147-.325l-.437-.217-1.6.616a9.339 9.339 0 0 0 .946 1.611" transform="translate(-111.114 -175.413)" style="fill:#fff"/>
            <path data-name="패스 1968" d="M192.812 201.635a2.035 2.035 0 0 0 .746.38 2.588 2.588 0 0 0 1 .091 4.9 4.9 0 0 0 .855-.163 15.1 15.1 0 0 0 3.857-1.955 46.817 46.817 0 0 0 5.459-4.272l.473-.434q1.054 1.411 2.038 2.769t2.037 2.733a4.319 4.319 0 0 0 .892.851 1.775 1.775 0 0 0 1.182.417 1.173 1.173 0 0 0 1.092-.688 3.577 3.577 0 0 0 .255-1.376 14.742 14.742 0 0 0-.146-2.118 3.68 3.68 0 0 0-.655-1.683l-1.346-.217a.658.658 0 0 1-.183.181c-.073.048-.157.024-.255-.073s-.243-.254-.437-.47-.4-.471-.619-.76q-.363-.435-.764-.923t-.764-.959a22.238 22.238 0 0 0 2.6-3.258 5.069 5.069 0 0 0 .965-2.5 1.023 1.023 0 0 0-.328-.615 5.286 5.286 0 0 0-.764-.688 7.1 7.1 0 0 0-.873-.561 1.6 1.6 0 0 0-.655-.236 5.579 5.579 0 0 0-1.2.145c-.437.1-.85.206-1.238.325q-.619.218-1.055.4a9.89 9.89 0 0 1-.546.217l-5.749.037a5.125 5.125 0 0 1-1.437-.218A3.669 3.669 0 0 1 196 185.4l-2 .435a3.7 3.7 0 0 0 .437 1.05 7.174 7.174 0 0 0 .692 1.05 4.823 4.823 0 0 0 1.182 1 2.091 2.091 0 0 0 .892.344 2.985 2.985 0 0 0 .637-.054 4.329 4.329 0 0 0 .528-.163 8.087 8.087 0 0 1 1.073-.344 9.394 9.394 0 0 1 1.911-.2h2.62q-.4.869-1.2 2.335a25.938 25.938 0 0 1-2.329 3.421 28.954 28.954 0 0 1-3.584 3.983 9.327 9.327 0 0 1-2.2 1.52v-.037a1.3 1.3 0 0 1-.745.127 4.1 4.1 0 0 1-.819-.236l-.691 1.558a2.3 2.3 0 0 0 .418.452" transform="translate(-100.336 -177.481)" style="fill:#fff"/>
            <path data-name="패스 1969" d="M221.013 227.777a11.721 11.721 0 0 0 3.075-1.05 7.526 7.526 0 0 0 2.329-1.865 4.577 4.577 0 0 0 1.019-2.806 5.144 5.144 0 0 0-.455-2.553 5.6 5.6 0 0 0-1.438-1.828 7.713 7.713 0 0 0-2.074-1.231 17.013 17.013 0 0 0-2.366-.76.251.251 0 0 1-.109-.018.262.262 0 0 0-.109-.018v-.036a.556.556 0 0 1-.327-.217c.023-.1.023-.145 0-.145s-.013-.023.036-.073q.291-.289.218-.507a1.435 1.435 0 0 0-.364-.507 5.642 5.642 0 0 0-.291-.2 1.739 1.739 0 0 0-.364-.163c-.17-.048-.382-.1-.636-.163a9.585 9.585 0 0 0-.965-.162 7.288 7.288 0 0 0-1.109-.054 7.088 7.088 0 0 0-1.692.272l-.036 1.159q.218.071.4.144c.1.049.188.1.273.144a.341.341 0 0 1 .164.182.032.032 0 0 0 .036.036l-.073.073h-.036a25.836 25.836 0 0 0-2.821.724 9.145 9.145 0 0 0-2.42 1.159 5.974 5.974 0 0 0-1.692 1.846 5.22 5.22 0 0 0-.637 2.68 4.572 4.572 0 0 0 .946 2.932 7.48 7.48 0 0 0 2.365 1.955 11.772 11.772 0 0 0 3.038 1.05 15.136 15.136 0 0 0 2.966.325 16.324 16.324 0 0 0 3.148-.325m-5.914-3.331a4.1 4.1 0 0 1-.855-1.231 3.584 3.584 0 0 1-.309-1.485 3.721 3.721 0 0 1 4-3.947 3.829 3.829 0 0 1 2.984 1.05 4.173 4.173 0 0 1 .946 2.9 3.616 3.616 0 0 1-.328 1.539 3.814 3.814 0 0 1-2.129 1.991 4.088 4.088 0 0 1-1.473.272 4.19 4.19 0 0 1-1.566-.289 4.053 4.053 0 0 1-1.273-.8" transform="translate(-106.557 -188.471)" style="fill:#fff"/>
        </g>
    </g>
</svg>
