<svg xmlns="http://www.w3.org/2000/svg" width="152" height="44" viewBox="0 0 152 44">
    <path data-name="사각형 27744" style="fill:none" d="M0 0h152v44H0z"/>
    <g data-name="그룹 48958">
        <path data-name="패스 21479" d="M494.466 25.279q-.457-.11-.867-.218a1.938 1.938 0 0 1-.691-.363 3.312 3.312 0 0 1-.7-.83 8.489 8.489 0 0 1-.745-1.621q-.929-2.5-1.945-5.307t-2.026-5.649q-1.012-2.844-1.978-5.593L483.7.536l-.07-.112a1.273 1.273 0 0 0-.994-.424.8.8 0 0 0-.86.534l-7.663 21.438a12.534 12.534 0 0 1-.675 1.568 3.714 3.714 0 0 1-.637.9 2.328 2.328 0 0 1-.673.477 5.219 5.219 0 0 1-.828.286l-.522.074a.738.738 0 0 0-.543.369 1.081 1.081 0 0 0-.131.523 1.319 1.319 0 0 0 .155.628.677.677 0 0 0 .609.395 10.427 10.427 0 0 0 1.822-.153 9.5 9.5 0 0 1 2.583-.1q.509.045 1.011.1c.34.038.669.072.991.1.685.065 1.31.147 1.555-.338a1.311 1.311 0 0 0 .133-.583 1.28 1.28 0 0 0-.134-.567.674.674 0 0 0-.618-.382 7.017 7.017 0 0 1-.932-.132 2.764 2.764 0 0 1-.763-.271 1.312 1.312 0 0 1-.478-.429 1.083 1.083 0 0 1-.168-.625 3.117 3.117 0 0 1 .165-.757l1.52-4.432a1.063 1.063 0 0 1 .268-.449.759.759 0 0 1 .462-.093h5.975a2.1 2.1 0 0 1 .8.1.727.727 0 0 1 .278.435q.511 1.416.817 2.333t.465 1.5a7.872 7.872 0 0 1 .207.886 3.964 3.964 0 0 1 .047.552c0 .5-.126.828-.375.963a4.9 4.9 0 0 1-1.576.422.78.78 0 0 0-.584.356 1.041 1.041 0 0 0-.147.553 1.2 1.2 0 0 0 .174.649.732.732 0 0 0 .638.357 20.915 20.915 0 0 0 2.441-.15 22.518 22.518 0 0 1 2.641-.144c.412 0 .8.011 1.171.036s.708.06 1.033.107a15.377 15.377 0 0 0 2.133.152.612.612 0 0 0 .569-.378 1.335 1.335 0 0 0 .112-.554 1.308 1.308 0 0 0-.121-.552.7.7 0 0 0-.517-.425m-9.941-9.407c-.014.012-.1.073-.4.073h-5.463a1.75 1.75 0 0 1-.232-.018h-.005a.984.984 0 0 1 .073-.329l3.044-8.663 2.918 8.665a.9.9 0 0 1 .064.267" transform="translate(-469.096 8.176)" style="fill:#fff"/>
        <path data-name="패스 21480" d="M517.738 2.1a.869.869 0 0 0-.657-.871 4.031 4.031 0 0 0-1.165-.143H497.79a3.857 3.857 0 0 0-1.151.162.9.9 0 0 0-.7.927A22.35 22.35 0 0 1 496.083 5q-.018 1.449-.15 2.855a.638.638 0 0 0 .284.525.974.974 0 0 0 .5.194 1.14 1.14 0 0 0 .528-.076.67.67 0 0 0 .43-.548 15.906 15.906 0 0 1 .575-2.395 3.663 3.663 0 0 1 .777-1.367 2.408 2.408 0 0 1 1.181-.662 8.472 8.472 0 0 1 1.989-.192 4.287 4.287 0 0 1 1.952.315c.382.217.462.908.462 1.45v16.75a11.27 11.27 0 0 1-.12 1.875 1.736 1.736 0 0 1-.395.907 1.791 1.791 0 0 1-.824.46 10.453 10.453 0 0 1-1.65.278.734.734 0 0 0-.535.414 1.265 1.265 0 0 0-.135.576 1.17 1.17 0 0 0 .14.57.655.655 0 0 0 .59.352 23.664 23.664 0 0 0 2.536-.15 22.186 22.186 0 0 1 5.039 0 22.4 22.4 0 0 0 2.639.15.718.718 0 0 0 .626-.332 1.074 1.074 0 0 0 .17-.59 1.159 1.159 0 0 0-.161-.593.784.784 0 0 0-.57-.4 11.217 11.217 0 0 1-1.685-.275 1.791 1.791 0 0 1-.845-.459 1.6 1.6 0 0 1-.367-.895 14.3 14.3 0 0 1-.1-1.887V5.1c0-.784.17-1.269.5-1.445a4.737 4.737 0 0 1 2.045-.319 7.8 7.8 0 0 1 1.856.192 2.624 2.624 0 0 1 1.219.669 3.6 3.6 0 0 1 .823 1.381 12.321 12.321 0 0 1 .522 2.4.7.7 0 0 0 .407.559 1.034 1.034 0 0 0 .571.082 1.084 1.084 0 0 0 .533-.224.68.68 0 0 0 .293-.568q-.066-.75-.116-1.572t-.049-1.6q0-.778.048-1.428c.033-.431.071-.791.117-1.129" transform="translate(-471.224 8.087)" style="fill:#fff"/>
        <path data-name="패스 21481" d="M541.052 19.819a1.328 1.328 0 0 0-1.175-.028.718.718 0 0 0-.411.555 11.251 11.251 0 0 1-.338 1.8 3.59 3.59 0 0 1-.51 1.111 2.741 2.741 0 0 1-.753.7 7.6 7.6 0 0 1-1.107.562 3.874 3.874 0 0 1-.974.2 15.045 15.045 0 0 1-1.515.072 17.628 17.628 0 0 1-2.458-.135 2.083 2.083 0 0 1-1.232-.545 2.322 2.322 0 0 1-.54-1.314 20.256 20.256 0 0 1-.136-2.675v-4.941a.524.524 0 0 1 .048-.288.208.208 0 0 1 .115-.059 16.8 16.8 0 0 1 2.415.134 2.4 2.4 0 0 1 1.184.45 1.576 1.576 0 0 1 .5.885 14.028 14.028 0 0 1 .252 1.768.7.7 0 0 0 .381.513 1.153 1.153 0 0 0 1.069 0 .626.626 0 0 0 .338-.568c0-.447-.007-.86-.025-1.239s-.049-.736-.092-1.042a18.565 18.565 0 0 1-.1-2.022q0-.65.033-1.156c.021-.34.046-.667.073-.975s.052-.629.075-.945.033-.685.033-1.1a.675.675 0 0 0-.3-.58 1.084 1.084 0 0 0-1.1-.018.74.74 0 0 0-.4.565 12.574 12.574 0 0 1-.25 1.6 1.57 1.57 0 0 1-.5.863 2.509 2.509 0 0 1-1.19.468 14.822 14.822 0 0 1-2.409.151.224.224 0 0 1-.108-.041.89.89 0 0 1-.054-.416V5.544a12.339 12.339 0 0 1 .063-1.44.858.858 0 0 1 .226-.551 1.054 1.054 0 0 1 .624-.195q.537-.037 1.5-.037h2.027a16.548 16.548 0 0 1 1.872.143 1.712 1.712 0 0 1 .974.451 2.618 2.618 0 0 1 .6 1.127 18.675 18.675 0 0 1 .474 2.258.652.652 0 0 0 .374.477 1.188 1.188 0 0 0 1-.009.584.584 0 0 0 .375-.531q0-.785-.051-1.576a25.53 25.53 0 0 1-.05-1.588v-.607c0-.255 0-.5.008-.727a4.416 4.416 0 0 1 .055-.61c.09-.682-.225-.9-.421-.965a1.923 1.923 0 0 0-.62-.092h-12.166a36.26 36.26 0 0 1-2.133-.054 34.501 34.501 0 0 0-2.073-.056.636.636 0 0 0-.578.375 1.281 1.281 0 0 0-.135.584 1.189 1.189 0 0 0 .129.551.62.62 0 0 0 .547.351c.236.024.485.06.753.107a4.756 4.756 0 0 1 .741.193 1.446 1.446 0 0 1 .786.54 3.211 3.211 0 0 1 .479 1.032 7.024 7.024 0 0 1 .219 1.4c.032.527.05 1.063.05 1.609V22.2a5.189 5.189 0 0 1-.17 1.443 2.094 2.094 0 0 1-.483.875 2.142 2.142 0 0 1-.842.525 6.631 6.631 0 0 1-1.32.306.742.742 0 0 0-.569.4 1.175 1.175 0 0 0-.125.53 1.221 1.221 0 0 0 .16.621.7.7 0 0 0 .64.365q.991-.074 2.221-.148a41.91 41.91 0 0 1 2.505-.072h12.3a1.388 1.388 0 0 0 .532-.09 1.032 1.032 0 0 0 .348-.218.729.729 0 0 0 .2-.331.94.94 0 0 0 .034-.236 22.035 22.035 0 0 1 .106-2.754l.3-2.943a.613.613 0 0 0-.334-.656" transform="translate(-473.359 8.097)" style="fill:#fff"/>
        <path data-name="패스 21482" d="M564.618 19.216a1.415 1.415 0 0 0-1.158-.027.68.68 0 0 0-.412.517 14.343 14.343 0 0 1-.807 2.594 4.6 4.6 0 0 1-1.031 1.529 3.206 3.206 0 0 1-1.381.751 7.954 7.954 0 0 1-1.985.218c-.418 0-.822-.017-1.2-.053a8.2 8.2 0 0 1-1.012-.155 3.58 3.58 0 0 1-1.088-.477 1.924 1.924 0 0 1-.631-.731 3.711 3.711 0 0 1-.339-1.238 17.044 17.044 0 0 1-.1-1.972V7.068a16.689 16.689 0 0 1 .106-2.062 2.938 2.938 0 0 1 .389-1.213 1.585 1.585 0 0 1 .8-.622 5.914 5.914 0 0 1 1.581-.29.647.647 0 0 0 .587-.4 1.39 1.39 0 0 0 .143-.626 1.234 1.234 0 0 0-.115-.526.626.626 0 0 0-.584-.368c-.469 0-.913.014-1.327.038l-2.43.148a29.2 29.2 0 0 1-3.9-.073 31.635 31.635 0 0 0-2.482-.112.668.668 0 0 0-.615.381 1.3 1.3 0 0 0-.133.588 1.245 1.245 0 0 0 .139.588.654.654 0 0 0 .583.36 4.829 4.829 0 0 1 1.559.323 1.76 1.76 0 0 1 .821.69 3.13 3.13 0 0 1 .404 1.23 14.375 14.375 0 0 1 .114 1.948v14.806a12.121 12.121 0 0 1-.112 1.857 1.736 1.736 0 0 1-.38.906 1.663 1.663 0 0 1-.824.445 15.178 15.178 0 0 1-1.647.306.825.825 0 0 0-.583.375 1.087 1.087 0 0 0-.178.607 1.051 1.051 0 0 0 .183.607.75.75 0 0 0 .648.323q1.193-.072 2.4-.164a32.98 32.98 0 0 1 2.517-.092h12.291a1.381 1.381 0 0 0 .53-.089 1.02 1.02 0 0 0 .35-.218.731.731 0 0 0 .195-.324.9.9 0 0 0 .037-.242 28.452 28.452 0 0 1 .107-3.065c.094-1.107.195-2.192.3-3.235a.6.6 0 0 0-.34-.658" transform="translate(-475.3 8.097)" style="fill:#fff"/>
        <path data-name="패스 21483" d="M580.345 25.352a10.993 10.993 0 0 1-1.6-.275 1.517 1.517 0 0 1-1.249-1.368 10.719 10.719 0 0 1-.127-1.869V7.071a18.112 18.112 0 0 1 .1-2.075 2.7 2.7 0 0 1 .385-1.188 1.662 1.662 0 0 1 .829-.628 5.607 5.607 0 0 1 1.567-.3.634.634 0 0 0 .567-.383 1.432 1.432 0 0 0 .162-.572 1.213 1.213 0 0 0-.094-.579.633.633 0 0 0-.6-.385c-.483 0-.93.014-1.343.038l-2.413.148a29.221 29.221 0 0 1-3.9-.073 32.04 32.04 0 0 0-2.492-.112.661.661 0 0 0-.593.353 1.149 1.149 0 0 0-.154.588 1.244 1.244 0 0 0 .146.59.69.69 0 0 0 .578.386 4.65 4.65 0 0 1 1.558.33 1.858 1.858 0 0 1 .826.685 3 3 0 0 1 .4 1.217 14.5 14.5 0 0 1 .114 1.958v14.77a12.235 12.235 0 0 1-.112 1.877 1.687 1.687 0 0 1-.386.9 1.766 1.766 0 0 1-.83.459 10.6 10.6 0 0 1-1.639.278.735.735 0 0 0-.555.414 1.252 1.252 0 0 0-.136.577 1.144 1.144 0 0 0 .14.568.664.664 0 0 0 .607.354 23.667 23.667 0 0 0 2.517-.15 22.038 22.038 0 0 1 5.034 0 22.345 22.345 0 0 0 2.629.15.735.735 0 0 0 .644-.334 1.064 1.064 0 0 0 .169-.588 1.161 1.161 0 0 0-.161-.594.8.8 0 0 0-.585-.4" transform="translate(-477.273 8.097)" style="fill:#fff"/>
        <path data-name="패스 21484" d="M605.016 19.82a1.329 1.329 0 0 0-1.175-.028.722.722 0 0 0-.412.556 11.141 11.141 0 0 1-.337 1.8 3.591 3.591 0 0 1-.511 1.111 2.714 2.714 0 0 1-.753.7 7.5 7.5 0 0 1-1.106.562 3.868 3.868 0 0 1-.976.2 14.775 14.775 0 0 1-1.514.072 17.776 17.776 0 0 1-2.458-.134 2.091 2.091 0 0 1-1.233-.546A2.313 2.313 0 0 1 594 22.8a20.191 20.191 0 0 1-.137-2.675v-4.943a.538.538 0 0 1 .048-.289.212.212 0 0 1 .115-.058 16.8 16.8 0 0 1 2.415.134 2.383 2.383 0 0 1 1.184.449 1.578 1.578 0 0 1 .5.887 13.732 13.732 0 0 1 .253 1.766.7.7 0 0 0 .38.514 1.156 1.156 0 0 0 1.071 0 .629.629 0 0 0 .336-.568c0-.447-.007-.859-.025-1.238s-.049-.737-.092-1.042a19.045 19.045 0 0 1-.1-2.023q0-.648.034-1.155c.021-.341.045-.666.073-.976s.051-.629.074-.944.033-.685.033-1.1a.677.677 0 0 0-.3-.581 1.091 1.091 0 0 0-1.1-.017.741.741 0 0 0-.4.565 12.582 12.582 0 0 1-.25 1.6 1.572 1.572 0 0 1-.5.863 2.52 2.52 0 0 1-1.19.468 14.824 14.824 0 0 1-2.409.151.223.223 0 0 1-.108-.041.911.911 0 0 1-.054-.416V5.545a12.079 12.079 0 0 1 .079-1.445.851.851 0 0 1 .227-.552 1.062 1.062 0 0 1 .623-.194q.535-.036 1.5-.036h2.027a16.3 16.3 0 0 1 1.871.144 1.7 1.7 0 0 1 .974.451 2.6 2.6 0 0 1 .6 1.126 18.659 18.659 0 0 1 .474 2.259.648.648 0 0 0 .375.476 1.187 1.187 0 0 0 1-.009.584.584 0 0 0 .366-.531q0-.783-.051-1.575-.048-.772-.049-1.589v-.604c0-.254 0-.5.007-.727a4.4 4.4 0 0 1 .056-.609c.089-.683-.226-.9-.421-.965a1.922 1.922 0 0 0-.62-.093h-12.171a36.2 36.2 0 0 1-2.132-.054 35.364 35.364 0 0 0-2.074-.056.634.634 0 0 0-.577.374 1.259 1.259 0 0 0-.137.585 1.206 1.206 0 0 0 .128.551.621.621 0 0 0 .548.35c.236.024.485.06.752.107a4.757 4.757 0 0 1 .741.194 1.442 1.442 0 0 1 .785.54 3.221 3.221 0 0 1 .479 1.032 7.049 7.049 0 0 1 .219 1.4c.032.526.05 1.062.05 1.609V22.2a5.172 5.172 0 0 1-.17 1.442 2.093 2.093 0 0 1-.482.876 2.179 2.179 0 0 1-.842.525 6.7 6.7 0 0 1-1.32.306.738.738 0 0 0-.569.4 1.157 1.157 0 0 0-.127.532 1.235 1.235 0 0 0 .161.622.707.707 0 0 0 .641.363q.99-.073 2.221-.147a41.85 41.85 0 0 1 2.505-.073h12.3a1.383 1.383 0 0 0 .534-.09 1.024 1.024 0 0 0 .346-.218.723.723 0 0 0 .2-.331.924.924 0 0 0 .034-.235 22.353 22.353 0 0 1 .106-2.754l.3-2.943a.613.613 0 0 0-.333-.656" transform="translate(-478.628 8.097)" style="fill:#fff"/>
        <path data-name="패스 21485" d="M631.262 23.148a.957.957 0 0 0-1.166-.112.813.813 0 0 0-.318.541 2.108 2.108 0 0 1-.481.986.691.691 0 0 1-1.115-.02 2.068 2.068 0 0 1-.469-1.1q-.164-.746-.295-1.53c-.091-.537-.2-1.071-.328-1.588a13.213 13.213 0 0 0-.492-1.565 7.571 7.571 0 0 0-.814-1.54 8.135 8.135 0 0 0-1.269-1.438A9.727 9.727 0 0 0 622.7 14.5a9.4 9.4 0 0 0 1.978-.725 5.717 5.717 0 0 0 2.853-3.217 7.6 7.6 0 0 0 .408-2.607 7.2 7.2 0 0 0-.664-3.23 6.247 6.247 0 0 0-1.756-2.175 7.039 7.039 0 0 0-2.468-1.217 17.4 17.4 0 0 0-5.362-.315c-.438.025-.934.042-1.487.055l-1.854.037q-.607 0-1.139-.018c-.354-.013-.684-.03-.986-.054s-.643-.044-.984-.056-.706-.019-1.1-.019a.668.668 0 0 0-.612.376 1.236 1.236 0 0 0-.136.564 1.183 1.183 0 0 0 .14.564.577.577 0 0 0 .574.356c.236.024.485.06.753.107a4.752 4.752 0 0 1 .741.194 1.415 1.415 0 0 1 .783.547 3.3 3.3 0 0 1 .48 1.06 7.24 7.24 0 0 1 .22 1.417c.032.526.05 1.056.05 1.59v14.139a10.386 10.386 0 0 1-.119 1.745 2.024 2.024 0 0 1-.39.949 1.663 1.663 0 0 1-.79.495 8.283 8.283 0 0 1-1.514.292.729.729 0 0 0-.57.4 1.28 1.28 0 0 0 .026 1.157.665.665 0 0 0 .6.36 21.366 21.366 0 0 0 2.48-.15 19.544 19.544 0 0 1 3.709-.1q.619.045 1.281.1t1.406.1q.746.047 1.6.047a.715.715 0 0 0 .632-.351 1.139 1.139 0 0 0 .163-.6 1.248 1.248 0 0 0-.148-.6.6.6 0 0 0-.588-.371 8.969 8.969 0 0 1-1.547-.248 2.359 2.359 0 0 1-1.024-.548 2.4 2.4 0 0 1-.621-1.078 6.97 6.97 0 0 1-.225-1.958v-5.078c0-.407.085-.67.254-.782a1.429 1.429 0 0 1 .8-.212 3.08 3.08 0 0 1 2.434.958 8.008 8.008 0 0 1 1.51 3.306q.132.588.288 1.312l.332 1.5c.117.518.238 1.03.366 1.534s.263.969.408 1.394a2.857 2.857 0 0 0 .518.988 3.331 3.331 0 0 0 .809.715 3.543 3.543 0 0 0 1.013.437 4.485 4.485 0 0 0 1.126.139 4.733 4.733 0 0 0 1.4-.217 3.845 3.845 0 0 0 1.306-.7 4.093 4.093 0 0 0 .99-1.219 4.6 4.6 0 0 0 .51-1.732.759.759 0 0 0-.3-.707m-8.05-12.606a3.587 3.587 0 0 1-.693 1.55 2.66 2.66 0 0 1-1.276.831 7.086 7.086 0 0 1-2.116.27 4.762 4.762 0 0 1-1.381-.147c-.162-.057-.255-.357-.255-.825V4.79c0-.889.185-1.178.309-1.284s.472-.3 1.525-.3a6.659 6.659 0 0 1 1.961.252 2.583 2.583 0 0 1 1.22.772 3.461 3.461 0 0 1 .699 1.47 10.343 10.343 0 0 1 .231 2.368 12.134 12.134 0 0 1-.217 2.478" transform="translate(-480.572 8.097)" style="fill:#fff"/>
    </g>
</svg>
