<svg
  width="16"
  height="16"
  viewBox="0 0 24 24"
  fill="none"
  xmlns="http://www.w3.org/2000/svg"
>
  <path
    fill-rule="evenodd"
    clip-rule="evenodd"
    d="M4.21967 19.779C4.51256 20.0719 4.98744 20.0719 5.28033 19.779L9.49868 15.5607V19.1879C9.49868 19.6021 9.83447 19.9379 10.2487 19.9379C10.6629 19.9379 10.9987 19.6021 10.9987 19.1879V13.75C10.9987 13.3358 10.6629 13 10.2487 13H4.81076C4.39654 13 4.06076 13.3358 4.06076 13.75C4.06076 14.1642 4.39654 14.5 4.81076 14.5H8.43802L4.21967 18.7183C3.92678 19.0112 3.92678 19.4861 4.21967 19.779Z"
    fill="currentColor"
  />
  <path
    fill-rule="evenodd"
    clip-rule="evenodd"
    d="M19.779 4.21965C19.4861 3.92675 19.0112 3.92675 18.7183 4.21965L14.5 8.438V4.81073C14.5 4.39652 14.1642 4.06073 13.75 4.06073C13.3358 4.06073 13 4.39652 13 4.81073V10.2487C13 10.6629 13.3358 10.9987 13.75 10.9987H19.1879C19.6021 10.9987 19.9379 10.6629 19.9379 10.2487C19.9379 9.83444 19.6021 9.49866 19.1879 9.49866H15.5606L19.779 5.28031C20.0719 4.98741 20.0719 4.51254 19.779 4.21965Z"
    fill="currentColor"
  />
</svg>
