<svg width="24" height="24" viewBox="0 0 24 24" fill="none" xmlns="http://www.w3.org/2000/svg">
<path fill-rule="evenodd" clip-rule="evenodd" d="M3.25 6C3.25 4.48122 4.48122 3.25 6 3.25H18C19.5188 3.25 20.75 4.48122 20.75 6V8.25H21.25C21.6642 8.25 22 8.58579 22 9C22 9.41421 21.6642 9.75 21.25 9.75H20.75V11.25H21.25C21.6642 11.25 22 11.5858 22 12C22 12.4142 21.6642 12.75 21.25 12.75H20.75V14.25H21.25C21.6642 14.25 22 14.5858 22 15C22 15.4142 21.6642 15.75 21.25 15.75H20.75V18C20.75 19.5188 19.5188 20.75 18 20.75H6C4.48122 20.75 3.25 19.5188 3.25 18V6ZM19.25 14.25H18.75C18.3358 14.25 18 14.5858 18 15C18 15.4142 18.3358 15.75 18.75 15.75H19.25V18C19.25 18.6904 18.6904 19.25 18 19.25H6C5.30964 19.25 4.75 18.6904 4.75 18V6C4.75 5.30964 5.30964 4.75 6 4.75H18C18.6904 4.75 19.25 5.30964 19.25 6V8.25H18.75C18.3358 8.25 18 8.58579 18 9C18 9.41421 18.3358 9.75 18.75 9.75H19.25V11.25H18.75C18.3358 11.25 18 11.5858 18 12C18 12.4142 18.3358 12.75 18.75 12.75H19.25V14.25ZM9.75 10C9.75 9.30964 10.3096 8.75 11 8.75C11.6904 8.75 12.25 9.30964 12.25 10C12.25 10.6904 11.6904 11.25 11 11.25C10.3096 11.25 9.75 10.6904 9.75 10ZM13.1221 11.7492C13.5144 11.2739 13.75 10.6644 13.75 10C13.75 8.48122 12.5188 7.25 11 7.25C9.48122 7.25 8.25 8.48122 8.25 10C8.25 10.6644 8.48565 11.2739 8.87793 11.7492C7.31983 12.5286 6.25 14.1393 6.25 16C6.25 16.4142 6.58579 16.75 7 16.75C7.41421 16.75 7.75 16.4142 7.75 16C7.75 14.2051 9.20507 12.75 11 12.75C12.7949 12.75 14.25 14.2051 14.25 16C14.25 16.4142 14.5858 16.75 15 16.75C15.4142 16.75 15.75 16.4142 15.75 16C15.75 14.1393 14.6802 12.5286 13.1221 11.7492Z" fill="currentColor"/>
</svg>
