<svg xmlns="http://www.w3.org/2000/svg" width="58" height="58" viewBox="0 0 58 58">
    <defs>
        <filter id="1t5dzbyisa" x="0" y="0" width="58" height="58" filterUnits="userSpaceOnUse">
            <feOffset dy="3"/>
            <feGaussianBlur stdDeviation="3" result="blur"/>
            <feFlood flood-opacity=".161"/>
            <feComposite operator="in" in2="blur"/>
            <feComposite in="SourceGraphic"/>
        </filter>
    </defs>
    <g transform="translate(9 6)">
        <g style="filter:url(#1t5dzbyisa)">
            <rect data-name="사각형 6" width="40" height="40" rx="10" style="fill:#fff"/>
        </g>
        <g data-name="패스 21439" style="fill:#fff">
            <path d="M12.663 22.944c-4.706-.072-6.995-2.265-7.585-2.936a1.065 1.065 0 0 0-.479-.33 1.568 1.568 0 0 0-.526-.082c-.54 0-1.235.208-2.324.547-.667.207-1.454.452-2.063.566.297-.543.737-1.237 1.021-1.685 1.111-1.752 1.684-2.655 1.212-3.43l-.034-.057C1.555 14.985 1 13.79 1 12c0-2.938 1.144-5.7 3.222-7.778A10.928 10.928 0 0 1 12 1c2.938 0 5.7 1.144 7.778 3.222A10.928 10.928 0 0 1 23 12c0 2.987-1.03 5.737-2.9 7.744-1.885 2.023-4.526 3.16-7.437 3.2z" style="stroke:none" transform="translate(8.813 8.028)"/>
            <path d="M12 2C6.486 2 2 6.486 2 12c0 1.608.52 2.65.743 3.024l.03.049c.73 1.18.124 2.345-.905 3.986.586-.18 1.061-.314 1.48-.39l.032-.037h.196c.172-.023.337-.036.497-.036.297 0 .576.044.834.131.3.097.624.283.922.621.41.466 1.01.935 1.694 1.32 1.442.815 3.172 1.244 5.14 1.276C18.075 21.86 22 17.684 22 12c0-5.514-4.486-10-10-10m0-2c6.627 0 12 5.373 12 12s-4.668 11.859-11.338 11.944c-5.934-.085-8.375-3.354-8.369-3.311-.61-.28-3.661 1.14-5.17 1.14-.282 0-.51-.05-.658-.169-.703-.554 2.963-4.964 2.59-5.505C1.05 16.065 0 14.58 0 12 0 5.373 5.373 0 12 0z" style="fill:#707070;stroke:none" transform="translate(8.813 8.028)"/>
        </g>
        <path data-name="패스 39" d="M1.977 0h.336C2.908 0 4.2.325 4.1 1.65l-.609 5.175C3.491 7.75 2.482 8 2.145 8S.665 7.855.665 6.825L.127 1.75C-.109.35 1.382 0 1.977 0z" transform="translate(18.898 14)" style="fill:#707070"/>
        <circle data-name="타원 9" cx="2" cy="2" r="2" transform="translate(19 23)" style="fill:#707070"/>
    </g>
</svg>
