<svg xmlns="http://www.w3.org/2000/svg" width="24" height="24" viewBox="0 0 24 24" fill="none">
  <path fill-rule="evenodd" clip-rule="evenodd" d="M14.225 6.75H9.775C9.89082 6.17944 10.3953 5.75 11 5.75H13C13.6047 5.75 14.1092 6.17944 14.225 6.75ZM19 6.75H15.7388C15.6125 5.34838 14.4345 4.25 13 4.25H11C9.56549 4.25 8.38752 5.34837 8.26121 6.75H5C4.58579 6.75 4.25 7.08579 4.25 7.5C4.25 7.91421 4.58579 8.25 5 8.25H6.27126L7.07362 16.2736C7.2142 17.6794 8.39716 18.75 9.80998 18.75H14.19C15.6028 18.75 16.7858 17.6794 16.9264 16.2736L17.7287 8.25H19C19.4142 8.25 19.75 7.91421 19.75 7.5C19.75 7.08579 19.4142 6.75 19 6.75ZM16.2213 8.25H7.77874L8.56618 16.1244C8.63008 16.7634 9.16779 17.25 9.80998 17.25H14.19C14.8322 17.25 15.3699 16.7634 15.4338 16.1244L16.2213 8.25ZM10.5 9.75C10.9142 9.75 11.25 10.0858 11.25 10.5V15.5C11.25 15.9142 10.9142 16.25 10.5 16.25C10.0858 16.25 9.75 15.9142 9.75 15.5V10.5C9.75 10.0858 10.0858 9.75 10.5 9.75ZM13.5 9.75C13.9142 9.75 14.25 10.0858 14.25 10.5V15.5C14.25 15.9142 13.9142 16.25 13.5 16.25C13.0858 16.25 12.75 15.9142 12.75 15.5V10.5C12.75 10.0858 13.0858 9.75 13.5 9.75Z" fill="currentColor"/>
</svg>
