<svg width="24" height="24" viewBox="0 0 24 24" fill="none" xmlns="http://www.w3.org/2000/svg">
<path fill-rule="evenodd" clip-rule="evenodd" d="M6 6.25C5.0335 6.25 4.25 7.0335 4.25 8V9.25H5.75V8C5.75 7.86193 5.86193 7.75 6 7.75H14C14.1381 7.75 14.25 7.86193 14.25 8V15.25H14H10.3711C9.96748 14.647 9.2801 14.25 8.5 14.25C7.7199 14.25 7.03252 14.647 6.62889 15.25H6C5.86193 15.25 5.75 15.1381 5.75 15V13.75H4.25V15C4.25 15.9665 5.0335 16.75 6 16.75H6.26373C6.38809 17.875 7.34186 18.75 8.5 18.75C9.65814 18.75 10.6119 17.875 10.7363 16.75H14H15H15.2637C15.3881 17.875 16.3419 18.75 17.5 18.75C18.6581 18.75 19.6119 17.875 19.7363 16.75H20C20.9665 16.75 21.75 15.9665 21.75 15V13.75V11.6861C21.75 11.1994 21.5474 10.7348 21.1908 10.4037L18.2981 7.71761C17.9744 7.41704 17.549 7.25 17.1073 7.25H15.5816C15.3007 6.65876 14.6981 6.25 14 6.25H6ZM17.5 14.25C16.7932 14.25 16.1625 14.5759 15.75 15.0857V8.75H17.1073C17.1704 8.75 17.2312 8.77386 17.2774 8.8168L20.1701 11.5029C20.2211 11.5502 20.25 11.6166 20.25 11.6861V13.75V15C20.25 15.1381 20.1381 15.25 20 15.25H19.3711C18.9675 14.647 18.2801 14.25 17.5 14.25ZM7.75 16.5C7.75 16.0858 8.08579 15.75 8.5 15.75C8.91421 15.75 9.25 16.0858 9.25 16.5C9.25 16.9142 8.91421 17.25 8.5 17.25C8.08579 17.25 7.75 16.9142 7.75 16.5ZM16.75 16.5C16.75 16.0858 17.0858 15.75 17.5 15.75C17.9142 15.75 18.25 16.0858 18.25 16.5C18.25 16.9142 17.9142 17.25 17.5 17.25C17.0858 17.25 16.75 16.9142 16.75 16.5ZM2.75 10.5C2.75 10.0858 3.08579 9.75 3.5 9.75H8.5C8.91421 9.75 9.25 10.0858 9.25 10.5C9.25 10.9142 8.91421 11.25 8.5 11.25H3.5C3.08579 11.25 2.75 10.9142 2.75 10.5ZM0.75 12.5C0.75 12.0858 1.08579 11.75 1.5 11.75H6.5C6.91421 11.75 7.25 12.0858 7.25 12.5C7.25 12.9142 6.91421 13.25 6.5 13.25H1.5C1.08579 13.25 0.75 12.9142 0.75 12.5Z" fill="currentColor"/>
</svg>
