<svg width="24" height="24" viewBox="0 0 24 24" fill="none" xmlns="http://www.w3.org/2000/svg">
<path fill-rule="evenodd" clip-rule="evenodd" d="M3.25 8C3.25 6.48122 4.48122 5.25 6 5.25H18C19.5188 5.25 20.75 6.48122 20.75 8V16C20.75 17.5188 19.5188 18.75 18 18.75H6C4.48122 18.75 3.25 17.5188 3.25 16V8ZM6 6.75C5.30964 6.75 4.75 7.30964 4.75 8V16C4.75 16.6904 5.30964 17.25 6 17.25H18C18.6904 17.25 19.25 16.6904 19.25 16V8C19.25 7.30964 18.6904 6.75 18 6.75H6ZM5.89208 7.91936L11.2873 11.6636C11.7159 11.961 12.2841 11.961 12.7127 11.6636L18.1079 7.91936L18.9631 9.15168L15.5281 11.5355L18.9631 13.9194L18.1079 15.1517L14.2127 12.4484L13.5679 12.8959C12.625 13.5502 11.375 13.5502 10.4321 12.8959L9.78737 12.4484L5.89208 15.1517L5.03687 13.9194L8.4719 11.5355L5.03687 9.15168L5.89208 7.91936Z" fill="white"/>
</svg>
