<svg width="24" height="24" viewBox="0 0 24 24" fill="none" xmlns="http://www.w3.org/2000/svg">
<path fill-rule="evenodd" clip-rule="evenodd" d="M9.5 4.75003C9.5 4.44335 9.31329 4.16757 9.02854 4.05367C8.7438 3.93977 8.4184 4.01071 8.2069 4.23278L3.2069 9.48278C3.07408 9.62224 3 9.80744 3 10V16C3 16.4142 3.33579 16.75 3.75 16.75H19.75C20.1642 16.75 20.5 16.4142 20.5 16V10V4.75003C20.5 4.45574 20.3279 4.18865 20.0599 4.06705C19.7919 3.94545 19.4776 3.99181 19.2561 4.18559L14.5 8.3472V4.75003C14.5 4.44335 14.3133 4.16757 14.0285 4.05367C13.7438 3.93977 13.4184 4.01071 13.2069 4.23278L9.5 8.12503V4.75003ZM14.2439 10.5645L19 6.40285V10V15.25H4.5V10.3L8 6.62503V10C8 10.3067 8.18671 10.5825 8.47146 10.6964C8.7562 10.8103 9.0816 10.7393 9.2931 10.5173L13 6.62503V10C13 10.2943 13.1721 10.5614 13.4401 10.683C13.7081 10.8046 14.0224 10.7582 14.2439 10.5645ZM3.75 18.25C3.33579 18.25 3 18.5858 3 19C3 19.4142 3.33579 19.75 3.75 19.75H20.25C20.6642 19.75 21 19.4142 21 19C21 18.5858 20.6642 18.25 20.25 18.25H3.75Z" fill="currentColor"/>
</svg>
