<svg width="24" height="24" viewBox="0 0 24 24" fill="none" xmlns="http://www.w3.org/2000/svg">
<path d="M4 6C4 5.44772 4.44772 5 5 5H11.0833C11.487 5 11.8511 5.24274 12.0064 5.61538L12.7436 7.38462C12.8989 7.75726 13.263 8 13.6667 8H21C21.5523 8 22 8.44772 22 9V19C22 19.5523 21.5523 20 21 20H5C4.44772 20 4 19.5523 4 19V6Z" fill="#FFC700" stroke="#222222" stroke-width="1.5" stroke-linejoin="round"/>
<path d="M1.27043 12.2169C1.13165 11.5924 1.60687 11 2.24662 11H18.1978C18.6665 11 19.0723 11.3255 19.174 11.7831L20.7296 18.7831C20.8684 19.4076 20.3931 20 19.7534 20H3.80217C3.33347 20 2.92766 19.6745 2.82598 19.2169L1.27043 12.2169Z" fill="#FFC700" stroke="#222222" stroke-width="1.5" stroke-linejoin="round"/>
</svg>
