<svg xmlns="http://www.w3.org/2000/svg" width="48" height="48" viewBox="0 0 48 48">
    <defs>
        <clipPath id="xh38hwz6ra">
            <path data-name="사각형 20038" style="fill:#fff" d="M0 0h48v48H0z"/>
        </clipPath>
    </defs>
    <g data-name="그룹 21275" style="clip-path:url(#xh38hwz6ra)">
        <path data-name="패스 21396" d="M46.352 17.1a2.287 2.287 0 1 0-4.4 1.268 19.06 19.06 0 0 1-21.958 23.969 19.056 19.056 0 0 1-7-34.507 19.079 19.079 0 0 1 21.287-.014 2.288 2.288 0 0 0 2.555-3.8A23.634 23.634 0 0 0 4.042 36.838a23.476 23.476 0 0 0 15.077 9.989 23.925 23.925 0 0 0 4.566.443A23.647 23.647 0 0 0 46.352 17.1" transform="translate(.361 .366)" style="fill:#fff"/>
        <path data-name="패스 21397" d="M911.212 579.444a2.288 2.288 0 0 0-3.407 3.054l8.88 9.906a2.291 2.291 0 0 0 1.7.761 2.291 2.291 0 0 0 1.7-.758l20.315-22.6a2.288 2.288 0 1 0-3.4-3.058l-18.611 20.706z" transform="translate(-896.014 -558.862)" style="fill:#fff"/>
    </g>
</svg>
