<svg xmlns="http://www.w3.org/2000/svg" width="24" height="24" viewBox="0 0 24 24" fill="none">
  <path fill-rule="evenodd" clip-rule="evenodd" d="M5 6.75C5 5.23122 6.23122 4 7.75 4H15.75C17.2688 4 18.5 5.23122 18.5 6.75V15.6666H18.5032V17.1666C18.3575 17.1666 18.2805 17.2168 18.2259 17.2833C18.1588 17.3649 18.0919 17.5193 18.0919 17.75C18.0919 18.0721 18.3531 18.3333 18.6752 18.3333V19.8333H7.08333C5.93275 19.8333 5.00002 18.9006 5 17.75V17.75V6.75ZM17 6.75V15.6666H7.08333C6.88084 15.6666 6.6851 15.6955 6.5 15.7494V6.75C6.5 6.05964 7.05964 5.5 7.75 5.5H15.75C16.4404 5.5 17 6.05964 17 6.75ZM6.5 17.75V17.75C6.5 17.4278 6.76117 17.1666 7.08333 17.1666H16.6595C16.6137 17.3575 16.5919 17.5542 16.5919 17.75C16.5919 17.9524 16.6208 18.1482 16.6747 18.3333H7.08333C6.76118 18.3333 6.50002 18.0721 6.5 17.75ZM9.7474 7.58337C9.28716 7.58337 8.91406 7.95647 8.91406 8.41671C8.91406 8.87694 9.28716 9.25004 9.7474 9.25004H13.7474C14.2076 9.25004 14.5807 8.87694 14.5807 8.41671C14.5807 7.95647 14.2076 7.58337 13.7474 7.58337H9.7474Z" fill="currentColor"/>
</svg>
