<svg width="24" height="24" viewBox="0 0 24 24" fill="none" xmlns="http://www.w3.org/2000/svg">
<path fill-rule="evenodd" clip-rule="evenodd" d="M4.25 7.75C4.25 6.7835 5.0335 6 6 6H18C18.9665 6 19.75 6.7835 19.75 7.75V14.75C19.75 15.7165 18.9665 16.5 18 16.5H14.7323C14.744 16.5817 14.75 16.6651 14.75 16.75V18.25C14.75 18.3349 14.744 18.4183 14.7323 18.5H16C16.4142 18.5 16.75 18.8358 16.75 19.25C16.75 19.6642 16.4142 20 16 20H13H11H8C7.58579 20 7.25 19.6642 7.25 19.25C7.25 18.8358 7.58579 18.5 8 18.5H9.26772C9.25604 18.4183 9.25 18.3349 9.25 18.25V16.75C9.25 16.6651 9.25604 16.5817 9.26772 16.5H6C5.0335 16.5 4.25 15.7165 4.25 14.75V7.75ZM11 18.5H13C13.1381 18.5 13.25 18.3881 13.25 18.25V16.75C13.25 16.6119 13.1381 16.5 13 16.5H11C10.8619 16.5 10.75 16.6119 10.75 16.75V18.25C10.75 18.3881 10.8619 18.5 11 18.5ZM18 15H13H11H6C5.86193 15 5.75 14.8881 5.75 14.75V7.75C5.75 7.61193 5.86193 7.5 6 7.5H18C18.1381 7.5 18.25 7.61193 18.25 7.75V14.75C18.25 14.8881 18.1381 15 18 15Z" fill="currentColor"/>
</svg>
