<svg width="24" height="24" viewBox="0 0 24 24" fill="none" xmlns="http://www.w3.org/2000/svg">
<path fill-rule="evenodd" clip-rule="evenodd" d="M4.75 9.5C4.75 8.80964 5.30964 8.25 6 8.25C6.69036 8.25 7.25 8.80964 7.25 9.5C7.25 10.1904 6.69036 10.75 6 10.75C5.30964 10.75 4.75 10.1904 4.75 9.5ZM8.12199 11.2493C8.51432 10.7739 8.75 10.1645 8.75 9.5C8.75 7.98122 7.51878 6.75 6 6.75C4.48122 6.75 3.25 7.98122 3.25 9.5C3.25 10.1644 3.48565 10.7739 3.87793 11.2492C2.31983 12.0286 1.25 13.6393 1.25 15.5C1.25 15.9142 1.58579 16.25 2 16.25C2.41421 16.25 2.75 15.9142 2.75 15.5C2.75 13.7051 4.20507 12.25 6 12.25C6.97191 12.25 7.8447 12.6763 8.441 13.3541C7.69986 14.192 7.25 15.2934 7.25 16.5C7.25 16.9142 7.58579 17.25 8 17.25C8.41421 17.25 8.75 16.9142 8.75 16.5C8.75 14.7051 10.2051 13.25 12 13.25C13.7949 13.25 15.25 14.7051 15.25 16.5C15.25 16.9142 15.5858 17.25 16 17.25C16.4142 17.25 16.75 16.9142 16.75 16.5C16.75 15.2934 16.3001 14.192 15.559 13.3541C16.1553 12.6763 17.0281 12.25 18 12.25C19.7949 12.25 21.25 13.7051 21.25 15.5C21.25 15.9142 21.5858 16.25 22 16.25C22.4142 16.25 22.75 15.9142 22.75 15.5C22.75 13.6393 21.6802 12.0286 20.1221 11.2492C20.5144 10.7739 20.75 10.1644 20.75 9.5C20.75 7.98122 19.5188 6.75 18 6.75C16.4812 6.75 15.25 7.98122 15.25 9.5C15.25 10.1645 15.4857 10.7739 15.878 11.2493C15.3116 11.5327 14.8098 11.9258 14.4007 12.4004C14.3097 12.347 14.2168 12.2966 14.1221 12.2492C14.5144 11.7739 14.75 11.1644 14.75 10.5C14.75 8.98122 13.5188 7.75 12 7.75C10.4812 7.75 9.25 8.98122 9.25 10.5C9.25 11.1644 9.48565 11.7739 9.87793 12.2492C9.78322 12.2966 9.69031 12.347 9.59933 12.4004C9.19019 11.9258 8.68842 11.5327 8.12199 11.2493ZM10.75 10.5C10.75 9.80964 11.3096 9.25 12 9.25C12.6904 9.25 13.25 9.80964 13.25 10.5C13.25 11.1904 12.6904 11.75 12 11.75C11.3096 11.75 10.75 11.1904 10.75 10.5ZM18 8.25C17.3097 8.25 16.75 8.80964 16.75 9.5C16.75 10.1904 17.3097 10.75 18 10.75C18.6904 10.75 19.25 10.1904 19.25 9.5C19.25 8.80964 18.6904 8.25 18 8.25Z" fill="currentColor"/>
</svg>
