<svg id="icon-sub-quick-day" xmlns="http://www.w3.org/2000/svg" width="18" height="18" viewBox="0 0 18 18">
  <defs>
    <style>
      .cls-1 {
        fill: none;
      }

      .cls-2 {
        fill: #474747;
      }
    </style>
  </defs>
  <rect id="사각형_27702" data-name="사각형 27702" class="cls-1" width="18" height="18"/>
  <g id="icon-main-quick-day" transform="translate(2.071 1.081)">
    <path id="event_available_FILL0_wght300_GRAD-25_opsz24" class="cls-2" d="M153.342-845.245l-2.6-2.638.836-.848,1.765,1.79,3.481-3.529.836.848Zm-4.651,2.928a1.36,1.36,0,0,1-1.005-.421,1.4,1.4,0,0,1-.415-1.019v-11.171a1.4,1.4,0,0,1,.415-1.019,1.361,1.361,0,0,1,1.007-.42h1.237v-1.786h1.2v1.786H157.3v-1.786h1.165v1.786h1.237a1.361,1.361,0,0,1,1.007.42,1.4,1.4,0,0,1,.415,1.019v11.171a1.4,1.4,0,0,1-.415,1.019,1.359,1.359,0,0,1-1,.421Zm0-1.182h11.014a.244.244,0,0,0,.176-.081.25.25,0,0,0,.08-.179v-7.806H148.436v7.806a.25.25,0,0,0,.08.179A.244.244,0,0,0,148.693-843.5Zm-.256-9.248h11.527v-2.18a.25.25,0,0,0-.08-.179.243.243,0,0,0-.176-.081H148.693a.243.243,0,0,0-.176.081.25.25,0,0,0-.08.179Zm0,0v0Z" transform="translate(-147.271 858.153)"/>
  </g>
</svg>
