<svg xmlns="http://www.w3.org/2000/svg" width="18" height="18" viewBox="0 0 18 18">
    <defs>
        <clipPath id="i061u99f2a">
            <path data-name="사각형 26512" style="fill:#474747" d="M0 0h14v18H0z"/>
        </clipPath>
    </defs>
    <path data-name="사각형 27704" style="fill:none" d="M0 0h18v18H0z"/>
    <g data-name="그룹 46245">
        <g data-name="그룹 46218" style="clip-path:url(#i061u99f2a)" transform="translate(2)">
            <path data-name="패스 21557" d="M7.006 16.111a24.142 24.142 0 0 0 4.165-4.772 7.8 7.8 0 0 0 1.444-4A5.875 5.875 0 0 0 11 3.082a5.335 5.335 0 0 0-4-1.668 5.335 5.335 0 0 0-4 1.668 5.875 5.875 0 0 0-1.607 4.257 7.8 7.8 0 0 0 1.444 4A24.119 24.119 0 0 0 7 16.111zm0 1.89a30.1 30.1 0 0 1-5.25-5.765 9.116 9.116 0 0 1-1.75-4.9 7.088 7.088 0 0 1 2.077-5.307A6.806 6.806 0 0 1 7 0a6.805 6.805 0 0 1 4.922 2.03A7.088 7.088 0 0 1 14 7.337a9.116 9.116 0 0 1-1.75 4.9A30.088 30.088 0 0 1 7 18z" transform="translate(0 .028)" style="fill:#474747"/>
            <path data-name="패스 21558" d="M7 10.244a3.028 3.028 0 1 1 3.028-3.027A3.029 3.029 0 0 1 7 10.244m0-4.855a1.828 1.828 0 1 0 1.832 1.828A1.83 1.83 0 0 0 7 5.389" transform="translate(0 .028)" style="fill:#474747"/>
        </g>
    </g>
</svg>
