<svg xmlns="http://www.w3.org/2000/svg" width="21" height="24" viewBox="0 0 21 24">
    <path d="m156.471-838.591-3.942-4 1.267-1.285 2.675 2.712 5.275-5.348 1.267 1.285zm-7.049 4.438a2.06 2.06 0 0 1-1.523-.637 2.118 2.118 0 0 1-.628-1.544v-16.93a2.118 2.118 0 0 1 .628-1.544 2.063 2.063 0 0 1 1.526-.637h1.875v-2.707h1.815v2.707h9.36v-2.707h1.766v2.707h1.875a2.063 2.063 0 0 1 1.526.637 2.118 2.118 0 0 1 .628 1.544v16.93a2.118 2.118 0 0 1-.628 1.544 2.06 2.06 0 0 1-1.523.637zm0-1.791h16.691a.369.369 0 0 0 .267-.123.379.379 0 0 0 .121-.271v-11.83h-17.464v11.83a.379.379 0 0 0 .121.271.369.369 0 0 0 .267.123zm-.388-14.015h17.468v-3.3a.379.379 0 0 0-.121-.271.369.369 0 0 0-.267-.123h-16.689a.369.369 0 0 0-.267.123.379.379 0 0 0-.121.271zm0 0z" transform="translate(-147.271 858.153)" style="fill:#22201f"/>
</svg>
