<svg xmlns="http://www.w3.org/2000/svg" width="58" height="58" viewBox="0 0 58 58">
    <path data-name="사각형 27219" style="fill:none" d="M0 0h58v58H0z"/>
    <g data-name="그룹 47652">
        <path data-name="패스 29034" d="M22.5 12.35a.713.713 0 0 0 .522-.232l4.475-4.9a.709.709 0 0 0-.522-1.187H14.632V3.42l.785-.37a1.092 1.092 0 0 0 .472.115v.006a1.114 1.114 0 0 0 .475-.11l1.957-.923.06-.028a1.115 1.115 0 0 0 .487-1.5 1.115 1.115 0 0 0-1.5-.489l-1.959.922a1.118 1.118 0 0 0-.6.724L11.3 3.426a.714.714 0 0 0-.4.638.71.71 0 0 0 .707.711v-.1.1a.7.7 0 0 0 .3-.068l1.307-.617v1.941H.706a.71.71 0 0 0-.522 1.187l4.475 4.9a.719.719 0 0 0 .524.232h.882v21.684H1.952a.71.71 0 0 0-.709.709v4.331a.71.71 0 0 0 .709.709H25.73a.71.71 0 0 0 .709-.709v-4.331a.71.71 0 0 0-.709-.709h-4.112V12.35zm2.522 23.1v2.914H2.661v-2.912h22.36zM20.2 11.772v22.262h-1V14.023a.708.708 0 0 0-.228-.493.752.752 0 0 0-.509-.187.707.707 0 0 0-.68.733v19.958h-7.8V14.082a.392.392 0 0 0 0-.059.708.708 0 0 0-.227-.492.748.748 0 0 0-.51-.188.708.708 0 0 0-.493.228.7.7 0 0 0-.187.505v19.958H7.483V11.765a.708.708 0 0 0 .024-.152.667.667 0 0 0-.024-.1v-1.057H20.2v1.063a.635.635 0 0 0-.024.151.582.582 0 0 0 .024.1m.709-2.737H6.774a.71.71 0 0 0-.709.709v1.189h-.57l-3.18-3.48h23.052l-3.18 3.48h-.569V9.744a.71.71 0 0 0-.709-.709" transform="translate(15 9)" style="fill:#474747"/>
    </g>
</svg>
