<svg xmlns="http://www.w3.org/2000/svg" width="30" height="34" viewBox="0 0 30 34">
    <path d="m160.414-830.44-5.632-5.662 1.81-1.82 3.822 3.842 7.535-7.577 1.81 1.82zm-10.069 6.287a2.955 2.955 0 0 1-2.176-.9 2.988 2.988 0 0 1-.9-2.188v-23.983a2.988 2.988 0 0 1 .9-2.188 2.96 2.96 0 0 1 2.18-.9h2.679v-3.835h2.592v3.835h13.372v-3.835h2.523v3.835h2.679a2.96 2.96 0 0 1 2.18.9 2.988 2.988 0 0 1 .9 2.188v23.983a2.987 2.987 0 0 1-.9 2.188 2.955 2.955 0 0 1-2.176.9zm0-2.537h23.844a.529.529 0 0 0 .381-.174.534.534 0 0 0 .173-.384v-16.759h-24.949v16.759a.534.534 0 0 0 .173.384.529.529 0 0 0 .382.174zm-.555-19.854h24.954v-4.679a.535.535 0 0 0-.173-.384.529.529 0 0 0-.381-.174h-23.841a.529.529 0 0 0-.381.174.535.535 0 0 0-.173.384zm0 0z" transform="translate(-147.271 858.153)" style="fill:#fff"/>
</svg>
