<svg xmlns="http://www.w3.org/2000/svg" width="58" height="43" viewBox="0 0 58 43">
    <defs>
        <clipPath id="y9eptkmdwa">
            <path style="fill:none" d="M0 0h33v9H0z"/>
        </clipPath>
    </defs>
    <g data-name="반복 그리드 4" transform="translate(12 34)" style="clip-path:url(#y9eptkmdwa)">
        <circle data-name="타원 102" cx="4.5" cy="4.5" r="4.5" style="fill:#585858"/>
        <circle data-name="타원 102" cx="4.5" cy="4.5" r="4.5" transform="translate(12)" style="fill:#585858"/>
        <circle data-name="타원 102" cx="4.5" cy="4.5" r="4.5" transform="translate(24)" style="fill:#585858"/>
    </g>
    <g data-name="반복 그리드 5" transform="rotate(90 4.5 4.5)" style="clip-path:url(#y9eptkmdwa)">
        <circle data-name="타원 102" cx="4.5" cy="4.5" r="4.5" style="fill:#585858"/>
        <circle data-name="타원 102" cx="4.5" cy="4.5" r="4.5" transform="translate(12)" style="fill:#585858"/>
        <circle data-name="타원 102" cx="4.5" cy="4.5" r="4.5" transform="translate(24)" style="fill:#585858"/>
    </g>
    <g data-name="반복 그리드 6" transform="rotate(90 29 29)" style="clip-path:url(#y9eptkmdwa)">
        <circle data-name="타원 102" cx="4.5" cy="4.5" r="4.5" style="fill:#585858"/>
        <circle data-name="타원 102" cx="4.5" cy="4.5" r="4.5" transform="translate(12)" style="fill:#585858"/>
        <circle data-name="타원 102" cx="4.5" cy="4.5" r="4.5" transform="translate(24)" style="fill:#585858"/>
    </g>
    <path data-name="사각형 19524" transform="translate(12 25)" style="fill:#585858" d="M0 0h34v6H0z"/>
    <path data-name="사각형 19525" transform="rotate(90 9 9)" style="fill:#585858" d="M0 0h30v6H0z"/>
    <path data-name="사각형 19526" transform="rotate(90 23 23)" style="fill:#585858" d="M0 0h30v6H0z"/>
</svg>
