<svg xmlns="http://www.w3.org/2000/svg" width="18" height="18" viewBox="0 0 18 18">
    <defs>
        <clipPath id="2rkyjnduea">
            <path data-name="사각형 26514" style="fill:#474747" d="M0 0h16.461v16.05H0z"/>
        </clipPath>
    </defs>
    <path data-name="사각형 27705" style="fill:none" d="M0 0h18v18H0z"/>
    <g data-name="그룹 46247">
        <g data-name="그룹 46220" style="clip-path:url(#2rkyjnduea)" transform="translate(.77 .976)">
            <path data-name="패스 21560" d="M8.231 16.049a1.161 1.161 0 0 1-.958-.509l-.986-1.452H3.022A3.024 3.024 0 0 1 0 11.067V3.021A3.024 3.024 0 0 1 3.022 0h10.417a3.024 3.024 0 0 1 3.021 3.021v8.046a3.024 3.024 0 0 1-3.021 3.021h-3.262l-.986 1.452a1.161 1.161 0 0 1-.96.509M3.022 1.4A1.623 1.623 0 0 0 1.4 3.021v8.046a1.623 1.623 0 0 0 1.621 1.621h4l1.2 1.775 1.2-1.775h4.005a1.623 1.623 0 0 0 1.621-1.621V3.021A1.623 1.623 0 0 0 13.439 1.4z" style="fill:#474747"/>
            <path data-name="패스 21561" d="M12.4 4.858H4.06a.5.5 0 1 1 0-1h8.34a.5.5 0 1 1 0 1" style="fill:#474747"/>
            <path data-name="패스 21562" d="M12.4 7.539H4.06a.5.5 0 0 1 0-1h8.34a.5.5 0 0 1 0 1" style="fill:#474747"/>
            <path data-name="패스 21563" d="M9.938 10.221H4.061a.5.5 0 0 1 0-1h5.877a.5.5 0 1 1 0 1" style="fill:#474747"/>
        </g>
    </g>
</svg>
