<svg xmlns="http://www.w3.org/2000/svg" width="58" height="58" viewBox="0 0 58 58">
    <path data-name="사각형 27454" style="fill:none" d="M0 0h58v58H0z"/>
    <g data-name="그룹 47649">
        <path data-name="패스 29029" d="M29.713 2.884A9.409 9.409 0 0 0 23.938.026a7.292 7.292 0 0 0-5.9 2.232l-1.247 1.251a7.285 7.285 0 0 0-2.234 5.9c0 .015.005.029.006.044l-2.015 3.127v1.173L1.061 25.621A2.321 2.321 0 0 0 .9 28.889l.756.743-1.422 1.306a.725.725 0 1 0 .982 1.067l1.472-1.356.535.526a2.383 2.383 0 0 0 1.477.511 2.233 2.233 0 0 0 1.686-.74L18.833 19.8h1.18l2.875-1.773a7.534 7.534 0 0 0 .9.058 7.42 7.42 0 0 0 5.3-2.273l1.252-1.253c3.25-3.25 2.993-8.049-.625-11.671M19.6 18.346h-1.322l-12.92 11.58a.9.9 0 0 1-1.177.163L1.957 27.9a.881.881 0 0 1 .112-1.241L14 14.336V13l1.01-1.569a10.1 10.1 0 0 0 2.407 3.747 10.2 10.2 0 0 0 3.521 2.341zm-1.161-4.191A7.973 7.973 0 0 1 16 9.285a5.7 5.7 0 0 1 .777-3.406 7.252 7.252 0 0 0 .352 1.2 15.032 15.032 0 0 0 3.416 4.972 13.032 13.032 0 0 0 6.165 3.762c-2.53 1.458-5.732.882-8.271-1.657m10.872-.625-.626.626c-.94.938-4.182-.2-7.114-3.132a13.572 13.572 0 0 1-3.088-4.466C18.016 5.34 18 4.351 18.44 3.91l.628-.627a5.908 5.908 0 0 1 4.244-1.833c.168 0 .336.007.506.021a7.964 7.964 0 0 1 4.87 2.438c3.014 3.018 3.271 6.975.625 9.621" transform="translate(12.694 12.902)" style="fill:#474747"/>
        <path data-name="패스 29030" d="m12.782 18.541-1.921 1.771a.725.725 0 1 0 .982 1.067l1.921-1.772a.725.725 0 1 0-.982-1.066" transform="translate(12.694 12.902)" style="fill:#474747"/>
    </g>
</svg>
