<svg xmlns="http://www.w3.org/2000/svg" width="32" height="32" viewBox="0 0 32 32">
    <path data-name="사각형 27707" style="fill:none" d="M0 0h32v32H0z"/>
    <path d="M102.382-869.784v-16.041H100v-7.68h7.621a1.937 1.937 0 0 1-.424-.811 3.914 3.914 0 0 1-.112-.947 3.826 3.826 0 0 1 1.157-2.81 3.827 3.827 0 0 1 2.81-1.157 3.505 3.505 0 0 1 1.57.356 4.572 4.572 0 0 1 1.292.951 4.215 4.215 0 0 1 1.292-.962 3.6 3.6 0 0 1 1.57-.344 3.826 3.826 0 0 1 2.81 1.157 3.826 3.826 0 0 1 1.157 2.81 3.456 3.456 0 0 1-.123.932 2.452 2.452 0 0 1-.412.825H128v7.68h-2.38v16.041zm14.4-27.235a1.7 1.7 0 0 0-1.252.505 1.7 1.7 0 0 0-.505 1.252 1.7 1.7 0 0 0 .505 1.252 1.7 1.7 0 0 0 1.252.505 1.7 1.7 0 0 0 1.252-.505 1.7 1.7 0 0 0 .505-1.252 1.7 1.7 0 0 0-.505-1.252 1.7 1.7 0 0 0-1.256-.504zm-7.482 1.757a1.7 1.7 0 0 0 .505 1.252 1.7 1.7 0 0 0 1.252.505 1.7 1.7 0 0 0 1.252-.505 1.7 1.7 0 0 0 .505-1.252 1.7 1.7 0 0 0-.505-1.252 1.7 1.7 0 0 0-1.252-.505 1.7 1.7 0 0 0-1.252.505 1.7 1.7 0 0 0-.505 1.253zm-7.085 3.968v3.259H112.9v-3.259zm10.684 19.3v-13.83h-8.3v13.83zm2.21 0h8.3v-13.83h-8.3zm10.684-16.041v-3.259h-10.687v3.259z" transform="translate(-98.001 900.229)" style="fill:#fff"/>
</svg>
