<svg xmlns="http://www.w3.org/2000/svg" width="58" height="58" viewBox="0 0 58 58">
    <path data-name="사각형 27456" style="fill:none" d="M0 0h58v58H0z"/>
    <g data-name="그룹 47648">
        <path data-name="패스 29027" d="M5.353 6.924a.75.75 0 0 0-.75.75v5.145a.748.748 0 0 0 .748.748.748.748 0 0 0 .748-.748V7.674a.75.75 0 0 0-.75-.75" transform="translate(19.046 10.383)" style="fill:#474747"/>
        <path data-name="패스 29028" d="M16.141 1.678a3.766 3.766 0 0 0-3.767 3.766v27.45a3.136 3.136 0 0 1-6.274-.112v-2.689h2.269a.748.748 0 0 0 .748-.748v-8.054a.746.746 0 0 0 .055-.1l1.466-4.019.005-.015.009-.024a.539.539 0 0 0 .012-.079.712.712 0 0 0 .036-.178V3.32A3.323 3.323 0 0 0 7.38 0H3.323A3.324 3.324 0 0 0 0 3.32v13.559a.734.734 0 0 0 .043.209v.045l.009.025.007.018 1.47 4.015a.634.634 0 0 0 .051.092v8.062a.748.748 0 0 0 .748.748H4.6v2.689a4.638 4.638 0 0 0 4.631 4.633 4.638 4.638 0 0 0 4.633-4.633V5.444a2.27 2.27 0 0 1 4.539 0V18.9a.75.75 0 0 0 1.5 0V5.444a3.766 3.766 0 0 0-3.766-3.766M1.5 3.32A1.826 1.826 0 0 1 3.323 1.5H7.38A1.825 1.825 0 0 1 9.2 3.32v.338H1.5zm0 1.838h7.7v10.97H1.5zm.321 12.467h7.058l-.933 2.56H2.754zm1.26 4.057h4.54v6.909h-4.54z" transform="translate(19.046 10.383)" style="fill:#474747"/>
    </g>
</svg>
