<svg xmlns="http://www.w3.org/2000/svg" width="58" height="58" viewBox="0 0 58 58">
    <path data-name="사각형 27219" style="fill:none" d="M0 0h58v58H0z"/>
    <path data-name="패스 29064" d="M-2.341-2.753h1.254V-1.4h-1.254V.842h-1.683V-1.4H-8.38l-.048-1.025 4.349-6.815h1.738zm-4.322 0h2.639v-4.211l-.125.222zm8.1-3.9.048.783a2.7 2.7 0 0 1 2.158-.92A2.072 2.072 0 0 1 5.7-5.641 2.658 2.658 0 0 1 8-6.79a2.336 2.336 0 0 1 1.845.69 3.019 3.019 0 0 1 .62 2.022v4.92H8.782v-4.876a1.49 1.49 0 0 0-.311-1.046 1.364 1.364 0 0 0-1.032-.332A1.4 1.4 0 0 0 6.5-5.1a1.625 1.625 0 0 0-.509.807L6 .842H4.315v-4.931a1.2 1.2 0 0 0-1.35-1.323 1.482 1.482 0 0 0-1.434.824v5.43H-.152v-7.494zm-.18 15.56 1.427-2.466h1.87l-2.292 3.692 2.369 3.8H2.774l-1.5-2.563-1.485 2.565h-1.87l2.369-3.8L-2 6.441h1.858zm-8.238 18.121h-6.78v-1.157l3.359-3.664a8.365 8.365 0 0 0 1.035-1.354 2.194 2.194 0 0 0 .308-1.091 1.657 1.657 0 0 0-.405-1.162 1.405 1.405 0 0 0-1.091-.443 1.62 1.62 0 0 0-1.267.5 1.961 1.961 0 0 0-.45 1.364h-1.683a3.3 3.3 0 0 1 .419-1.659 2.885 2.885 0 0 1 1.2-1.146 3.814 3.814 0 0 1 1.8-.409 3.411 3.411 0 0 1 2.317.738 2.56 2.56 0 0 1 .848 2.04 3.461 3.461 0 0 1-.429 1.58 9 9 0 0 1-1.4 1.88l-2.466 2.639h4.682zm2.154-1.773a.961.961 0 0 1 .727.267.926.926 0 0 1 .256.668.894.894 0 0 1-.256.654.976.976 0 0 1-.727.26.979.979 0 0 1-.713-.256.878.878 0 0 1-.26-.658.926.926 0 0 1 .256-.668.952.952 0 0 1 .717-.267zm7.078 1.773H.575v-8.1l-2.475.842v-1.413l3.934-1.447h.215zm4.911-7.494.048.783a2.7 2.7 0 0 1 2.161-.917 2.072 2.072 0 0 1 2.057 1.15 2.658 2.658 0 0 1 2.3-1.15 2.336 2.336 0 0 1 1.846.686 3.019 3.019 0 0 1 .62 2.022v4.924H14.51v-4.88a1.49 1.49 0 0 0-.312-1.046 1.364 1.364 0 0 0-1.032-.332 1.4 1.4 0 0 0-.938.308 1.625 1.625 0 0 0-.509.807l.007 5.139h-1.683V22.1a1.2 1.2 0 0 0-1.351-1.323 1.482 1.482 0 0 0-1.434.824v5.43H5.576v-7.497z" transform="translate(27.881 20.069)" style="fill:#474747"/>
</svg>
