<svg xmlns="http://www.w3.org/2000/svg" width="32" height="32" viewBox="0 0 32 32">
    <path data-name="사각형 27706" style="fill:none" d="M0 0h32v32H0z"/>
    <path d="M192.794-790.308h2.843v-8.529h-2.843zm1.421-12.465a1.616 1.616 0 0 0 1.186-.49 1.616 1.616 0 0 0 .49-1.186 1.616 1.616 0 0 0-.49-1.186 1.616 1.616 0 0 0-1.186-.49 1.616 1.616 0 0 0-1.186.49 1.616 1.616 0 0 0-.49 1.186 1.616 1.616 0 0 0 .49 1.186 1.616 1.616 0 0 0 1.186.49zM180-783.383V-804.7l14.214-10.679 14.215 10.679v21.321zm2.843-2.843h22.743v-17.057l-11.371-8.529-11.371 8.529zm11.372-12.793z" transform="translate(-178.001 815.383)" style="fill:#474747"/>
</svg>
