<svg xmlns="http://www.w3.org/2000/svg" width="32" height="32" viewBox="0 0 32 32">
    <path data-name="사각형 27708" style="fill:none" d="M0 0h32v32H0z"/>
    <g data-name="그룹 47603">
        <path d="M142.915-833.8a2.813 2.813 0 0 1-2.068-.846 2.813 2.813 0 0 1-.846-2.068v-21.579a2.813 2.813 0 0 1 .846-2.068 2.813 2.813 0 0 1 2.068-.846h2.232v-2.416h2.48v2.416h12.215v-2.416h2.418v2.416h2.232a2.813 2.813 0 0 1 2.068.846 2.813 2.813 0 0 1 .846 2.068v6.449h-24.987v15.13a.474.474 0 0 0 .155.341.474.474 0 0 0 .341.155h12.832v2.418zm-.5-20.462h22.575v-4.031a.474.474 0 0 0-.155-.341.474.474 0 0 0-.341-.155h-21.579a.474.474 0 0 0-.341.155.474.474 0 0 0-.155.341zm0 0z" transform="translate(-137.705 863.798)" style="fill:#fff"/>
        <path d="M136.432-820.908v-7.874h-3.216v-9.532h7.753l-2.81 6.493h3.94z" transform="translate(-112.395 852.908)" style="fill:#fff"/>
    </g>
</svg>
