<svg xmlns="http://www.w3.org/2000/svg" width="58" height="58" viewBox="0 0 58 58">
    <path data-name="사각형 27455" style="fill:none" d="M0 0h58v58H0z"/>
    <g data-name="그룹 47653">
        <path data-name="패스 29035" d="M34.308 0a2.486 2.486 0 0 0-2.484 2.484v2.125h-7.57a2.416 2.416 0 0 0-.878-1.541A2.456 2.456 0 0 0 21.29 2.6a2.415 2.415 0 0 0-1.81 1.82c-.014.063-.016.126-.026.189h-2.12a2.421 2.421 0 0 0-.878-1.541A2.456 2.456 0 0 0 14.37 2.6a2.415 2.415 0 0 0-1.81 1.82c-.014.063-.017.126-.026.189H4.969V2.484a2.484 2.484 0 0 0-4.969 0v31.821a.616.616 0 0 0 .617.616h35.559a.617.617 0 0 0 .617-.616V2.484A2.487 2.487 0 0 0 34.308 0M21.856 21.887a.616.616 0 0 0-.616.617v5.171h-1.361v-.033a1.6 1.6 0 0 0 .046-.367V13.051a4.132 4.132 0 0 0-.045-.591c0-.013-.006-.025-.008-.038a3.968 3.968 0 0 0-.636-1.613 2.513 2.513 0 0 1 .4-.247l2.217-1.105 2.218 1.105a2.763 2.763 0 0 1 1.541 2.489v14.224a.4.4 0 0 1-.4.4h-2.739V22.5a.617.617 0 0 0-.617-.617m-3.381 5.74a.432.432 0 0 1-.131.038.386.386 0 0 1-.049.009h-2.742V12.113a.617.617 0 1 0-1.233 0v15.561h-2.743a.4.4 0 0 1-.4-.4V13.051a2.763 2.763 0 0 1 1.541-2.489l2.217-1.105 2.218 1.105a2.762 2.762 0 0 1 .994.863 2.927 2.927 0 0 1 .206.326 2.776 2.776 0 0 1 .186.421c.024.071.045.143.063.215a2.813 2.813 0 0 1 .092.664v14.224a.387.387 0 0 1-.03.148.379.379 0 0 1-.043.069.452.452 0 0 1-.034.051.387.387 0 0 1-.095.071l-.018.013m2.795-19.256-2.18 1.087a3.869 3.869 0 0 0-.689.451 4.05 4.05 0 0 0-.7-.451L15.58 8.4a2.307 2.307 0 0 1 .882-1.522 2.426 2.426 0 0 0 .74-1.035h5.48a.99.99 0 0 1-.072.073 3.51 3.51 0 0 0-1.341 2.455m.3-4.567A1.2 1.2 0 0 1 23 4.609h-2.285a1.184 1.184 0 0 1 .849-.805m-6.919 0a1.191 1.191 0 0 1 1.432.805H13.8a1.183 1.183 0 0 1 .85-.805m1.117 2.039c-.025.024-.045.051-.072.073a3.51 3.51 0 0 0-1.341 2.455l-2.18 1.087a3.99 3.99 0 0 0-2.225 3.593v14.224a1.635 1.635 0 0 0 1.633 1.633H18.3c.029 0 .056-.007.085-.009s.1.009.117.009h6.719a1.635 1.635 0 0 0 1.633-1.633V13.051a3.991 3.991 0 0 0-2.225-3.593L22.5 8.4a2.306 2.306 0 0 1 .881-1.522 2.426 2.426 0 0 0 .74-1.035h7.7v27.845H4.969V5.843zM1.233 2.484a1.251 1.251 0 0 1 2.5 0v31.2h-2.5zm34.326 31.2h-2.5v-31.2a1.251 1.251 0 1 1 2.5 0z" transform="translate(10.604 11.66)" style="fill:#474747"/>
        <path data-name="패스 29036" d="M22.473 12.113a.617.617 0 1 0-1.234 0v6.167a.617.617 0 0 0 1.234 0z" transform="translate(10.604 11.66)" style="fill:#474747"/>
    </g>
</svg>
