<svg xmlns="http://www.w3.org/2000/svg" width="24" height="24" viewBox="0 0 24 24">
    <path d="m124.534-834.184 1.282-1.282-4.822-4.828v-6h-1.806v6.741zm-4.453 6.262a11.679 11.679 0 0 1-4.681-.946 12.124 12.124 0 0 1-3.812-2.568 12.138 12.138 0 0 1-2.566-3.809 11.659 11.659 0 0 1-.945-4.674 11.68 11.68 0 0 1 .946-4.681 12.124 12.124 0 0 1 2.568-3.812 12.138 12.138 0 0 1 3.809-2.566 11.659 11.659 0 0 1 4.674-.945 11.679 11.679 0 0 1 4.681.946 12.124 12.124 0 0 1 3.812 2.568 12.139 12.139 0 0 1 2.566 3.809 11.66 11.66 0 0 1 .945 4.674 11.68 11.68 0 0 1-.946 4.681 12.125 12.125 0 0 1-2.568 3.812 12.139 12.139 0 0 1-3.809 2.566 11.659 11.659 0 0 1-4.674.945zm-.003-12zm0 10.194a9.824 9.824 0 0 0 7.212-2.983 9.825 9.825 0 0 0 2.983-7.212 9.825 9.825 0 0 0-2.983-7.212 9.824 9.824 0 0 0-7.212-2.983 9.824 9.824 0 0 0-7.212 2.983 9.825 9.825 0 0 0-2.983 7.212 9.825 9.825 0 0 0 2.983 7.212 9.825 9.825 0 0 0 7.212 2.984z" transform="translate(-108.078 851.922)" style="fill:#22201f"/>
</svg>
