<svg xmlns="http://www.w3.org/2000/svg" width="58" height="58" viewBox="0 0 58 58">
    <path data-name="사각형 27221" style="fill:none" d="M0 0h58v58H0z"/>
    <g data-name="그룹 47646">
        <path data-name="패스 29023" d="m38.559 30.32-.946-.59V5.23a.68.68 0 0 0-.32-.579L30.021.1c-.013-.009-.03-.006-.044-.013A.659.659 0 0 0 29.67 0H2.57a.684.684 0 0 0-.682.681v24.452l-1.5.726a.685.685 0 0 0-.388.614v2.4a.683.683 0 0 0 .682.682h28.777l7.1 4.578a.672.672 0 0 0 .369.109H38.2v-.1.1a.683.683 0 0 0 .682-.682V30.9a.678.678 0 0 0-.322-.579M16.8 1.363h12.175v23.513H16.8zm-13.54 0h12.172v23.513H3.256zm25.717 26.829H1.365V26.9l1.366-.661h26.246zm1.364-26.279 5.908 3.694v23.268l-5.908-3.695zm7.175 30.965h-.384L30.341 28.5v-1.711l6.226 3.894.946.591z" transform="translate(10 12)" style="fill:#474747"/>
    </g>
</svg>
