<svg xmlns="http://www.w3.org/2000/svg" width="58" height="58" viewBox="0 0 58 58">
    <path data-name="사각형 27220" style="fill:none" d="M0 0h58v58H0z"/>
    <g data-name="그룹 47651">
        <path data-name="패스 29032" d="M35.4 2.452H18.458c-.087-.1-.17-.2-.262-.288A7.343 7.343 0 0 0 12.971 0a7.344 7.344 0 0 0-5.226 2.165c-.093.094-.177.194-.264.292H3.293A3.3 3.3 0 0 0 0 5.75v9.643a3.3 3.3 0 0 0 3.293 3.293h.521v.093a2.545 2.545 0 0 0 2.537 2.537v-.1h.005v.1a2.544 2.544 0 0 0 2.537-2.537v-.093h21.049v.093a2.544 2.544 0 0 0 2.535 2.537 2.544 2.544 0 0 0 2.535-2.537v-.093h.388a3.3 3.3 0 0 0 3.293-3.293V5.745A3.3 3.3 0 0 0 35.4 2.452m-26.659.7a5.988 5.988 0 0 1 8.467 8.47 5.95 5.95 0 0 1-4.233 1.753A5.988 5.988 0 0 1 8.738 3.156M7.487 18.779a1.136 1.136 0 0 1-2.271 0v-.093h2.271zm26.125 0a1.136 1.136 0 0 1-2.271 0v-.093h2.271zm3.676-3.393a1.9 1.9 0 0 1-1.888 1.891H3.293A1.9 1.9 0 0 1 1.4 15.386V5.742a1.9 1.9 0 0 1 1.893-1.891h3.19a7.39 7.39 0 0 0 6.488 10.929 7.391 7.391 0 0 0 6.488-10.929H35.4a1.9 1.9 0 0 1 1.891 1.891z" transform="translate(9.652 18.342)" style="fill:#474747"/>
        <path data-name="사각형 27468" transform="translate(33.89 25.878)" style="fill:#474747" d="M0 0h8.456v1.402H0z"/>
        <path data-name="사각형 27469" transform="translate(33.819 30.032)" style="fill:#474747" d="M0 0h8.457v1.402H0z"/>
        <path data-name="패스 29033" d="M12.972 10.807a3.419 3.419 0 1 0-3.418-3.419 3.422 3.422 0 0 0 3.418 3.419m0-5.432a2.016 2.016 0 1 1-2.015 2.015 2.02 2.02 0 0 1 2.015-2.015" transform="translate(9.652 18.342)" style="fill:#474747"/>
    </g>
</svg>
