<svg xmlns="http://www.w3.org/2000/svg" width="14" height="18" viewBox="0 0 14 18">
    <path d="M185.08-851.131a1.594 1.594 0 0 0 1.184-.5 1.67 1.67 0 0 0 .491-1.21 1.662 1.662 0 0 0-.493-1.208 1.6 1.6 0 0 0-1.185-.5 1.594 1.594 0 0 0-1.183.5 1.67 1.67 0 0 0-.491 1.21 1.662 1.662 0 0 0 .493 1.208 1.6 1.6 0 0 0 1.184.5zm0 7.242a24.147 24.147 0 0 0 4.165-4.772 7.8 7.8 0 0 0 1.444-4 5.876 5.876 0 0 0-1.611-4.257 5.334 5.334 0 0 0-4-1.668 5.334 5.334 0 0 0-4 1.668 5.876 5.876 0 0 0-1.611 4.257 7.8 7.8 0 0 0 1.444 4 24.147 24.147 0 0 0 4.167 4.772zm0 1.89a30.089 30.089 0 0 1-5.25-5.765 9.122 9.122 0 0 1-1.75-4.9 7.089 7.089 0 0 1 2.077-5.307 6.805 6.805 0 0 1 4.921-2.029 6.805 6.805 0 0 1 4.922 2.03 7.089 7.089 0 0 1 2.077 5.307 9.122 9.122 0 0 1-1.75 4.9 30.088 30.088 0 0 1-5.249 5.763zm-.002-10.844z" transform="translate(-178.078 859.999)" style="fill:#585858"/>
</svg>
