<svg xmlns="http://www.w3.org/2000/svg" width="18" height="18" viewBox="0 0 18 18">
    <defs>
        <clipPath id="qku7qf2zna">
            <path data-name="사각형 26513" style="fill:#474747" d="M0 0h16.402v16.49H0z"/>
        </clipPath>
    </defs>
    <path data-name="사각형 27703" style="fill:none" d="M0 0h18v18H0z"/>
    <g data-name="그룹 46246">
        <g data-name="그룹 46219" style="clip-path:url(#qku7qf2zna)" transform="translate(.799 .755)">
            <path data-name="패스 21559" d="M11.476 16.49c-2.423 0-5.292-1.436-7.674-3.839C1.307 10.136-.146 7.035.011 4.562A4.858 4.858 0 0 1 1.878.929 4.942 4.942 0 0 1 4.092.012 2.345 2.345 0 0 1 6.5 1.34l1.344 2.909a2.19 2.19 0 0 1-.664 2.657c-.092.071-.193.153-.3.239a7.377 7.377 0 0 0 1.074 1.31 7.526 7.526 0 0 0 1.329 1.111c.08-.1.152-.19.221-.284a2.189 2.189 0 0 1 2.674-.671l2.9 1.361a2.318 2.318 0 0 1 1.31 2.34 5 5 0 0 1-.876 2.23 4.872 4.872 0 0 1-3.67 1.936c-.12.008-.243.012-.366.012M4.371 1.4a.982.982 0 0 0-.109.006 3.513 3.513 0 0 0-1.542.645 3.486 3.486 0 0 0-1.312 2.6C1.276 6.737 2.574 9.425 4.8 11.665c2.191 2.211 4.877 3.553 6.957 3.417a3.455 3.455 0 0 0 2.634-1.373 3.553 3.553 0 0 0 .609-1.57.906.906 0 0 0-.519-.9l-2.9-1.361a.782.782 0 0 0-.956.239 7.827 7.827 0 0 1-.368.463 1.223 1.223 0 0 1-1.569.269 8.96 8.96 0 0 1-1.726-1.406 8.827 8.827 0 0 1-1.343-1.678 1.264 1.264 0 0 1 .262-1.609c.154-.127.306-.25.447-.36a.8.8 0 0 0 .246-.958L5.228 1.926a.922.922 0 0 0-.857-.53m4.817 8.283" style="fill:#474747"/>
        </g>
    </g>
</svg>
