<svg xmlns="http://www.w3.org/2000/svg" width="58" height="58" viewBox="0 0 58 58">
    <path data-name="사각형 27222" style="fill:none" d="M0 0h58v58H0z"/>
    <g data-name="그룹 47650">
        <path data-name="패스 29031" d="M0 25.583V1.106A1.106 1.106 0 0 1 1.106 0h9.239q.383 0 .909.027a7.914 7.914 0 0 1 1.018.118A7.569 7.569 0 0 1 15.845 1.6a7.015 7.015 0 0 1 2.173 2.845 9.677 9.677 0 0 1 .727 3.809 9.518 9.518 0 0 1-.736 3.791 7.156 7.156 0 0 1-2.182 2.855 7.5 7.5 0 0 1-3.554 1.46c-.327.049-.667.085-1.018.109s-.654.036-.909.036H3.835a.6.6 0 0 0-.6.6v8.479a.6.6 0 0 1-.6.6H.6a.6.6 0 0 1-.6-.6m3.236-12.747a.6.6 0 0 0 .6.6h6.4q.345 0 .791-.036c.067 0 .133-.011.2-.019a4.582 4.582 0 0 0 3.451-2.136 4.63 4.63 0 0 0 .395-.854 6.449 6.449 0 0 0 0-4.272 4.713 4.713 0 0 0-1.155-1.827 4.065 4.065 0 0 0-2.045-1.055 4.16 4.16 0 0 0-.845-.136 13.3 13.3 0 0 0-.791-.027h-6.4a.6.6 0 0 0-.6.6z" transform="translate(20.023 16)" style="fill:#474747"/>
    </g>
</svg>
