<svg xmlns="http://www.w3.org/2000/svg" width="24" height="16" viewBox="0 0 24 16">
    <path data-name="사각형 27727" style="fill:none" d="M0 0h24v16H0z"/>
    <path data-name="패스 21583" d="M6.75 0A3.679 3.679 0 0 0 3 3.6a3.666 3.666 0 0 0 1.115 2.559A3.815 3.815 0 0 0 6.75 7.2a3.8 3.8 0 0 0 .416-.04 3.965 3.965 0 0 0 .439-.06c.064-.015.124-.037.187-.055a3.752 3.752 0 0 0 2.66-2.979v-.045a3.75 3.75 0 0 0 .032-.533A3.676 3.676 0 0 0 6.75 0m0 5.8A2.281 2.281 0 0 1 4.4 3.6a2.281 2.281 0 0 1 2.35-2.2A2.281 2.281 0 0 1 9.1 3.6a2.281 2.281 0 0 1-2.35 2.2" transform="translate(5.256)" style="fill:#fff"/>
    <path data-name="패스 21584" d="M12.141 9.454A4.009 4.009 0 0 0 9.06 8H4.026a4.007 4.007 0 0 0-2.635 1A3.962 3.962 0 0 0 0 12a4.013 4.013 0 0 0 4.026 4H9.06a4.08 4.08 0 0 0 .648-.065 4.033 4.033 0 0 0 .919-.249c.1-.041.184-.1.279-.151a3.982 3.982 0 0 0 1-.707c.011-.01.018-.023.029-.034a3.936 3.936 0 0 0 .205-5.34M9.06 14.6H4.026a2.6 2.6 0 1 1 0-5.2H9.06a2.6 2.6 0 1 1 0 5.2" transform="translate(5.213)" style="fill:#fff"/>
    <path data-name="패스 21585" d="M11.38 1.316c.058 0 .113-.016.17-.016A2.382 2.382 0 0 1 14 3.6a2.382 2.382 0 0 1-2.45 2.3c-.067 0-.13-.014-.2-.019a4.785 4.785 0 0 1-.864 1.051 3.778 3.778 0 0 0 1.064.168 2.236 2.236 0 0 0 .28-.024c.042-.006.085-.012.127-.016h.033a3.694 3.694 0 0 0 .394-.06c.036-.008.073-.02.109-.031l.073-.023a3.665 3.665 0 0 0 2.589-2.9v-.041a3.641 3.641 0 0 0 .031-.521A3.561 3.561 0 0 0 11.55.1a3.744 3.744 0 0 0-1.01.153 4.662 4.662 0 0 1 .84 1.063" transform="translate(6.299)" style="opacity:.8;fill:#fff"/>
    <path data-name="패스 21587" d="M14.3 1.316c-.058 0-.113-.016-.17-.016a2.382 2.382 0 0 0-2.452 2.3 2.382 2.382 0 0 0 2.452 2.3c.067 0 .13-.014.2-.019a4.785 4.785 0 0 0 .864 1.051 3.778 3.778 0 0 1-1.062.168 2.236 2.236 0 0 1-.28-.024 2.753 2.753 0 0 0-.127-.016h-.033a3.694 3.694 0 0 1-.399-.06c-.036-.008-.073-.02-.109-.031l-.073-.023a3.665 3.665 0 0 1-2.589-2.9v-.041a3.641 3.641 0 0 1-.031-.521A3.561 3.561 0 0 1 14.127.1a3.744 3.744 0 0 1 1.01.153 4.662 4.662 0 0 0-.84 1.063" transform="translate(-7.976)" style="opacity:.8;fill:#fff"/>
    <path data-name="패스 21586" d="M13.37 8.814a5.247 5.247 0 0 1 .34.486h.09a2.7 2.7 0 0 1 0 5.4h-.055a5.111 5.111 0 0 1-.6.755l-.025.032-.05.049a4.388 4.388 0 0 1-.431.365H13.8a4.746 4.746 0 0 0 1.517-.306 1.2 1.2 0 0 0 .154-.083c.039-.022.078-.044.117-.064a3.9 3.9 0 0 0 .969-.689.246.246 0 0 1 .03-.035A3.882 3.882 0 0 0 17.7 12a3.948 3.948 0 0 0-3.9-3.9h-1.163a5.154 5.154 0 0 1 .733.715" transform="translate(6.299)" style="opacity:.8;fill:#fff"/>
    <path data-name="패스 21588" d="M16.968 8.814a5.248 5.248 0 0 0-.34.486h-.091a2.7 2.7 0 0 0 0 5.4h.055a5.111 5.111 0 0 0 .6.755l.025.032.05.049a4.388 4.388 0 0 0 .431.365h-1.161a4.746 4.746 0 0 1-1.517-.306 1.2 1.2 0 0 1-.154-.083c-.039-.022-.078-.044-.117-.064a3.9 3.9 0 0 1-.969-.689.246.246 0 0 0-.03-.035A3.882 3.882 0 0 1 12.637 12a3.948 3.948 0 0 1 3.9-3.9H17.7a5.154 5.154 0 0 0-.733.715" transform="translate(-12.637)" style="opacity:.8;fill:#fff"/>
</svg>
