<svg xmlns="http://www.w3.org/2000/svg" width="58" height="58" viewBox="0 0 58 58">
    <path data-name="사각형 27219" style="fill:none" d="M0 0h58v58H0z"/>
    <g data-name="그룹 47645">
        <path data-name="패스 29021" d="M30.169 13.52a4.8 4.8 0 0 1-2.162-2.459.85.85 0 0 0-1.629.341V25.8a3.964 3.964 0 0 0-2.4-.193 4.543 4.543 0 0 0-3.75 4.04 2.68 2.68 0 0 0 1 2.124 3.4 3.4 0 0 0 2.16.709 4.768 4.768 0 0 0 4.692-4.142c0-.077-.018-.149-.024-.225h.024V14.094a8.544 8.544 0 0 0 1.174.857c.95.609 1.523.976 1.523 3.373h1.7c0-3.088-.956-3.939-2.306-4.8m-6.197 17.187a2.029 2.029 0 0 1-1.678-.266.985.985 0 0 1-.372-.8 2.9 2.9 0 0 1 2.4-2.377 2.809 2.809 0 0 1 .586-.064 1.732 1.732 0 0 1 1.094.331.983.983 0 0 1 .371.8 2.9 2.9 0 0 1-2.4 2.378" transform="translate(12.763 13.263)" style="fill:#474747"/>
        <path data-name="패스 29022" d="m19.029.05-12.31 4.4a.85.85 0 0 0-.564.8v14.4a4 4 0 0 0-2.4-.2A4.537 4.537 0 0 0 0 23.487a2.681 2.681 0 0 0 1 2.124 3.405 3.405 0 0 0 2.16.709 4.536 4.536 0 0 0 .942-.1 4.548 4.548 0 0 0 3.751-4.041c0-.077-.018-.149-.024-.225h.024V10.242l10.612-3.789v8.791a3.963 3.963 0 0 0-2.4-.194 4.546 4.546 0 0 0-3.751 4.04 2.679 2.679 0 0 0 1 2.124 3.4 3.4 0 0 0 2.159.71 4.6 4.6 0 0 0 .942-.1 4.549 4.549 0 0 0 3.751-4.041c0-.078-.018-.15-.024-.226h.024V.85a.85.85 0 0 0-1.136-.8M3.751 24.556a2.033 2.033 0 0 1-1.679-.267.983.983 0 0 1-.372-.8 2.89 2.89 0 0 1 2.4-2.379 2.86 2.86 0 0 1 .584-.062 1.741 1.741 0 0 1 1.1.332.978.978 0 0 1 .369.8 2.941 2.941 0 0 1-2.4 2.378m12.31-4.4a2.03 2.03 0 0 1-1.679-.266.985.985 0 0 1-.372-.8A3.1 3.1 0 0 1 17 16.65a1.734 1.734 0 0 1 1.094.33.985.985 0 0 1 .371.8 2.9 2.9 0 0 1-2.4 2.377m2.4-15.511L7.856 8.437V5.846l10.609-3.79z" transform="translate(12.763 13.263)" style="fill:#474747"/>
    </g>
</svg>
