<svg width="24" height="24" viewBox="0 0 24 24" fill="none" xmlns="http://www.w3.org/2000/svg">
<path fill-rule="evenodd" clip-rule="evenodd" d="M3.75 6.5C3.75 4.98122 4.98122 3.75 6.5 3.75H17.5C19.0188 3.75 20.25 4.98122 20.25 6.5V17.5C20.25 19.0188 19.0188 20.25 17.5 20.25H6.5C4.98122 20.25 3.75 19.0188 3.75 17.5V6.5ZM6.5 5.25C5.80964 5.25 5.25 5.80964 5.25 6.5V14.8989L8.41953 11.0251C8.56289 10.8499 8.77773 10.7488 9.00412 10.75C9.23051 10.7513 9.44422 10.8547 9.58565 11.0315L13.0622 15.3772L14.9697 13.4697C15.1157 13.3236 15.3156 13.2443 15.522 13.2503C15.7285 13.2564 15.9233 13.3473 16.0606 13.5017L18.75 16.5273V6.5C18.75 5.80964 18.1904 5.25 17.5 5.25H6.5ZM5.25 17.5V17.2677L8.99345 12.6924L12.4143 16.9685C12.5476 17.1351 12.7455 17.2371 12.9585 17.2489C13.1715 17.2606 13.3795 17.1812 13.5303 17.0303L15.4679 15.0928L18.3889 18.3789C18.1623 18.608 17.8477 18.75 17.5 18.75H6.5C5.80964 18.75 5.25 18.1904 5.25 17.5ZM13.75 9C13.75 8.30964 14.3096 7.75 15 7.75C15.6904 7.75 16.25 8.30964 16.25 9C16.25 9.69036 15.6904 10.25 15 10.25C14.3096 10.25 13.75 9.69036 13.75 9ZM15 6.25C13.4812 6.25 12.25 7.48122 12.25 9C12.25 10.5188 13.4812 11.75 15 11.75C16.5188 11.75 17.75 10.5188 17.75 9C17.75 7.48122 16.5188 6.25 15 6.25Z" fill="#222222"/>
</svg>
