<svg width="24" height="24" viewBox="0 0 24 24" fill="none" xmlns="http://www.w3.org/2000/svg">
<rect width="24" height="24" rx="12" fill="white"/>
<path fill-rule="evenodd" clip-rule="evenodd" d="M17.6161 7.44451C17.909 7.15162 17.909 6.67675 17.6161 6.38385C17.3232 6.09096 16.8483 6.09096 16.5554 6.38385L12 10.9393L7.44451 6.38386C7.15162 6.09097 6.67675 6.09097 6.38385 6.38386C6.09096 6.67675 6.09096 7.15163 6.38385 7.44452L10.9393 12L6.38386 16.5554C6.09097 16.8483 6.09097 17.3232 6.38386 17.6161C6.67676 17.909 7.15163 17.909 7.44452 17.6161L12 13.0606L16.5554 17.6161C16.8483 17.909 17.3232 17.909 17.6161 17.6161C17.909 17.3232 17.909 16.8483 17.6161 16.5554L13.0606 12L17.6161 7.44451Z" fill="#222222"/>
</svg>
