<svg width="24" height="24" viewBox="0 0 24 24" fill="none" xmlns="http://www.w3.org/2000/svg">
<path fill-rule="evenodd" clip-rule="evenodd" d="M12.375 3.35048C12.1429 3.21651 11.857 3.21651 11.625 3.35048L4.69678 7.35048C4.46473 7.48446 4.32178 7.73205 4.32178 8V16C4.32178 16.2679 4.46473 16.5155 4.69678 16.6495L11.625 20.6495C11.857 20.7835 12.1429 20.7835 12.375 20.6495L19.3032 16.6495C19.5352 16.5155 19.6782 16.2679 19.6782 16V8C19.6782 7.73205 19.5352 7.48446 19.3032 7.35048L12.375 3.35048ZM11.25 5.29903L6.57178 8L11.25 10.701V10.125C11.25 9.71079 11.5858 9.375 12 9.375C12.4142 9.375 12.75 9.71079 12.75 10.125V10.701L17.4282 8L12.75 5.29905V6.375C12.75 6.78921 12.4142 7.125 12 7.125C11.5858 7.125 11.25 6.78921 11.25 6.375V5.29903ZM12.75 13.2557L13.2694 13.5354C13.6341 13.7317 14.089 13.5953 14.2854 13.2306C14.4817 12.8659 14.3453 12.411 13.9806 12.2146L13.5395 11.9772L18.1782 9.29904V14.4749L17.2306 13.9646C16.8659 13.7683 16.411 13.9047 16.2146 14.2694C16.0183 14.6341 16.1547 15.089 16.5194 15.2854L17.6301 15.8834L12.75 18.701V13.2557ZM10.4604 11.9772L10.0194 12.2146C9.65472 12.411 9.51827 12.8659 9.71465 13.2306C9.91103 13.5953 10.3659 13.7317 10.7306 13.5354L11.25 13.2557V18.701L6.36987 15.8834L7.48057 15.2854C7.84528 15.089 7.98173 14.6341 7.78535 14.2694C7.58897 13.9047 7.13413 13.7683 6.76943 13.9646L5.82178 14.4749V9.29904L10.4604 11.9772Z" fill="currentColor"/>
</svg>
