<svg xmlns="http://www.w3.org/2000/svg" width="58" height="58" viewBox="0 0 58 58">
    <defs>
        <filter id="yia4geg5aa" x="0" y="0" width="58" height="58" filterUnits="userSpaceOnUse">
            <feOffset dy="3"/>
            <feGaussianBlur stdDeviation="3" result="blur"/>
            <feFlood flood-opacity=".161"/>
            <feComposite operator="in" in2="blur"/>
            <feComposite in="SourceGraphic"/>
        </filter>
    </defs>
    <g style="filter:url(#yia4geg5aa)">
        <rect data-name="사각형 6" width="40" height="40" rx="10" transform="translate(9 6)" style="fill:#fff"/>
    </g>
    <g data-name="합치기 1" style="fill:none">
        <path d="M13 32a5 5 0 0 1 0-10h10a5 5 0 0 1 0 10zm0-15.5a4.771 4.771 0 0 1 5-4.5 4.771 4.771 0 0 1 5 4.5 4.77 4.77 0 0 1-5 4.5 4.77 4.77 0 0 1-5-4.5z" style="stroke:none" transform="translate(11 4)"/>
        <path d="M23 30c1.654 0 3-1.346 3-3s-1.346-3-3-3H13c-1.654 0-3 1.346-3 3s1.346 3 3 3h10m-5-11c1.654 0 3-1.122 3-2.5 0-1.379-1.346-2.5-3-2.5s-3 1.121-3 2.5c0 1.378 1.346 2.5 3 2.5m5 13H13a5 5 0 0 1 0-10h10a5 5 0 0 1 0 10zm-5-11c-2.761 0-5-2.014-5-4.5 0-2.485 2.239-4.5 5-4.5s5 2.015 5 4.5c0 2.486-2.239 4.5-5 4.5z" style="fill:#707070;stroke:none" transform="translate(11 4)"/>
    </g>
</svg>
