<svg xmlns="http://www.w3.org/2000/svg" width="24" height="24" viewBox="0 0 24 24" fill="none">
  <path fill-rule="evenodd" clip-rule="evenodd" d="M14 4.25C13.5858 4.25 13.25 4.58579 13.25 5C13.25 5.41421 13.5858 5.75 14 5.75H18.1893L12.4697 11.4697C12.1768 11.7626 12.1768 12.2374 12.4697 12.5303C12.7626 12.8232 13.2374 12.8232 13.5303 12.5303L19.25 6.81066V11C19.25 11.4142 19.5858 11.75 20 11.75C20.4142 11.75 20.75 11.4142 20.75 11V5C20.75 4.58579 20.4142 4.25 20 4.25H14ZM5 5.25C4.58579 5.25 4.25 5.58579 4.25 6V20C4.25 20.4142 4.58579 20.75 5 20.75H19C19.4142 20.75 19.75 20.4142 19.75 20V15C19.75 14.5858 19.4142 14.25 19 14.25C18.5858 14.25 18.25 14.5858 18.25 15V19.25H5.75V6.75H10C10.4142 6.75 10.75 6.41421 10.75 6C10.75 5.58579 10.4142 5.25 10 5.25H5Z" fill="currentColor"/>
</svg>
