<svg width="80" height="80" viewBox="0 0 80 80" fill="none" xmlns="http://www.w3.org/2000/svg">
<path fill-rule="evenodd" clip-rule="evenodd" d="M35.5 32.75C35.5 30.2647 37.5147 28.25 40 28.25C42.4853 28.25 44.5 30.2647 44.5 32.75C44.5 35.2353 42.4853 37.25 40 37.25C37.5147 37.25 35.5 35.2353 35.5 32.75ZM40 25.25C35.8579 25.25 32.5 28.6079 32.5 32.75C32.5 36.8921 35.8579 40.25 40 40.25C44.1421 40.25 47.5 36.8921 47.5 32.75C47.5 28.6079 44.1421 25.25 40 25.25ZM29.5 54.75C29.5 48.951 34.201 44.25 40 44.25C45.799 44.25 50.5 48.951 50.5 54.75H53.5C53.5 47.2942 47.4558 41.25 40 41.25C32.5442 41.25 26.5 47.2942 26.5 54.75H29.5Z" fill="#9F9F9F"/>
</svg>
