<svg xmlns="http://www.w3.org/2000/svg" width="24" height="24" viewBox="0 0 24 24" fill="none">
  <path fill-rule="evenodd" clip-rule="evenodd" d="M17.3106 4.90803C18.4654 4.41313 19.75 5.26018 19.75 6.51653V14.4835C19.75 15.7398 18.4654 16.5869 17.3106 16.092L11.8884 13.7681L12.7398 18.8767L12.8853 19.75H12H9H8.36465L8.2602 19.1233L7.36418 13.7472C5.63225 13.676 4.25 12.2494 4.25 10.5C4.25 8.70504 5.70507 7.24996 7.5 7.24996H11.8461L17.3106 4.90803ZM12.75 8.49454V12.5054L17.9015 14.7132C18.0665 14.7839 18.25 14.6629 18.25 14.4835V6.51653C18.25 6.33705 18.0665 6.21605 17.9015 6.28675L12.75 8.49454ZM11.25 8.74996H7.5C6.5335 8.74996 5.75 9.53347 5.75 10.5C5.75 11.4665 6.5335 12.25 7.5 12.25H11.25V8.74996ZM9.63535 18.25L8.88535 13.75H10.3647L11.1147 18.25H9.63535Z" fill="currentColor"/>
</svg>
