<svg
  width="16"
  height="16"
  viewBox="0 0 24 24"
  fill="none"
  xmlns="http://www.w3.org/2000/svg"
>
  <path
    fill-rule="evenodd"
    clip-rule="evenodd"
    d="M13.2197 10.779C13.5126 11.0719 13.9874 11.0719 14.2803 10.779L18.4987 6.56066V10.1879C18.4987 10.6021 18.8345 10.9379 19.2487 10.9379C19.6629 10.9379 19.9987 10.6021 19.9987 10.1879V4.75C19.9987 4.33579 19.6629 4 19.2487 4H13.8108C13.3965 4 13.0608 4.33579 13.0608 4.75C13.0608 5.16421 13.3965 5.5 13.8108 5.5H17.438L13.2197 9.71835C12.9268 10.0112 12.9268 10.4861 13.2197 10.779Z"
    fill="currentColor"
  />
  <path
    fill-rule="evenodd"
    clip-rule="evenodd"
    d="M10.779 13.2196C10.4861 12.9268 10.0112 12.9268 9.71833 13.2196L5.49998 17.438V13.8107C5.49998 13.3965 5.16419 13.0607 4.74998 13.0607C4.33576 13.0607 3.99998 13.3965 3.99998 13.8107V19.2487C3.99998 19.6629 4.33576 19.9987 4.74998 19.9987H10.1879C10.6021 19.9987 10.9379 19.6629 10.9379 19.2487C10.9379 18.8344 10.6021 18.4987 10.1879 18.4987H6.56064L10.779 14.2803C11.0719 13.9874 11.0719 13.5125 10.779 13.2196Z"
    fill="currentColor"
  />
</svg>
