<svg width="24" height="24" viewBox="0 0 24 24" fill="none" xmlns="http://www.w3.org/2000/svg">
<path fill-rule="evenodd" clip-rule="evenodd" d="M9 3.75C9.41421 3.75 9.75 4.08579 9.75 4.5V5.25H14.25V4.5C14.25 4.08579 14.5858 3.75 15 3.75C15.4142 3.75 15.75 4.08579 15.75 4.5V5.25H16C17.5188 5.25 18.75 6.48122 18.75 8V18C18.75 19.5188 17.5188 20.75 16 20.75H8C6.48122 20.75 5.25 19.5188 5.25 18V8C5.25 6.48122 6.48122 5.25 8 5.25H8.25V4.5C8.25 4.08579 8.58579 3.75 9 3.75ZM14.2927 6.75C14.3956 7.0413 14.6734 7.25 15 7.25C15.3266 7.25 15.6044 7.0413 15.7073 6.75H16C16.6904 6.75 17.25 7.30964 17.25 8V18C17.25 18.6904 16.6904 19.25 16 19.25H8C7.30964 19.25 6.75 18.6904 6.75 18V8C6.75 7.30964 7.30964 6.75 8 6.75H8.29268C8.39564 7.0413 8.67345 7.25 9 7.25C9.32655 7.25 9.60436 7.0413 9.70732 6.75H14.2927ZM9 9.25C8.58579 9.25 8.25 9.58579 8.25 10C8.25 10.4142 8.58579 10.75 9 10.75H12.5C12.9142 10.75 13.25 10.4142 13.25 10C13.25 9.58579 12.9142 9.25 12.5 9.25H9ZM9 12.25C8.58579 12.25 8.25 12.5858 8.25 13C8.25 13.4142 8.58579 13.75 9 13.75H15.5C15.9142 13.75 16.25 13.4142 16.25 13C16.25 12.5858 15.9142 12.25 15.5 12.25H9ZM8.25 16C8.25 15.5858 8.58579 15.25 9 15.25H12.5C12.9142 15.25 13.25 15.5858 13.25 16C13.25 16.4142 12.9142 16.75 12.5 16.75H9C8.58579 16.75 8.25 16.4142 8.25 16Z" fill="currentColor"/>
</svg>
