<svg
  width="24"
  height="24"
  viewBox="0 0 24 24"
  fill="none"
  xmlns="http://www.w3.org/2000/svg"
>
  <path
    fill-rule="evenodd"
    clip-rule="evenodd"
    d="M6.25 5C6.25 4.58579 6.58579 4.25 7 4.25H17C17.4142 4.25 17.75 4.58579 17.75 5V8.25H19C19.4142 8.25 19.75 8.58579 19.75 9V16C19.75 16.4142 19.4142 16.75 19 16.75H17.75V20C17.75 20.4142 17.4142 20.75 17 20.75H7C6.58579 20.75 6.25 20.4142 6.25 20V16.75H5C4.58579 16.75 4.25 16.4142 4.25 16V9C4.25 8.58579 4.58579 8.25 5 8.25H6.25V5ZM16.25 5.75V8.25H7.75V5.75H16.25ZM17.75 15.25H18.25V9.75H5.75V15.25H6.25V13C6.25 12.5858 6.58579 12.25 7 12.25H17C17.4142 12.25 17.75 12.5858 17.75 13V15.25ZM7.75 19.25V13.75H16.25V19.25H7.75ZM8 11C8 11.2761 7.77614 11.5 7.5 11.5C7.22386 11.5 7 11.2761 7 11C7 10.7239 7.22386 10.5 7.5 10.5C7.77614 10.5 8 10.7239 8 11ZM10 11C10 11.2761 9.77614 11.5 9.5 11.5C9.22386 11.5 9 11.2761 9 11C9 10.7239 9.22386 10.5 9.5 10.5C9.77614 10.5 10 10.7239 10 11ZM9.25 15.5C9.25 15.0858 9.58579 14.75 10 14.75H12.5C12.9142 14.75 13.25 15.0858 13.25 15.5C13.25 15.9142 12.9142 16.25 12.5 16.25H10C9.58579 16.25 9.25 15.9142 9.25 15.5ZM10 16.75C9.58579 16.75 9.25 17.0858 9.25 17.5C9.25 17.9142 9.58579 18.25 10 18.25H13.5C13.9142 18.25 14.25 17.9142 14.25 17.5C14.25 17.0858 13.9142 16.75 13.5 16.75H10Z"
    fill="currentColor"
  />
</svg>
