<svg width="24" height="24" viewBox="0 0 24 24" fill="none" xmlns="http://www.w3.org/2000/svg">
<path fill-rule="evenodd" clip-rule="evenodd" d="M5.76972 11.5C6.02444 8.282 8.71653 5.75 12 5.75C15.4518 5.75 18.25 8.54822 18.25 12C18.25 15.4518 15.4518 18.25 12 18.25C11.5858 18.25 11.25 18.5858 11.25 19C11.25 19.4142 11.5858 19.75 12 19.75C16.2802 19.75 19.75 16.2802 19.75 12C19.75 7.71979 16.2802 4.25 12 4.25C7.88777 4.25 4.52359 7.45281 4.26588 11.5H3.26796C2.88306 11.5 2.6425 11.9167 2.83495 12.25L4.567 15.25C4.75945 15.5833 5.24057 15.5833 5.43302 15.25L7.16507 12.25C7.35752 11.9167 7.11696 11.5 6.73206 11.5H5.76972Z" fill="#222222"/>
</svg>
