<svg width="24" height="24" viewBox="0 0 24 24" fill="none" xmlns="http://www.w3.org/2000/svg">
<path fill-rule="evenodd" clip-rule="evenodd" d="M6.5 2.75C6.08579 2.75 5.75 3.08579 5.75 3.5C5.75 3.91421 6.08579 4.25 6.5 4.25H17.5C17.9142 4.25 18.25 3.91421 18.25 3.5C18.25 3.08579 17.9142 2.75 17.5 2.75H6.5ZM3.25 7C3.25 6.0335 4.0335 5.25 5 5.25H19C19.9665 5.25 20.75 6.0335 20.75 7V11C20.75 11.8816 20.0981 12.611 19.25 12.7323V18.25H20C20.4142 18.25 20.75 18.5858 20.75 19C20.75 19.4142 20.4142 19.75 20 19.75H18.5H17C16.5858 19.75 16.25 19.4142 16.25 19C16.25 18.5858 16.5858 18.25 17 18.25H17.75V12.75H16.75V17C16.75 17.4142 16.4142 17.75 16 17.75H8C7.58579 17.75 7.25 17.4142 7.25 17V12.75H6.25V18.25H7C7.41421 18.25 7.75 18.5858 7.75 19C7.75 19.4142 7.41421 19.75 7 19.75H5.5H4C3.58579 19.75 3.25 19.4142 3.25 19C3.25 18.5858 3.58579 18.25 4 18.25H4.75V12.7323C3.90193 12.611 3.25 11.8816 3.25 11V7ZM18.5 11.25H16.75V9C16.75 8.58579 16.4142 8.25 16 8.25H8C7.58579 8.25 7.25 8.58579 7.25 9V11.25H5.5H5C4.86193 11.25 4.75 11.1381 4.75 11V7C4.75 6.86193 4.86193 6.75 5 6.75H19C19.1381 6.75 19.25 6.86193 19.25 7V11C19.25 11.1381 19.1381 11.25 19 11.25H18.5ZM8.75 9.75V16.25H15.25V9.75H8.75Z" fill="currentColor"/>
</svg>
