<svg width="24" height="24" viewBox="0 0 24 24" fill="none" xmlns="http://www.w3.org/2000/svg">
<path fill-rule="evenodd" clip-rule="evenodd" d="M11.25 4.75C11.25 4.33579 11.5858 4 12 4C12.4142 4 12.75 4.33579 12.75 4.75V14.9583L17.4362 10.2721C17.7291 9.97921 18.2039 9.97921 18.4968 10.2721C18.7897 10.565 18.7897 11.0399 18.4968 11.3328L12.5303 17.2993C12.2374 17.5922 11.7626 17.5922 11.4697 17.2993L5.50316 11.3328C5.21026 11.0399 5.21026 10.565 5.50316 10.2721C5.79605 9.97921 6.27092 9.97921 6.56382 10.2721L11.25 14.9583V4.75ZM5 19.4803C4.58579 19.4803 4.25 19.8161 4.25 20.2303C4.25 20.6445 4.58579 20.9803 5 20.9803H19C19.4142 20.9803 19.75 20.6445 19.75 20.2303C19.75 19.8161 19.4142 19.4803 19 19.4803H5Z" fill="white"/>
</svg>
