<svg xmlns="http://www.w3.org/2000/svg" width="20" height="20" viewBox="0 0 20 20">
    <g transform="translate(640.7 1471.452)">
        <circle data-name="타원 86" cx="10" cy="10" r="10" transform="translate(-640.7 -1471.452)" style="fill:#4c4c4c"/>
        <path data-name="패스 2459" d="m-603.954-1417.8-2.878-2.863 2.85-2.844.325-.327-.325-.327-.417-.421-.361-.369-.361.369-2.815 2.808-2.771-2.764-.361-.369-.361.369-.417.421-.325.328.325.327 2.807 2.8-2.835 2.819-.325.327.325.327.416.42.018.019.02.017.382.31.322-.353 2.782-2.775 2.825 2.819.322.353.382-.31.02-.017.018-.019.415-.42.325-.327z" transform="translate(-22.786 -40.786)" style="fill:#f8fafb"/>
    </g>
</svg>
