<svg xmlns="http://www.w3.org/2000/svg" width="24" height="24" viewBox="0 0 24 24" fill="none">
  <path fill-rule="evenodd" clip-rule="evenodd" d="M8 3.25C6.48122 3.25 5.25 4.48122 5.25 6V19C5.25 20.5188 6.48122 21.75 8 21.75H16C17.5188 21.75 18.75 20.5188 18.75 19V17.6886C19.1746 17.5037 19.5001 17.0905 19.5001 16.5429V15.5H19.75C20.7165 15.5 21.5 14.7165 21.5 13.75V9.75C21.5 8.7835 20.7165 8 19.75 8H18.75V6C18.75 4.48122 17.5188 3.25 16 3.25H8ZM17.25 8V6C17.25 5.30964 16.6904 4.75 16 4.75H8C7.30964 4.75 6.75 5.30964 6.75 6V19C6.75 19.6904 7.30964 20.25 8 20.25H16C16.6904 20.25 17.25 19.6904 17.25 19V17.3105L15.4395 15.5H12.75C11.7835 15.5 11 14.7165 11 13.75V9.75C11 8.7835 11.7835 8 12.75 8H17.25ZM9 6.5C9 6.22386 9.22386 6 9.5 6H14.5C14.7761 6 15 6.22386 15 6.5C15 6.77614 14.7761 7 14.5 7H9.5C9.22386 7 9 6.77614 9 6.5ZM12.75 9.5C12.6119 9.5 12.5 9.61193 12.5 9.75V13.75C12.5 13.8881 12.6119 14 12.75 14H15.7501H16.0608L16.2805 14.2197L18.0001 15.9393V14.75V14H18.7501H19.75C19.8881 14 20 13.8881 20 13.75V9.75C20 9.61193 19.8881 9.5 19.75 9.5H12.75ZM15 11.75C15 12.1642 14.6642 12.5 14.25 12.5C13.8358 12.5 13.5 12.1642 13.5 11.75C13.5 11.3358 13.8358 11 14.25 11C14.6642 11 15 11.3358 15 11.75ZM17 11.75C17 12.1642 16.6642 12.5 16.25 12.5C15.8358 12.5 15.5 12.1642 15.5 11.75C15.5 11.3358 15.8358 11 16.25 11C16.6642 11 17 11.3358 17 11.75ZM18.25 12.5C18.6642 12.5 19 12.1642 19 11.75C19 11.3358 18.6642 11 18.25 11C17.8358 11 17.5 11.3358 17.5 11.75C17.5 12.1642 17.8358 12.5 18.25 12.5Z" fill="currentColor"/>
</svg>
