<svg width="24" height="24" viewBox="0 0 24 24" fill="none" xmlns="http://www.w3.org/2000/svg">
<path fill-rule="evenodd" clip-rule="evenodd" d="M6 3.25C4.48122 3.25 3.25 4.48122 3.25 6V18C3.25 19.5188 4.48122 20.75 6 20.75H18C19.5188 20.75 20.75 19.5188 20.75 18V6C20.75 4.48122 19.5188 3.25 18 3.25H6ZM4.75 6C4.75 5.30964 5.30964 4.75 6 4.75H18C18.6904 4.75 19.25 5.30964 19.25 6V18C19.25 18.6904 18.6904 19.25 18 19.25H6C5.30964 19.25 4.75 18.6904 4.75 18V6ZM9.5 13.75C9.5 13.3358 9.16421 13 8.75 13C8.33579 13 8 13.3358 8 13.75V16.25C8 16.6642 8.33579 17 8.75 17C9.16421 17 9.5 16.6642 9.5 16.25V13.75ZM11.75 9C12.1642 9 12.5 9.33579 12.5 9.75V16.25C12.5 16.6642 12.1642 17 11.75 17C11.3358 17 11 16.6642 11 16.25V9.75C11 9.33579 11.3358 9 11.75 9ZM15.5 11.75C15.5 11.3358 15.1642 11 14.75 11C14.3358 11 14 11.3358 14 11.75V16.25C14 16.6642 14.3358 17 14.75 17C15.1642 17 15.5 16.6642 15.5 16.25V11.75Z" fill="currentColor"/>
</svg>
