<svg xmlns="http://www.w3.org/2000/svg" width="62" height="62" viewBox="0 0 62 62">
    <defs>
        <clipPath id="o5rrhfl3xa">
            <path data-name="사각형 20240" transform="translate(316 1746)" style="stroke:#707070;fill:#fff" d="M0 0h62v62H0z"/>
        </clipPath>
        <clipPath id="gtue7aaq3b">
            <path data-name="사각형 27746" style="fill:none" d="M0 0h54.53v48.611H0z"/>
        </clipPath>
    </defs>
    <g data-name="tit-icon" style="clip-path:url(#o5rrhfl3xa)" transform="translate(-316 -1746)">
        <g data-name="그룹 48994">
            <g data-name="그룹 48990" transform="translate(319.735 1752.694)" style="clip-path:url(#gtue7aaq3b)">
                <path data-name="패스 29079" d="M56.779 8.07 64.033.816 66.3 3.085c1 1 .188 3.439-1.814 5.441s-4.439 2.815-5.44 1.813z" transform="translate(-20.033 -.288)" style="fill-rule:evenodd;fill:#fff"/>
                <path data-name="패스 29080" d="M56.654 7.944a.1.1 0 0 0 0 .142l2.269 2.269a2.02 2.02 0 0 0 1.861.4 7.722 7.722 0 0 0 3.721-2.212 7.722 7.722 0 0 0 2.212-3.723 2.017 2.017 0 0 0-.4-1.86.1.1 0 0 1-.071.17l.071-.17L64.049.691a.1.1 0 0 0-.141 0zM66.177 3.1a1.825 1.825 0 0 1 .343 1.681A7.52 7.52 0 0 1 64.364 8.4a7.523 7.523 0 0 1-3.618 2.156 1.825 1.825 0 0 1-1.681-.343l-2.2-2.2L63.979.9z" transform="translate(-19.979 -.233)" style="fill:#182142;fill-rule:evenodd"/>
                <path data-name="패스 29081" d="M58.359 2.4c2-2 4.439-2.815 5.44-1.813s.188 3.438-1.813 5.44-4.44 2.815-5.441 1.813-.188-3.44 1.814-5.44" transform="translate(-19.799 -.054)" style="fill-rule:evenodd;fill:#fff"/>
                <path data-name="패스 29082" d="M58.235 2.271a7.722 7.722 0 0 0-2.212 3.721 2.019 2.019 0 0 0 .4 1.86 2.019 2.019 0 0 0 1.861.4A7.722 7.722 0 0 0 62 6.039a7.722 7.722 0 0 0 2.212-3.721 2.019 2.019 0 0 0-.4-1.861 2.019 2.019 0 0 0-1.86-.4 7.722 7.722 0 0 0-3.721 2.212m.141.141A7.52 7.52 0 0 1 61.994.255 1.825 1.825 0 0 1 63.675.6a1.825 1.825 0 0 1 .343 1.681A7.523 7.523 0 0 1 61.862 5.9a7.523 7.523 0 0 1-3.618 2.156 1.825 1.825 0 0 1-1.681-.343 1.825 1.825 0 0 1-.343-1.681 7.52 7.52 0 0 1 2.156-3.618" transform="translate(-19.745)" style="fill:#182142;fill-rule:evenodd"/>
                <path data-name="패스 29083" d="M60.371 4.408c1-1 2.22-1.407 2.72-.907s.094 1.72-.907 2.72-2.22 1.407-2.72.907-.094-1.719.907-2.72" transform="translate(-20.905 -1.16)" style="fill:#182142;fill-rule:evenodd"/>
                <path data-name="패스 29084" d="M60.247 4.284a3.906 3.906 0 0 0-1.12 1.887 1.056 1.056 0 0 0 .212.975 1.059 1.059 0 0 0 .975.213A3.911 3.911 0 0 0 62.2 6.238a3.911 3.911 0 0 0 1.12-1.887 1.059 1.059 0 0 0-.213-.975 1.056 1.056 0 0 0-.975-.212 3.906 3.906 0 0 0-1.887 1.12m.141.141A3.712 3.712 0 0 1 62.17 3.36a.865.865 0 0 1 .8.158.865.865 0 0 1 .158.8A3.717 3.717 0 0 1 62.06 6.1a3.717 3.717 0 0 1-1.783 1.065.865.865 0 0 1-.8-.158.865.865 0 0 1-.158-.8 3.712 3.712 0 0 1 1.065-1.782" transform="translate(-20.851 -1.106)" style="fill:#182142;fill-rule:evenodd"/>
                <path data-name="패스 29085" d="M38.959 40.815 14.8 16.656c8.362 1.43 18.9-20.256 31.51-7.647s-8.781 23.445-7.351 31.805" transform="translate(-5.222 -1.782)" style="fill:#cfe5f8;fill-rule:evenodd"/>
                <path data-name="패스 29086" d="M38.834 40.831a.1.1 0 0 0 .17-.087 8 8 0 0 1 1.414-5.24c1.626-2.8 4.284-5.8 6.439-9 2.169-3.218 3.827-6.631 3.44-10.215a12.351 12.351 0 0 0-3.97-7.408l-.071.17.071-.17c-2.543-2.543-5-3.7-7.378-3.939-3.556-.359-6.925 1.344-10.1 3.558-3.151 2.2-6.111 4.9-8.877 6.557-1.822 1.09-3.558 1.727-5.208 1.444a.1.1 0 0 0-.087.17zm7.35-31.806a12.165 12.165 0 0 1 3.916 7.289c.382 3.539-1.265 6.9-3.407 10.082-2.157 3.2-4.818 6.208-6.446 9.006a8.557 8.557 0 0 0-1.48 5.076L15.028 16.742a8.371 8.371 0 0 0 5.047-1.511c2.769-1.657 5.733-4.362 8.889-6.564 3.136-2.186 6.453-3.877 9.964-3.523 2.336.236 4.755 1.38 7.257 3.882m0 0 .071.029a.1.1 0 0 1-.071-.029" transform="translate(-5.168 -1.728)" style="fill:#182142;fill-rule:evenodd"/>
                <path data-name="패스 29087" d="M4.953 22.83c2.883-2.883 11.747 1.3 19.781 9.332s12.215 16.9 9.332 19.781l-3.39 3.389-3.483-3.483c-3.793-1.549-8.477-4.807-12.908-9.238S6.595 33.5 5.046 29.7l-3.483-3.48z" transform="translate(-.551 -7.733)" style="fill-rule:evenodd;fill:#fff"/>
                <path data-name="패스 29088" d="m4.828 22.7-3.389 3.39a.1.1 0 0 0 0 .141L4.907 29.7c1.555 3.8 4.818 8.488 9.253 12.923s9.123 7.7 12.922 9.253l3.469 3.469a.1.1 0 0 0 .142 0l3.389-3.39-.071.03.071-.03a3.541 3.541 0 0 0 .937-2.46 10.041 10.041 0 0 0-.639-3.537c-1.356-3.957-4.8-9.092-9.63-13.925s-9.967-8.274-13.925-9.631a10.058 10.058 0 0 0-3.537-.639 3.546 3.546 0 0 0-2.461.937l.071.171zm29.113 29.118-3.319 3.319-3.412-3.412a.1.1 0 0 0-.033-.022c-3.784-1.544-8.455-4.8-12.876-9.217s-7.672-9.092-9.216-12.875a.105.105 0 0 0-.022-.033L1.65 26.165l3.32-3.318a3.348 3.348 0 0 1 2.33-.879 9.868 9.868 0 0 1 3.466.628c3.936 1.349 9.04 4.776 13.848 9.583s8.234 9.912 9.583 13.848a9.853 9.853 0 0 1 .628 3.466 3.349 3.349 0 0 1-.879 2.326" transform="translate(-.497 -7.679)" style="fill:#182142;fill-rule:evenodd"/>
                <path data-name="패스 29089" d="M1.066 28.067c2.884-2.883 11.748 1.3 19.781 9.332S33.063 54.3 30.179 57.18s-11.747-1.3-19.781-9.332-12.215-16.9-9.332-19.781m2.57 2.57c2.374-2.374 9.673 1.069 16.289 7.685s10.06 13.915 7.685 16.289-9.673-1.069-16.289-7.685-10.06-13.915-7.685-16.289" transform="translate(-.054 -9.581)" style="fill-rule:evenodd;fill:#fff"/>
                <path data-name="패스 29090" d="M.941 27.943A3.542 3.542 0 0 0 0 30.4a10.061 10.061 0 0 0 .639 3.538C2 37.9 5.44 43.032 10.273 47.866S20.24 56.14 24.2 57.5a10.056 10.056 0 0 0 3.537.639 3.218 3.218 0 0 0 3.4-3.4 10.056 10.056 0 0 0-.639-3.537c-1.356-3.957-4.8-9.092-9.631-13.925S10.9 29 6.939 27.645a10.061 10.061 0 0 0-3.539-.639 3.544 3.544 0 0 0-2.46.937m.141.141a3.351 3.351 0 0 1 2.327-.878 9.868 9.868 0 0 1 3.466.628c3.936 1.349 9.04 4.776 13.848 9.583s8.233 9.912 9.583 13.848a9.867 9.867 0 0 1 .628 3.465 3.021 3.021 0 0 1-3.205 3.205 9.853 9.853 0 0 1-3.465-.628c-3.937-1.349-9.04-4.775-13.848-9.583S2.181 37.812.832 33.876A9.856 9.856 0 0 1 .2 30.411a3.354 3.354 0 0 1 .878-2.327m2.429 2.429a2.932 2.932 0 0 0-.777 2.037 8.3 8.3 0 0 0 .53 2.92c1.118 3.261 3.952 7.491 7.935 11.473s8.213 6.817 11.474 7.935a8.292 8.292 0 0 0 2.919.527A2.666 2.666 0 0 0 28.4 52.59a8.3 8.3 0 0 0-.527-2.919c-1.118-3.26-3.952-7.491-7.934-11.473s-8.21-6.818-11.471-7.936a8.307 8.307 0 0 0-2.919-.527 2.932 2.932 0 0 0-2.037.777m.141.141a2.744 2.744 0 0 1 1.9-.718 8.09 8.09 0 0 1 2.847.516c3.24 1.11 7.44 3.93 11.4 7.886s6.777 8.157 7.887 11.4a8.105 8.105 0 0 1 .516 2.848 2.47 2.47 0 0 1-2.622 2.615 8.105 8.105 0 0 1-2.848-.516c-3.239-1.111-7.439-3.93-11.4-7.887S4.56 38.645 3.45 35.4a8.092 8.092 0 0 1-.516-2.847 2.744 2.744 0 0 1 .718-1.9" transform="translate(0 -9.527)" style="fill:#182142;fill-rule:evenodd"/>
                <path data-name="패스 29091" d="M5.125 32.126C7.5 29.751 14.8 33.195 21.413 39.81S31.473 53.725 29.1 56.1s-9.673-1.069-16.289-7.685S2.75 34.5 5.125 32.126" transform="translate(-1.543 -11.07)" style="fill:#182142;fill-rule:evenodd"/>
                <path data-name="패스 29092" d="M5 32a2.932 2.932 0 0 0-.777 2.037 8.3 8.3 0 0 0 .527 2.919c1.118 3.261 3.952 7.491 7.935 11.473s8.213 6.817 11.474 7.935a8.292 8.292 0 0 0 2.919.527 2.666 2.666 0 0 0 2.815-2.815 8.3 8.3 0 0 0-.527-2.919c-1.118-3.26-3.952-7.491-7.934-11.473s-8.213-6.817-11.474-7.935a8.307 8.307 0 0 0-2.919-.527A2.932 2.932 0 0 0 5 32m.141.141a2.744 2.744 0 0 1 1.9-.718 8.089 8.089 0 0 1 2.847.516c3.24 1.11 7.44 3.93 11.4 7.886s6.777 8.157 7.887 11.4a8.105 8.105 0 0 1 .516 2.848 2.47 2.47 0 0 1-2.622 2.622 8.105 8.105 0 0 1-2.848-.516c-3.239-1.111-7.439-3.93-11.4-7.887s-6.777-8.157-7.886-11.4a8.092 8.092 0 0 1-.516-2.847 2.744 2.744 0 0 1 .718-1.9" transform="translate(-1.488 -11.016)" style="fill:#182142;fill-rule:evenodd"/>
                <path data-name="패스 29093" d="M31.965 49.167c.8.956 1.521 1.909 2.163 2.841l-4.741 7.326c-.054.07-.1.144-.16.21a1.68 1.68 0 0 1-2.921-1.295 1.687 1.687 0 0 1 .135-.508c.036-.08.083-.155.126-.232z" transform="translate(-9.279 -17.347)" style="fill-rule:evenodd;fill:#fff"/>
                <path data-name="패스 29094" d="M31.987 49.048a.1.1 0 0 0-.16.01l-5.4 8.341v.007c-.043.08-.093.156-.129.239a1.787 1.787 0 0 0-.143.538 1.78 1.78 0 0 0 3.1 1.372c.06-.067.11-.144.165-.216v-.006l4.741-7.326a.1.1 0 0 0 0-.111 39.342 39.342 0 0 0-2.169-2.848m-.067.232c.745.9 1.425 1.8 2.033 2.675l-4.7 7.266c-.051.067-.1.138-.153.2a1.58 1.58 0 0 1-2.754-1.221 1.592 1.592 0 0 1 .127-.478c.034-.076.08-.148.12-.221z" transform="translate(-9.224 -17.293)" style="fill:#182142;fill-rule:evenodd"/>
                <path data-name="패스 29095" d="M23.983 52.946a6.838 6.838 0 1 1-2.222 12.7l-.025-.014a6.768 6.768 0 0 1-1.457-1.109 6.836 6.836 0 0 1 3.7-11.578" transform="translate(-6.449 -18.648)" style="fill-rule:evenodd;fill:#fff"/>
                <path data-name="패스 29096" d="M23.911 52.793a6.936 6.936 0 0 0-2.28 12.873l.025.014a6.938 6.938 0 1 0 2.255-12.887m.033.2a6.738 6.738 0 1 1-2.189 12.516l-.025-.014a6.64 6.64 0 0 1-1.435-1.095 6.735 6.735 0 0 1 3.649-11.41z" transform="translate(-6.394 -18.593)" style="fill:#182142;fill-rule:evenodd"/>
                <path data-name="패스 29097" d="M54.661 37.114c-1.391-.883-2.435-2.653-2.937-5.131-1.063-5.253-.843-10.623 4.8-14.538a5.848 5.848 0 0 1 5.376-1.012c4.033 7.667-2.9 14.612-7.239 20.681" transform="translate(-18.073 -5.698)" style="fill:#182142;fill-rule:evenodd"/>
                <path data-name="패스 29098" d="M54.553 37.144a.1.1 0 0 0 .135-.026c2.174-3.038 4.995-6.3 6.768-9.756 1.786-3.483 2.51-7.167.476-11.03a.1.1 0 0 0-.054-.048 5.947 5.947 0 0 0-5.466 1.024c-5.68 3.943-5.909 9.35-4.839 14.64.508 2.51 1.571 4.3 2.981 5.195m.028-.22c-1.333-.887-2.328-2.618-2.813-5.014-1.055-5.216-.843-10.55 4.757-14.437a5.767 5.767 0 0 1 5.248-1.013c1.978 3.787 1.256 7.4-.5 10.812s-4.536 6.644-6.7 9.653" transform="translate(-18.019 -5.643)" style="fill:#182142;fill-rule:evenodd"/>
                <path data-name="패스 29099" d="M66.331 18.169c4.693-2.347 8.5.647 8.5 6.681s-3.81 12.837-8.5 15.183-8.5-.647-8.5-6.681 3.81-12.837 8.5-15.183" transform="translate(-20.403 -6.128)" style="fill:#66a1d8;fill-rule:evenodd"/>
                <path data-name="패스 29100" d="M66.232 18.025c-4.721 2.36-8.558 9.2-8.558 15.272 0 3.055.971 5.337 2.529 6.562s3.73 1.4 6.118.208c4.721-2.36 8.558-9.2 8.558-15.273 0-3.054-.971-5.337-2.53-6.561s-3.729-1.4-6.117-.208m.089.179c2.3-1.153 4.393-1 5.9.187s2.453 3.426 2.453 6.4c0 6-3.783 12.762-8.447 15.094-2.3 1.152-4.393 1-5.9-.187s-2.453-3.426-2.453-6.4c0-6 3.783-12.761 8.448-15.093" transform="translate(-20.349 -6.074)" style="fill:#182142;fill-rule:evenodd"/>
                <path data-name="패스 29101" d="m59.553 39.559-2.868-1.434c-2-1-3.289-3.481-3.289-6.989 0-6.033 3.81-12.837 8.5-15.183a5.723 5.723 0 0 1 5.213-.309l2.869 1.434a5.726 5.726 0 0 0-5.214.309c-4.693 2.347-8.5 9.15-8.5 15.183 0 3.508 1.288 5.988 3.289 6.989" transform="translate(-18.839 -5.347)" style="fill-rule:evenodd;fill:#fff"/>
                <path data-name="패스 29102" d="M69.919 17.124a.091.091 0 0 1-.039-.01 5.629 5.629 0 0 0-5.124.309c-4.665 2.332-8.448 9.1-8.448 15.093 0 3.461 1.26 5.913 3.234 6.9a.1.1 0 0 1-.089.179l-2.868-1.435a.1.1 0 0 0 .045.01.107.107 0 0 1-.045-.01c-2.028-1.014-3.344-3.523-3.344-7.079 0-6.07 3.836-12.912 8.558-15.272a5.818 5.818 0 0 1 5.3-.309l-.045.189s.093-.177.1-.108a.1.1 0 0 0-.054-.081l2.868 1.434a.1.1 0 0 1-.04.189h-.01zm-2.906-1.444 1.657.828a6.465 6.465 0 0 0-4 .735c-4.721 2.36-8.558 9.2-8.558 15.272 0 2.84.84 5.013 2.211 6.289l-1.645-.823c-1.973-.987-3.233-3.439-3.233-6.9 0-6 3.783-12.761 8.447-15.093a5.629 5.629 0 0 1 5.124-.309zM56.63 38.17s-.052-.19-.072-.168c-.08.085.07.167.072.168m10.527-22.58c0 .023-.1.1-.1.1a.1.1 0 0 0 .1-.077.086.086 0 0 0 0-.023m-.1.1s-.1-.123-.1-.1a.1.1 0 0 0 .071.093zm.1-.1zm0 0z" transform="translate(-18.785 -5.292)" style="fill:#182142;fill-rule:evenodd"/>
                <path data-name="패스 29103" d="M71.489 24.378a2 2 0 0 1 .842-.951c.589-.294 1.067.081 1.067.838a2.3 2.3 0 0 1-.225.955 2.529 2.529 0 0 1-.126.238l-6.56 12.362a1.983 1.983 0 0 1-.823.911.672.672 0 0 1-.784-.05l-3.229-2.919a.632.632 0 0 1-.11-.1 1.1 1.1 0 0 1-.227-.733 2.284 2.284 0 0 1 1.067-1.905.675.675 0 0 1 .767.036.462.462 0 0 1 .038.034l2.49 2.246z" transform="translate(-21.631 -8.23)" style="fill:#182142;fill-rule:evenodd"/>
                <path data-name="패스 29104" d="m71.345 24.279-5.758 10.842-2.393-2.159-.042-.038a.772.772 0 0 0-.874-.047 2.394 2.394 0 0 0-1.122 1.995 1.2 1.2 0 0 0 .252.8.757.757 0 0 0 .122.111l3.223 2.917a.767.767 0 0 0 .9.065 2.084 2.084 0 0 0 .867-.955l6.558-12.358a2.607 2.607 0 0 0 .13-.245l-.089.053.091-.058a2.4 2.4 0 0 0 .234-1 1.1 1.1 0 0 0-.351-.892.776.776 0 0 0-.861-.036 2.1 2.1 0 0 0-.887 1m-6.528 14.394v.054h-.009.008c-.026-.023-.14-.131-.042-.184.018-.01.032.071.04.129m.006.058h-.01zm8.206-13.6a2.55 2.55 0 0 1-.122.228l-6.56 12.362a1.874 1.874 0 0 1-.779.865.578.578 0 0 1-.673-.035l-3.229-2.919-.009-.008a.53.53 0 0 1-.093-.083 1 1 0 0 1-.2-.667 2.173 2.173 0 0 1 1.012-1.815.582.582 0 0 1 .659.023.1.1 0 0 0 .063.023.1.1 0 0 1-.063-.023l.031.028 2.49 2.246a.1.1 0 0 0 .155-.027l5.819-10.958a1.9 1.9 0 0 1 .8-.9.587.587 0 0 1 .648.014.907.907 0 0 1 .274.735 2.2 2.2 0 0 1-.215.911M66.44 37.868l-.047-.188c.047-.025.047.188.047.188m-.013 0zm-.006 0zm-.006 0zm-.006 0zm-.006 0zm-.006 0zm-.005 0zm-.006 0zm-.005 0zm0 0zm0 0zm0 0zm0-.005zm0 0zm0-.006zm0-.005zm0-.006zm0-.006zm0-.006zm0-.006zm0-.006zm0-.006zm0-.006zm0-.006zm0-.006zm0-.006zm0-.006zm0-.006zm0-.006zm0-.006zM61.48 35.7s-.069-.178-.084-.154zm1.674-2.776c.023.02-.065.17-.067.174l.087-.052a.379.379 0 0 1-.087.052.1.1 0 0 0 .094-.066.1.1 0 0 0-.027-.108m-.067.174s-.073-.173-.087-.149zm10.12-7.889-.089.053a.1.1 0 0 0 .089-.053m-.179-.088a.087.087 0 0 0-.009.034.1.1 0 0 0 .016.061.1.1 0 0 0 .084.046.105.105 0 0 1-.045-.01.1.1 0 0 1-.039-.036.1.1 0 0 1-.016-.061.107.107 0 0 1 .009-.034zm.091.141s-.1-.037-.1-.107a.115.115 0 0 1 .009-.036c.013-.025.086.142.088.147m-1.69-.843zm-.006 0zm-.006 0zm-.006 0zm-.006 0zm-.006 0zm-.006 0zm0 0zm0 0zm-.006 0zm-.005 0zm0 0zm-.005 0zm0 0zm0-.005zm0-.005zm0-.005zm0-.006zm0-.006zm0-.006zm0-.006zm0-.006zm0-.006zm0-.006zm0-.006zm0-.006zm0-.006zm0-.006zm0-.006zm0-.006zm0-.006zm0-.006z" transform="translate(-21.576 -8.176)" style="fill:#182142;fill-rule:evenodd"/>
                <path data-name="패스 29105" d="M73.711 25.489a2 2 0 0 1 .842-.951c.589-.294 1.067.081 1.067.838a2.3 2.3 0 0 1-.225.955 2.527 2.527 0 0 1-.126.238l-6.56 12.362a1.98 1.98 0 0 1-.823.911.672.672 0 0 1-.784-.05l-3.229-2.919a.632.632 0 0 1-.11-.1 1.1 1.1 0 0 1-.227-.733 2.284 2.284 0 0 1 1.064-1.909.675.675 0 0 1 .767.036.46.46 0 0 1 .038.034l2.49 2.246z" transform="translate(-22.415 -8.622)" style="fill-rule:evenodd;fill:#fff"/>
                <path data-name="패스 29106" d="m73.567 25.39-5.758 10.842-2.393-2.159-.042-.038a.772.772 0 0 0-.874-.047 2.394 2.394 0 0 0-1.122 1.995 1.2 1.2 0 0 0 .252.8.757.757 0 0 0 .122.111l3.225 2.916a.767.767 0 0 0 .9.065 2.084 2.084 0 0 0 .867-.955L75.3 26.564a2.609 2.609 0 0 0 .13-.245l-.089.053.091-.058a2.4 2.4 0 0 0 .234-1 1.1 1.1 0 0 0-.351-.892.775.775 0 0 0-.861-.036 2.1 2.1 0 0 0-.887 1m-6.521 14.451zm-.006-.058v.054h-.009.008c-.026-.023-.14-.131-.043-.184.019-.01.033.071.041.129m.006.058h-.01zm8.206-13.6a2.391 2.391 0 0 1-.122.228l-6.56 12.362a1.878 1.878 0 0 1-.779.865.578.578 0 0 1-.673-.035l-3.236-2.916-.009-.008a.53.53 0 0 1-.093-.083 1 1 0 0 1-.2-.667 2.174 2.174 0 0 1 1.012-1.815.583.583 0 0 1 .659.023.1.1 0 0 0 .063.023.1.1 0 0 1-.063-.023l.031.028 2.49 2.246a.1.1 0 0 0 .084.025.1.1 0 0 0 .071-.052l5.819-10.958v-.005a1.9 1.9 0 0 1 .8-.9.587.587 0 0 1 .648.014.907.907 0 0 1 .274.735 2.213 2.213 0 0 1-.215.911M68.656 38.977l-.047-.188c.047-.025.047.188.047.188m-.013 0zm-.006 0zm-.006 0zm-.006 0zm-.006 0zm-.006 0zm-.005 0zm-.006 0zm-.005 0zm0 0zm0 0zm0 0zm0-.005zm0 0zm0-.006zm0-.005zm0-.006zm0-.006zm0-.006zm0-.006zm0-.006zm0-.006zm0-.006zm0-.006zm0-.006zm0-.006zm0-.006zm0-.006zm0-.006zm0-.006zM63.7 36.815s-.069-.178-.084-.154zm1.674-2.777c.023.021-.065.171-.067.175l.087-.052a.4.4 0 0 1-.087.052.1.1 0 0 0 .067-.175m-.067.175s-.073-.173-.087-.149zm10.12-7.889-.089.053a.1.1 0 0 0 .089-.053m-.179-.088a.087.087 0 0 0-.009.034.1.1 0 0 0 .016.061.1.1 0 0 0 .084.046.105.105 0 0 1-.045-.01.1.1 0 0 1-.039-.036.1.1 0 0 1-.016-.061.116.116 0 0 1 .009-.035zm.091.141s-.1-.037-.1-.107a.116.116 0 0 1 .009-.035c.013-.025.086.142.088.147m-1.69-.843zm-.006 0zm-.006 0zm-.006 0zm-.006 0zm-.006 0zm-.006 0zm0 0zm0 0zm-.006 0zm-.005 0zm0 0zm-.005 0zm0 0zm0 0zm0-.006zm0-.005zm0-.006zm0-.006zm0-.006zm0-.006zm0-.006zm0-.006zm0-.006zm0-.006zm0-.006zm0-.006zm0-.006zm0-.006zm0-.006zm0-.006zm0-.006z" transform="translate(-22.36 -8.568)" style="fill:#182142;fill-rule:evenodd"/>
                <path data-name="패스 29107" d="m66.683 39.608-1-.5a.585.585 0 0 1-.13-.089L62.324 36.1a.605.605 0 0 1-.109-.1 1.094 1.094 0 0 1-.228-.733 2.284 2.284 0 0 1 1.067-1.905.711.711 0 0 1 .672-.03l.95.476a.736.736 0 0 0-.617.056 2.284 2.284 0 0 0-1.067 1.905 1.1 1.1 0 0 0 .228.733.628.628 0 0 0 .109.1l3.229 2.919a.581.581 0 0 0 .13.089m-.2-4.209 5.674-10.685a2 2 0 0 1 .838-.953.717.717 0 0 1 .654-.039l1.005.5a.716.716 0 0 0-.654.039 2 2 0 0 0-.843.951l-5.819 10.96z" transform="translate(-21.867 -8.349)" style="fill-rule:evenodd;fill:#fff"/>
                <path data-name="패스 29108" d="M66.623 39.652h.006a.1.1 0 0 0 .1-.077.1.1 0 0 0 0-.056.1.1 0 0 0-.046-.047.484.484 0 0 1-.108-.074l-3.229-2.919-.009-.007a.559.559 0 0 1-.092-.083 1 1 0 0 1-.2-.667 2.175 2.175 0 0 1 1.012-1.816.638.638 0 0 1 .535-.052h.034a.1.1 0 0 0 .094-.132v-.006a.1.1 0 0 0-.046-.047l-.949-.476a.809.809 0 0 0-.762.029 2.4 2.4 0 0 0-1.122 2 1.2 1.2 0 0 0 .252.8.728.728 0 0 0 .122.111l3.225 2.916a.684.684 0 0 0 .153.1.1.1 0 0 0 .045.011.1.1 0 0 1-.045-.011l1 .5a.091.091 0 0 0 .039.01m-.126-.089zm-.778-.544a.1.1 0 0 1 0 .054.1.1 0 0 1-.1.077.1.1 0 0 0 .1-.077.1.1 0 0 0 0-.054m-2.1-5.658.544.272a1.061 1.061 0 0 0-.21.081 2.392 2.392 0 0 0-1.122 1.995 1.192 1.192 0 0 0 .252.8.7.7 0 0 0 .122.111l2.733 2.473-.278-.139a.5.5 0 0 1-.109-.074l-3.229-2.919-.009-.008a.53.53 0 0 1-.093-.083 1 1 0 0 1-.2-.667 2.175 2.175 0 0 1 1.012-1.816.616.616 0 0 1 .58-.032zm1.877 5.7zM65.487 39v.054h-.009.008c-.026-.023-.14-.131-.043-.184.019-.01.033.071.041.129m.006.058h-.01zm.225-.046zm-2.562-2.474-.085-.153c.016-.025.084.152.085.153M74.6 24.272h.006a.1.1 0 0 0 .091-.059.15.15 0 0 0 .006-.018.1.1 0 0 0-.053-.112l-1-.5a.816.816 0 0 0-.744.039 2.1 2.1 0 0 0-.887 1L66.342 35.3a.1.1 0 0 0 .021.121l.859.776a.1.1 0 0 0 .085.024.1.1 0 0 0 .071-.052L73.2 25.208a1.9 1.9 0 0 1 .8-.9.621.621 0 0 1 .565-.039.1.1 0 0 0 .039.01M62.15 36.039s-.069-.178-.084-.153zm11.406-12.28.562.281a1.147 1.147 0 0 0-.212.081 2.108 2.108 0 0 0-.887 1L67.261 35.96l-.706-.637 5.638-10.616a1.9 1.9 0 0 1 .8-.9.621.621 0 0 1 .563-.048zm-9.8 9.48c.008.026-.094.131-.1.132a.1.1 0 0 0 .1-.077.1.1 0 0 0 0-.055m-.047-.056-.048.188c0-.006.058-.214.091-.142a.1.1 0 0 0-.043-.046m.046.052zm0 0zm9.345-7.974zm-.006 0zm-.006 0zm-.006 0zm-.006 0zm-.006 0zm-.006 0zm0 0zm0 0zm-.005 0zm-.005 0zm-.005 0zm0 0zm0-.005zm0 0zm0-.005zm0-.006zm0-.006zm0-.006zm0-.006zm0-.006zm0-.006zm0-.006zm0-.006zm0-.006zm0-.006zm0-.006zm0-.006zm0-.006zm0-.006zm0-.006zm0-.006zm-.92-.361zm-.006 0zm-.006 0zm-.006 0zm-.006 0zm-.006 0zm-.006 0zm0 0zm0 0zm-.006 0zm-.005 0zm0 0zm-.005 0zm0 0zm0 0zm0-.005zm0-.006zm0-.006zm0-.006zm0-.006zm0-.006zm0-.006zm0-.006zm0-.006zm0-.006zm0-.006zm0-.006zm0-.006zm0-.006zm0-.006zm0-.006zm0-.006zm1.615-.966-.028.118zm-.028.118s-.071-.176-.086-.151c-.057.1.085.151.086.151" transform="translate(-21.813 -8.294)" style="fill:#182142;fill-rule:evenodd"/>
            </g>
        </g>
    </g>
</svg>
