<svg xmlns="http://www.w3.org/2000/svg" width="62" height="62" viewBox="0 0 62 62">
    <defs>
        <clipPath id="gs5xpwqwea">
            <path data-name="사각형 27745" style="fill:none" d="M0 0h46.029v52.794H0z"/>
        </clipPath>
    </defs>
    <path data-name="사각형 20239" style="fill:none" d="M0 0h62v62H0z"/>
    <g data-name="그룹 48992">
        <g data-name="그룹 48988" transform="translate(7.985 4.603)" style="clip-path:url(#gs5xpwqwea)">
            <path data-name="패스 29069" d="M23.407 52.41a.918.918 0 0 1-.8-.345.787.787 0 0 1-.087-.736c.649-1.928 3.057-4.773 5.181-7.283a35.385 35.385 0 0 0 3.1-3.969 19.783 19.783 0 0 1-2.09-.551c-4.7-1.519-10.216-6.256-14.752-12.669C9.471 20.515 6.794 13.8 6.794 8.886c0-.958 1.5-1.828 5.473-3.893 1.509-.785 3.07-1.6 4.344-2.378A13.275 13.275 0 0 1 23.559.742a17.735 17.735 0 0 1 5.273.844C38.787 4.7 46.985 15.735 47.108 26.2c.065 5.563-2.188 10.1-6.191 12.483-.878 3.8-5.506 7.429-8.227 9.276-3.619 2.456-7.783 4.454-9.283 4.454z" transform="translate(-1.643 -.179)" style="fill:#bababa"/>
            <path data-name="패스 29070" d="M23.379 1.126a17.142 17.142 0 0 1 5.1.818C38.234 4.99 46.24 15.771 46.36 26.024c.067 5.666-2.316 9.953-6.128 12.116-1.189 6.417-14.588 13.528-17.01 13.528-.3 0-.43-.108-.353-.338 1.175-3.491 8.818-10.6 8.418-11.877a19 19 0 0 1-2.59-.641c-9.876-3.191-21.526-20-21.526-30.1 0-1.1 5.926-3.57 9.549-5.79a12.615 12.615 0 0 1 6.654-1.791m0-1.126a13.827 13.827 0 0 0-7.242 1.957c-1.257.77-2.809 1.577-4.309 2.357C7.718 6.45 6.051 7.371 6.051 8.707c0 5.023 2.716 11.862 7.266 18.3a46.8 46.8 0 0 0 7.112 8.025 23.213 23.213 0 0 0 7.927 4.854c.448.145.9.274 1.358.387-.628.88-1.74 2.193-2.62 3.234-2.158 2.548-4.6 5.437-5.286 7.468a1.361 1.361 0 0 0 .164 1.243 1.453 1.453 0 0 0 1.256.579c1.622 0 5.839-2 9.6-4.552 3.333-2.262 7.416-5.685 8.4-9.381 4.054-2.522 6.33-7.174 6.263-12.85a26.824 26.824 0 0 0-5.55-15.4A26.683 26.683 0 0 0 28.82.87 18.279 18.279 0 0 0 23.379 0" transform="translate(-1.463)" style="fill:#003e6e"/>
            <path data-name="패스 29071" d="M21.89 53.824a1.154 1.154 0 0 1-1.008-.427.993.993 0 0 1-.1-.938 11.282 11.282 0 0 0 .548-6.444 19.622 19.622 0 0 1-2.318-.6C8.939 42.164.743 31.12.743 20.8A14.648 14.648 0 0 1 4.45 10.513a12.74 12.74 0 0 1 9.414-3.878 17.706 17.706 0 0 1 5.272.844c9.955 3.109 18.153 14.15 18.276 24.611.065 5.561-2.187 10.093-6.188 12.481-1.218 5.764-7.039 9.253-9.334 9.253z" transform="translate(-.18 -1.604)" style="fill:#fff"/>
            <path data-name="패스 29072" d="M13.685 7.018a17.142 17.142 0 0 1 5.1.818c9.755 3.047 17.761 13.828 17.88 24.081.067 5.666-2.315 9.952-6.127 12.115-1.069 5.771-6.911 9.049-8.833 9.049-.478 0-.713-.2-.572-.622a11.452 11.452 0 0 0 .459-7.115 19.033 19.033 0 0 1-2.59-.642c-9.871-3.19-17.876-13.971-17.876-24.08 0-8.269 5.292-13.6 12.559-13.6m0-1.126a13.3 13.3 0 0 0-9.824 4.051A15.2 15.2 0 0 0 0 20.622a26.151 26.151 0 0 0 5.459 15.306 27.306 27.306 0 0 0 13.2 9.846 20.521 20.521 0 0 0 2.023.541 11.305 11.305 0 0 1-.613 5.786 1.546 1.546 0 0 0 .174 1.444 1.688 1.688 0 0 0 1.465.662c1.4 0 3.591-1.055 5.46-2.625a12.864 12.864 0 0 0 4.372-6.836c4.049-2.524 6.32-7.172 6.253-12.844a26.827 26.827 0 0 0-5.549-15.4 26.681 26.681 0 0 0-13.119-9.74 18.274 18.274 0 0 0-5.44-.87" transform="translate(0 -1.425)" style="fill:#003e6e"/>
            <path data-name="패스 29073" d="M15.236 33.633a2.664 2.664 0 0 1-.809-.13c-1.731-.552-3.092-2.717-3.1-4.929a3.68 3.68 0 0 1 .943-2.645 2.312 2.312 0 0 1 1.667-.7 2.67 2.67 0 0 1 .8.129c1.728.547 3.089 2.711 3.1 4.927a3.678 3.678 0 0 1-.939 2.649 2.309 2.309 0 0 1-1.666.7" transform="translate(-2.74 -6.101)" style="fill:#65c4ee"/>
            <path data-name="패스 29074" d="M13.76 25.611a2.1 2.1 0 0 1 .633.1c1.486.471 2.7 2.437 2.706 4.393.008 1.667-.863 2.785-2.042 2.785a2.109 2.109 0 0 1-.638-.1c-1.49-.475-2.7-2.442-2.706-4.394 0-1.664.868-2.782 2.047-2.782m0-1.126a2.9 2.9 0 0 0-2.065.867 4.228 4.228 0 0 0-1.108 3.046c.007 2.442 1.539 4.842 3.489 5.463a3.214 3.214 0 0 0 .98.157 2.9 2.9 0 0 0 2.064-.867 4.231 4.231 0 0 0 1.1-3.049c-.011-2.445-1.544-4.844-3.491-5.461a3.237 3.237 0 0 0-.973-.155" transform="translate(-2.56 -5.921)" style="fill:#003e6e"/>
            <path data-name="패스 29075" d="M24.551 36.6a2.655 2.655 0 0 1-.807-.13c-1.731-.552-3.095-2.721-3.105-4.937a3.685 3.685 0 0 1 .94-2.657 2.306 2.306 0 0 1 1.663-.7 2.655 2.655 0 0 1 .8.128c1.727.547 3.092 2.716 3.107 4.936a3.683 3.683 0 0 1-.936 2.66 2.3 2.3 0 0 1-1.662.7" transform="translate(-4.991 -6.814)" style="fill:#65c4ee"/>
            <path data-name="패스 29076" d="M23.062 28.557a2.081 2.081 0 0 1 .631.1c1.486.472 2.7 2.442 2.714 4.4.011 1.672-.857 2.795-2.036 2.795a2.094 2.094 0 0 1-.636-.1c-1.49-.475-2.7-2.447-2.714-4.4-.008-1.67.862-2.792 2.041-2.792m0-1.126A2.894 2.894 0 0 0 21 28.3a4.24 4.24 0 0 0-1.1 3.057c.012 2.445 1.548 4.848 3.5 5.47a3.231 3.231 0 0 0 .979.157 2.889 2.889 0 0 0 2.061-.867 4.238 4.238 0 0 0 1.1-3.061c-.017-2.45-1.554-4.852-3.5-5.469a3.223 3.223 0 0 0-.971-.155" transform="translate(-4.811 -6.634)" style="fill:#003e6e"/>
            <path data-name="패스 29077" d="M33.866 39.565a2.645 2.645 0 0 1-.806-.13c-1.73-.551-3.1-2.723-3.114-4.945a3.7 3.7 0 0 1 .937-2.669 2.3 2.3 0 0 1 1.66-.7 2.649 2.649 0 0 1 .8.128c1.726.547 3.095 2.72 3.115 4.945a3.693 3.693 0 0 1-.933 2.671 2.294 2.294 0 0 1-1.659.7" transform="translate(-7.242 -7.526)" style="fill:#65c4ee"/>
            <path data-name="패스 29078" d="M32.364 31.5a2.067 2.067 0 0 1 .629.1c1.486.471 2.705 2.447 2.723 4.413.015 1.678-.85 2.8-2.029 2.8a2.1 2.1 0 0 1-.635-.1c-1.489-.475-2.707-2.45-2.722-4.413-.012-1.676.856-2.8 2.035-2.8m0-1.126a2.885 2.885 0 0 0-2.06.868 4.247 4.247 0 0 0-1.1 3.068c.018 2.451 1.558 4.857 3.506 5.478a3.2 3.2 0 0 0 .977.156 2.881 2.881 0 0 0 2.058-.867 4.243 4.243 0 0 0 1.1-3.072c-.022-2.454-1.563-4.86-3.508-5.477a3.207 3.207 0 0 0-.969-.154" transform="translate(-7.062 -7.347)" style="fill:#003e6e"/>
        </g>
    </g>
</svg>
