<svg xmlns="http://www.w3.org/2000/svg" width="24" height="24" viewBox="0 0 24 24" fill="none">
  <path fill-rule="evenodd" clip-rule="evenodd" d="M9.5 9C9.5 7.75736 10.5074 6.75 11.75 6.75C12.9926 6.75 14 7.75736 14 9C14 10.2426 12.9926 11.25 11.75 11.25C10.5074 11.25 9.5 10.2426 9.5 9ZM11.75 5.25C9.67893 5.25 8 6.92893 8 9C8 11.0711 9.67893 12.75 11.75 12.75C13.8211 12.75 15.5 11.0711 15.5 9C15.5 6.92893 13.8211 5.25 11.75 5.25ZM6.5 20C6.5 17.1005 8.85051 14.75 11.75 14.75C14.6495 14.75 17 17.1005 17 20H18.5C18.5 16.2721 15.4779 13.25 11.75 13.25C8.02208 13.25 5 16.2721 5 20H6.5Z" fill="#222222"/>
  <circle cx="19.5" cy="9.5" r="2.5" stroke="#222222" stroke-width="1.5"/>
  <circle cx="2.5" cy="2.5" r="2.5" transform="matrix(-1 0 0 1 7 7)" stroke="#222222" stroke-width="1.5"/>
  <path d="M23 17.5C23 15.567 21.433 14 19.5 14C18.7564 14 18.0669 14.2319 17.5 14.6273" stroke="#222222" stroke-width="1.5"/>
  <path d="M1 17.5C1 15.567 2.567 14 4.5 14C5.24362 14 5.93308 14.2319 6.5 14.6273" stroke="#222222" stroke-width="1.5"/>
</svg>
