<svg
  width="24"
  height="24"
  viewBox="0 0 24 24"
  fill="none"
  xmlns="http://www.w3.org/2000/svg"
>
  <path
    d="M18.6153 10.5453H17.6405C17.3521 10.5453 16.8345 10.4653 16.7228 10.1658C16.6432 9.9536 16.7112 9.34627 17.0173 9.04007L17.7067 8.35068C17.8568 8.2006 17.8568 7.95652 17.7067 7.80657L16.1935 6.29339C16.0491 6.14894 15.7936 6.14894 15.6494 6.29339L14.96 6.98278C14.7691 7.17368 14.4558 7.39661 14.2008 7.39661C14.1441 7.39661 14.0913 7.38561 14.0442 7.36431C13.8375 7.27044 13.4551 6.79272 13.4551 6.35978V5.38481C13.4551 5.17261 13.2825 4.99997 13.0703 4.99997H10.9303C10.7181 4.99997 10.5454 5.17259 10.5454 5.38481V6.35978C10.5454 6.64798 10.4656 7.16542 10.1661 7.27772C10.1107 7.29834 10.0406 7.30837 9.95171 7.30837C9.73387 7.30837 9.29698 7.24006 9.04052 6.98333L8.35114 6.29395C8.20655 6.1495 7.95106 6.1495 7.80688 6.29395L6.2937 7.80712C6.22155 7.87928 6.18169 7.97603 6.18169 8.07925C6.18169 8.1826 6.22155 8.27922 6.2937 8.35137L6.98309 9.04076C7.18677 9.24444 7.49628 9.66636 7.36462 9.95624C7.2702 10.1636 6.79232 10.5456 6.35995 10.5456H5.38484C5.17264 10.5456 5 10.7182 5 10.9304V13.0701C5 13.2823 5.17262 13.455 5.38484 13.455H6.36009C6.64843 13.455 7.16587 13.5348 7.27775 13.8343C7.35719 14.0468 7.28902 14.6537 6.98309 14.9596L6.2937 15.649C6.22155 15.7211 6.18169 15.8179 6.18169 15.9211C6.18169 16.0245 6.22155 16.1211 6.2937 16.1932L7.80688 17.7064C7.95133 17.8509 8.20681 17.8509 8.35099 17.7064L9.04038 17.0172C9.23101 16.8264 9.54435 16.6033 9.79958 16.6033C9.85634 16.6033 9.90897 16.6141 9.95598 16.6355C10.1632 16.7299 10.5453 17.2075 10.5453 17.64V18.615C10.5453 18.8272 10.7179 18.9998 10.9301 18.9998H13.07C13.2822 18.9998 13.4548 18.8272 13.4548 18.615V17.64C13.4548 17.3517 13.5347 16.8342 13.8342 16.7224C13.8893 16.7017 13.9594 16.6917 14.0481 16.6917C14.266 16.6917 14.7029 16.7602 14.9596 17.017L15.649 17.7064C15.7936 17.8509 16.0491 17.8509 16.1933 17.7064L17.7064 16.1932C17.8565 16.0432 17.8565 15.7991 17.7064 15.649L17.0172 14.9597C16.8135 14.7559 16.504 14.3338 16.6357 14.0443C16.7298 13.837 17.2077 13.4549 17.6402 13.4549H18.6152C18.8274 13.4549 19 13.2823 19 13.0701V10.9301C19.0001 10.7179 18.8274 10.5453 18.6153 10.5453ZM12.0001 14.4784C10.6334 14.4784 9.52141 13.3665 9.52141 11.9998C9.52141 10.6331 10.6334 9.52113 12.0001 9.52113C13.3667 9.52113 14.4787 10.6331 14.4787 11.9998C14.4787 13.3665 13.3667 14.4784 12.0001 14.4784Z"
    fill="currentColor"
  />
</svg>
