<svg width="40" height="40" viewBox="0 0 40 40" fill="none" xmlns="http://www.w3.org/2000/svg">
<path fill-rule="evenodd" clip-rule="evenodd" d="M9.58301 17.4993C9.58301 12.2066 13.8736 7.91602 19.1663 7.91602C24.4591 7.91602 28.7497 12.2066 28.7497 17.4993C28.7497 20.2173 27.6198 22.6692 25.8008 24.4148C24.0778 26.0684 21.7418 27.0827 19.1663 27.0827C13.8736 27.0827 9.58301 22.7921 9.58301 17.4993ZM19.1663 5.41602C12.4929 5.41602 7.08301 10.8259 7.08301 17.4993C7.08301 24.1728 12.4929 29.5827 19.1663 29.5827C21.971 29.5827 24.5542 28.6259 26.6045 27.0226L32.1317 32.5499C32.6199 33.0381 33.4114 33.0381 33.8995 32.5499C34.3877 32.0617 34.3877 31.2703 33.8995 30.7821L28.4051 25.2877C30.179 23.1852 31.2497 20.4665 31.2497 17.4993C31.2497 10.8259 25.8398 5.41602 19.1663 5.41602ZM19.1663 22.9163C18.476 22.9163 17.9163 22.3567 17.9163 21.6663V18.7497H14.9997C14.3093 18.7497 13.7497 18.19 13.7497 17.4997C13.7497 16.8093 14.3093 16.2497 14.9997 16.2497H17.9163V13.333C17.9163 12.6427 18.476 12.083 19.1663 12.083C19.8567 12.083 20.4163 12.6427 20.4163 13.333V16.2497H23.333C24.0234 16.2497 24.583 16.8093 24.583 17.4997C24.583 18.19 24.0234 18.7497 23.333 18.7497H20.4163V21.6663C20.4163 22.3567 19.8567 22.9163 19.1663 22.9163Z" fill="white"/>
</svg>
