<svg data-name="그룹 492" xmlns="http://www.w3.org/2000/svg" width="56" height="56" viewBox="0 0 56 56">
    <defs>
        <clipPath id="5bz742d8ua">
            <path data-name="사각형 348" style="fill:none" d="M0 0h31.914v31.914H0z"/>
        </clipPath>
    </defs>
    <circle data-name="타원 67" cx="28" cy="28" r="28" style="fill:#e3e3e3"/>
    <g data-name="그룹 487">
        <g data-name="그룹 486" transform="translate(12.238 12.238)" style="clip-path:url(#5bz742d8ua)">
            <path data-name="패스 1425" d="M20.473 36.4a10.116 10.116 0 0 1-2.768-.4 20.041 20.041 0 0 1-6.056-3.3 35.888 35.888 0 0 1-4.273-3.62A36.847 36.847 0 0 1 3.7 24.754 20.023 20.023 0 0 1 .4 18.7a9.234 9.234 0 0 1 .091-5.644c.647-1.776 2.634-4.489 5.223-4.215 2.107.224 3.759 2.111 4.6 3.8a3.625 3.625 0 0 1 .367 2.824 4.3 4.3 0 0 1-1.354 1.75 5.153 5.153 0 0 0-.785.808 2.6 2.6 0 0 0 .158 2.8 19.9 19.9 0 0 0 6.878 6.877 2.6 2.6 0 0 0 2.8.159 5.132 5.132 0 0 0 .808-.785 4.3 4.3 0 0 1 1.749-1.354 3.628 3.628 0 0 1 2.824.367c1.692.843 3.579 2.494 3.8 4.6.274 2.586-2.44 4.576-4.215 5.223a8.408 8.408 0 0 1-2.876.487M5.354 10.293c-1.563 0-2.988 1.908-3.483 3.265a7.758 7.758 0 0 0-.058 4.735 18.756 18.756 0 0 0 3.079 5.595 35.332 35.332 0 0 0 3.526 4.15 34.433 34.433 0 0 0 4.1 3.473 18.768 18.768 0 0 0 5.6 3.08 7.754 7.754 0 0 0 4.735-.058c1.415-.516 3.428-2.044 3.254-3.684-.151-1.42-1.613-2.75-3-3.44a2.254 2.254 0 0 0-1.687-.293 3.06 3.06 0 0 0-1.133.946 6.33 6.33 0 0 1-1.06 1.008 4 4 0 0 1-4.415-.109 21.362 21.362 0 0 1-7.368-7.369 4 4 0 0 1-.109-4.414 6.31 6.31 0 0 1 1.008-1.06 3.069 3.069 0 0 0 .946-1.132 2.258 2.258 0 0 0-.295-1.686c-.689-1.383-2.02-2.844-3.44-3a1.969 1.969 0 0 0-.2-.01" transform="translate(0 -4.489)" style="fill:#464646"/>
            <path data-name="패스 1426" d="M14.714 23.455a.734.734 0 0 1-.521-.216l-.982-.982a.737.737 0 1 1 1.042-1.042l.982.982a.737.737 0 0 1-.521 1.258" transform="translate(-6.614 -10.689)" style="fill:#464646"/>
            <path data-name="패스 1427" d="M40.714 49.455a.734.734 0 0 1-.521-.216l-.982-.982a.737.737 0 0 1 1.042-1.042l.982.982a.737.737 0 0 1-.521 1.258" transform="translate(-19.848 -23.922)" style="fill:#464646"/>
            <path data-name="패스 1428" d="M42.16 20.185a.737.737 0 0 1-.671-1.04A12.52 12.52 0 0 0 24.927 2.582a.736.736 0 1 1-.607-1.342 13.993 13.993 0 0 1 18.512 18.512.737.737 0 0 1-.672.433" transform="translate(-12.158)" style="fill:#464646"/>
            <path data-name="패스 1429" d="M42.311 21.426a.75.75 0 0 1-.123-.01.737.737 0 0 1-.6-.849 7.32 7.32 0 0 0-8.488-8.482.736.736 0 1 1-.245-1.452 8.791 8.791 0 0 1 10.179 10.18.736.736 0 0 1-.725.614" transform="translate(-16.411 -5.344)" style="fill:#464646"/>
        </g>
    </g>
</svg>
