<svg data-name="그룹 490" xmlns="http://www.w3.org/2000/svg" width="56" height="56" viewBox="0 0 56 56">
    <defs>
        <clipPath id="49tj45bz1a">
            <path data-name="사각형 349" style="fill:none" d="M0 0h33.613v33.613H0z"/>
        </clipPath>
    </defs>
    <circle data-name="타원 66" cx="28" cy="28" r="28" style="fill:#e3e3e3"/>
    <g data-name="그룹 489">
        <g data-name="그룹 488" transform="translate(11.194 11.194)" style="clip-path:url(#49tj45bz1a)">
            <path data-name="패스 1430" d="M10.621 19.689a9 9 0 0 1-4.93-1.464.777.777 0 0 0-.684-.082l-2.954 1.046L3.1 16.235a.775.775 0 0 0-.081-.683 9.065 9.065 0 1 1 16.672-4.93.777.777 0 1 0 1.554 0A10.621 10.621 0 1 0 1.508 16.07L.045 20.207a.777.777 0 0 0 .992.992l4.135-1.465a10.554 10.554 0 0 0 5.45 1.51.777.777 0 0 0 0-1.554" transform="translate(-.201 -.201)" style="fill:#464646"/>
            <path data-name="패스 1431" d="M16.6 11.909a4.334 4.334 0 0 0-4.2 4.451 4.334 4.334 0 0 0 4.2 4.451c.085 0 .168-.008.252-.013a.772.772 0 0 0 .178.058l2.278.414a.808.808 0 0 0 .14.012.777.777 0 0 0 .138-1.541l-.223-.041a4.556 4.556 0 0 0 1.431-3.34 4.334 4.334 0 0 0-4.194-4.451m0 7.348a2.781 2.781 0 0 1-2.64-2.9 2.781 2.781 0 0 1 2.64-2.9 2.781 2.781 0 0 1 2.64 2.9 2.781 2.781 0 0 1-2.64 2.9" transform="translate(-6.178 -5.94)" style="fill:#464646"/>
            <path data-name="패스 1432" d="M43.733 40.071a10.634 10.634 0 1 0-3.662 3.662l4.135 1.467a.777.777 0 0 0 .992-.992zm-1.591.165 1.047 2.952-2.953-1.046a.777.777 0 0 0-.684.082 9.079 9.079 0 1 1 2.672-2.672.776.776 0 0 0-.082.684" transform="translate(-11.766 -11.766)" style="fill:#464646"/>
            <path data-name="패스 1433" d="M41.775 36.487v-.006a.882.882 0 0 0-.045-.085c-.01-.017-.017-.035-.027-.051s-.031-.037-.046-.055a.717.717 0 0 0-.05-.061c-.01-.01-.023-.018-.034-.027a.741.741 0 0 0-.083-.068c-.011-.007-.024-.012-.036-.019a.743.743 0 0 0-.1-.053h-.005c-.015-.006-.031-.008-.046-.013a.739.739 0 0 0-.095-.028.653.653 0 0 0-.07-.008.473.473 0 0 0-.159 0 .639.639 0 0 0-.07.008.739.739 0 0 0-.095.028c-.016 0-.031.007-.046.013h-.005a.835.835 0 0 0-.1.052c-.011.007-.025.012-.036.02a.775.775 0 0 0-.079.064c-.012.011-.027.02-.038.032l-.045.054c-.015.018-.036.04-.051.063s-.017.033-.026.048a.705.705 0 0 0-.046.088v.006l-2.927 7.254a.778.778 0 0 0 1.442.582l.849-2.1h2.714l.849 2.1a.778.778 0 0 0 1.442-.582zm-1.451 4.177.73-1.809.73 1.809z" transform="translate(-18.199 -17.55)" style="fill:#464646"/>
        </g>
    </g>
</svg>
