<svg xmlns="http://www.w3.org/2000/svg" width="118" height="72" viewBox="0 0 118 72">
    <defs>
        <clipPath id="lzuhsbdlva">
            <path data-name="사각형 259" style="fill:none" d="M0 0h118v72H0z"/>
        </clipPath>
    </defs>
    <g data-name="그룹 356" style="clip-path:url(#lzuhsbdlva)">
        <path data-name="패스 1386" d="M47.011 28.916C31.5 23.563 18.708 14.322 20.953 7.674 22.8 2.223 32.748.346 44.935 2.529c.657-.141 1.46-.3 2.264-.45C31.458-1.673 18.29-.305 16.176 5.854c-2.394 6.977 10.273 17.527 28.5 23.921z" transform="translate(6.221)" style="fill:#00347d"/>
        <path data-name="패스 1387" d="m55.834 7.277.051-.021c-.271-.119-.529-.235-.792-.353a9.304 9.304 0 0 0-.387-.19l-.008.014A81.684 81.684 0 0 0 49.921 4.8l-2.446.545a33.554 33.554 0 0 1 5.589 2.335C62.8 12.963 70.215 20.871 68.49 25.943 67 30.364 60.162 32.437 51.127 31.9a13.883 13.883 0 0 1-2.509.912c13.263 2.267 23.744.55 25.624-4.9 1.9-5.531-6.069-14.415-18.407-20.639" transform="translate(18.592 1.771)" style="fill:#00347d"/>
        <path data-name="패스 1388" d="M51.863 15.111c-9.246-5.474-11.141-5.749-7.854-8.685a31.152 31.152 0 0 0-7.95 9.085s7.808 3.888 10.777 6.621a3.994 3.994 0 0 1 1.014 3.435c-.615 2.221-3.121 4.638-9.775 4.669 0 0 9.734 2.619 16.023-.153 6.3-2.783 7-9.5-2.235-14.971" transform="translate(14.121 2.372)" style="fill:#00347d"/>
        <path data-name="패스 1389" d="M60.282 1.849 42.924.887l4.933 1.784A41.5 41.5 0 0 0 30.2 12.966l2.884 1.634c4.583-5.457 12.871-11.65 27.2-12.746" transform="translate(11.827 .327)" style="fill:#f38200"/>
        <path data-name="패스 1390" d="m32.714 14.51 3.929 2.217a28.728 28.728 0 0 1 2.757-4.042c3.216-3.97 8.846-8.635 18.226-10.616C50.584 2.829 40 5.536 32.714 14.51" transform="translate(12.811 .764)" style="fill:#f38200"/>
        <path data-name="패스 1391" d="M36.725 35.19v.016a1.576 1.576 0 0 0 0 3.138v.015h2.213V43.2h-2.213v.011a1.576 1.576 0 0 0 0 3.139v.014h17.456V43.2h-3.8v-4.841h3.8V35.19zm10.437 8.01h-5v-4.841h5z" transform="translate(13.821 12.988)" style="fill:#00347d"/>
        <path data-name="패스 1392" d="M52.916 47.039v.016a1.519 1.519 0 0 0 0 3.024v.021H73.2v-3.06z" transform="translate(20.183 17.361)" style="fill:#00347d"/>
        <path data-name="패스 1393" d="M56.466 47.451h14.849v-3.06H56.779a1.036 1.036 0 0 1-1.088-1.068v-4.2a1.038 1.038 0 0 1 1.088-1.069h14.536v-3.063H56.466a3.85 3.85 0 0 0-3.881 3.827v4.814a3.85 3.85 0 0 0 3.881 3.82" transform="translate(20.593 12.915)" style="fill:#00347d"/>
        <path data-name="패스 1394" d="M34.307 49.4h-4.322v2.646h4.322v3.065H22.661a1.028 1.028 0 0 1-1.078-1.06V50.39h-3.1v3.963a3.842 3.842 0 0 0 3.866 3.807h11.969l3.091-3.046V35.008h-3.1z" transform="translate(7.238 12.921)" style="fill:#00347d"/>
        <path data-name="패스 1395" d="M17.951 39.768c0 2.9 3.235 5.253 7.22 5.253s7.221-2.352 7.221-5.253-3.234-5.246-7.221-5.246-7.22 2.347-7.22 5.246m11.162 0c0 1.4-1.767 2.551-3.942 2.551s-3.942-1.15-3.942-2.551 1.77-2.54 3.942-2.54 3.942 1.142 3.942 2.54" transform="translate(7.03 12.741)" style="fill:#00347d"/>
        <path data-name="패스 1396" d="M24.4 49.682h3.095v-4.467h5.472v-2.74H18.726a1.38 1.38 0 1 0 0 2.74H24.4z" transform="translate(6.729 15.677)" style="fill:#00347d"/>
        <path data-name="패스 1397" d="M13.87 43.508a5.59 5.59 0 0 1-3.56-2.488c-1.265-1.928-1.168-4.454-1.186-6.181H5.906c-.015 1.728.079 4.254-1.187 6.181a5.75 5.75 0 0 1-3.556 2.588A1.739 1.739 0 0 0 0 45.213a1.482 1.482 0 0 0 1.546 1.4 1.732 1.732 0 0 0 .292-.029c.046-.011.1-.026.142-.034a8.2 8.2 0 0 0 2.24-.88 9.861 9.861 0 0 0 3.249-3.18c.011-.018.046-.067.046-.067v.01c.014.025.038.04.047.058a9.513 9.513 0 0 0 3.244 3.074 8.225 8.225 0 0 0 2.239.882c.053 0 .1.03.148.033a1.67 1.67 0 0 0 .288.029 1.477 1.477 0 0 0 1.543-1.4 1.726 1.726 0 0 0-1.159-1.6" transform="translate(0 12.858)" style="fill:#00347d"/>
        <path data-name="패스 1398" d="M19.95 34.991h-3.159v4.036h-5.264v2.682h5.264v6.722a12.783 12.783 0 0 0-5.173-1.29c-3.76 0-8.176 2.395-8.176 5.938s4.416 5.939 8.176 5.939 8.177-2.4 8.177-5.939a5.09 5.09 0 0 0-1.546-3.69l1.7-1.5zm-8.181 20.931C9.775 55.922 6.8 54.87 6.8 53s2.978-2.924 4.972-2.924 4.972 1.05 4.972 2.924-2.982 2.923-4.972 2.923" transform="translate(1.348 12.915)" style="fill:#00347d"/>
        <path data-name="패스 1399" d="M35.363 44.555v.018a1.571 1.571 0 0 0 0 3.131v.018h8.286v7.834l3.229-2.414v-5.42h9.64v-3.167z" transform="translate(13.286 16.444)" style="fill:#00347d"/>
        <path data-name="패스 1400" d="M81.5 45.125v-1.786h6.635v-8.818H71.612v5.142a3.453 3.453 0 0 0 1.083 2.69 4.061 4.061 0 0 0 2.843.986H78.3v1.785s-8.455 0-8.455.007a1.338 1.338 0 0 0-1.323 1.325 1.318 1.318 0 0 0 .445.984 1.464 1.464 0 0 0 .878.348h21.322v-2.663zm-5.5-4.45a1.4 1.4 0 0 1-.893-.226 1.017 1.017 0 0 1-.271-.813v-2.451h10.073v3.49z" transform="translate(26.834 12.741)" style="fill:#00347d"/>
        <path data-name="패스 1401" d="M74.179 52.106v-.693h12.7v-6.207H70.957v2.5h12.7v1.2h-12.7v2.93c0 .1.019.192.026.289l3.14 3.075a4.725 4.725 0 0 0 .6.047h12.969v-2.5H75.073c-.6 0-.895-.212-.895-.639" transform="translate(27.787 16.685)" style="fill:#00347d"/>
    </g>
</svg>
