<svg xmlns="http://www.w3.org/2000/svg" width="373" height="243" viewBox="0 0 373 243">
    <path d="m-16860.328 1787.219 233.6 128.229 139.4-76.926v-8.787l-2.982-1.688v-29.92l-25.668-14.321 8.857-11.461-45.783-7.964-26.42-14.508 13.016-16.353-56.7-9.2-2.014.391-17.859-9.274 2.568-3.348-13.682-2.4-66.9-37.246-136.486 74.562v27.95l-2.943 2.207z" transform="translate(16860.328 -1672.448)" style="fill:#fff;mix-blend-mode:overlay;isolation:isolate"/>
    <path data-name="foodmall_" d="m-16860.328 1787.219 233.6 128.229 139.4-76.926v-8.787l-2.982-1.688v-29.92l-25.668-14.321 8.857-11.461-45.783-7.964-26.42-14.508 13.016-16.353-56.7-9.2-2.014.391-17.859-9.274 2.568-3.348-13.682-2.4-66.9-37.246-136.486 74.562v27.95l-2.943 2.207z" transform="translate(16860.328 -1672.448)" style="opacity:.22;fill:#fff;mix-blend-mode:overlay;isolation:isolate"/>
</svg>
